G04 #@! TF.GenerationSoftware,KiCad,Pcbnew,(5.1.5-0-10_14)*
G04 #@! TF.CreationDate,2020-04-18T14:37:19+10:00*
G04 #@! TF.ProjectId,hrem,6872656d-2e6b-4696-9361-645f70636258,rev?*
G04 #@! TF.SameCoordinates,Original*
G04 #@! TF.FileFunction,Copper,L2,Bot*
G04 #@! TF.FilePolarity,Positive*
%FSLAX46Y46*%
G04 Gerber Fmt 4.6, Leading zero omitted, Abs format (unit mm)*
G04 Created by KiCad (PCBNEW (5.1.5-0-10_14)) date 2020-04-18 14:37:19*
%MOMM*%
%LPD*%
G04 APERTURE LIST*
%ADD10C,1.524000*%
%ADD11R,1.550000X1.300000*%
%ADD12C,2.000000*%
%ADD13R,1.727200X1.727200*%
%ADD14O,1.727200X1.727200*%
%ADD15R,1.560000X0.650000*%
%ADD16R,0.650000X1.560000*%
%ADD17C,0.100000*%
%ADD18R,1.800000X1.800000*%
%ADD19C,1.800000*%
%ADD20C,0.500000*%
%ADD21C,0.250000*%
%ADD22C,0.500000*%
%ADD23C,0.254000*%
G04 APERTURE END LIST*
D10*
X99441000Y-61722000D03*
X99441000Y-66802000D03*
D11*
X78410000Y-66738500D03*
X86360000Y-66738500D03*
X78410000Y-62238500D03*
X86360000Y-62238500D03*
D12*
X124460000Y-62484000D03*
D13*
X69850000Y-76962000D03*
D14*
X69850000Y-74422000D03*
X72390000Y-76962000D03*
X72390000Y-74422000D03*
X74930000Y-76962000D03*
X74930000Y-74422000D03*
X77470000Y-76962000D03*
X77470000Y-74422000D03*
X80010000Y-76962000D03*
X80010000Y-74422000D03*
D15*
X118648500Y-78488500D03*
X118648500Y-80388500D03*
X121348500Y-80388500D03*
X121348500Y-79438500D03*
X121348500Y-78488500D03*
D16*
X113342500Y-65849500D03*
X112392500Y-65849500D03*
X111442500Y-65849500D03*
X111442500Y-63149500D03*
X113342500Y-63149500D03*
G04 #@! TA.AperFunction,SMDPad,CuDef*
D17*
G36*
X116489005Y-77767204D02*
G01*
X116513273Y-77770804D01*
X116537072Y-77776765D01*
X116560171Y-77785030D01*
X116582350Y-77795520D01*
X116603393Y-77808132D01*
X116623099Y-77822747D01*
X116641277Y-77839223D01*
X116657753Y-77857401D01*
X116672368Y-77877107D01*
X116684980Y-77898150D01*
X116695470Y-77920329D01*
X116703735Y-77943428D01*
X116709696Y-77967227D01*
X116713296Y-77991495D01*
X116714500Y-78015999D01*
X116714500Y-78666001D01*
X116713296Y-78690505D01*
X116709696Y-78714773D01*
X116703735Y-78738572D01*
X116695470Y-78761671D01*
X116684980Y-78783850D01*
X116672368Y-78804893D01*
X116657753Y-78824599D01*
X116641277Y-78842777D01*
X116623099Y-78859253D01*
X116603393Y-78873868D01*
X116582350Y-78886480D01*
X116560171Y-78896970D01*
X116537072Y-78905235D01*
X116513273Y-78911196D01*
X116489005Y-78914796D01*
X116464501Y-78916000D01*
X115564499Y-78916000D01*
X115539995Y-78914796D01*
X115515727Y-78911196D01*
X115491928Y-78905235D01*
X115468829Y-78896970D01*
X115446650Y-78886480D01*
X115425607Y-78873868D01*
X115405901Y-78859253D01*
X115387723Y-78842777D01*
X115371247Y-78824599D01*
X115356632Y-78804893D01*
X115344020Y-78783850D01*
X115333530Y-78761671D01*
X115325265Y-78738572D01*
X115319304Y-78714773D01*
X115315704Y-78690505D01*
X115314500Y-78666001D01*
X115314500Y-78015999D01*
X115315704Y-77991495D01*
X115319304Y-77967227D01*
X115325265Y-77943428D01*
X115333530Y-77920329D01*
X115344020Y-77898150D01*
X115356632Y-77877107D01*
X115371247Y-77857401D01*
X115387723Y-77839223D01*
X115405901Y-77822747D01*
X115425607Y-77808132D01*
X115446650Y-77795520D01*
X115468829Y-77785030D01*
X115491928Y-77776765D01*
X115515727Y-77770804D01*
X115539995Y-77767204D01*
X115564499Y-77766000D01*
X116464501Y-77766000D01*
X116489005Y-77767204D01*
G37*
G04 #@! TD.AperFunction*
G04 #@! TA.AperFunction,SMDPad,CuDef*
G36*
X116489005Y-79817204D02*
G01*
X116513273Y-79820804D01*
X116537072Y-79826765D01*
X116560171Y-79835030D01*
X116582350Y-79845520D01*
X116603393Y-79858132D01*
X116623099Y-79872747D01*
X116641277Y-79889223D01*
X116657753Y-79907401D01*
X116672368Y-79927107D01*
X116684980Y-79948150D01*
X116695470Y-79970329D01*
X116703735Y-79993428D01*
X116709696Y-80017227D01*
X116713296Y-80041495D01*
X116714500Y-80065999D01*
X116714500Y-80716001D01*
X116713296Y-80740505D01*
X116709696Y-80764773D01*
X116703735Y-80788572D01*
X116695470Y-80811671D01*
X116684980Y-80833850D01*
X116672368Y-80854893D01*
X116657753Y-80874599D01*
X116641277Y-80892777D01*
X116623099Y-80909253D01*
X116603393Y-80923868D01*
X116582350Y-80936480D01*
X116560171Y-80946970D01*
X116537072Y-80955235D01*
X116513273Y-80961196D01*
X116489005Y-80964796D01*
X116464501Y-80966000D01*
X115564499Y-80966000D01*
X115539995Y-80964796D01*
X115515727Y-80961196D01*
X115491928Y-80955235D01*
X115468829Y-80946970D01*
X115446650Y-80936480D01*
X115425607Y-80923868D01*
X115405901Y-80909253D01*
X115387723Y-80892777D01*
X115371247Y-80874599D01*
X115356632Y-80854893D01*
X115344020Y-80833850D01*
X115333530Y-80811671D01*
X115325265Y-80788572D01*
X115319304Y-80764773D01*
X115315704Y-80740505D01*
X115314500Y-80716001D01*
X115314500Y-80065999D01*
X115315704Y-80041495D01*
X115319304Y-80017227D01*
X115325265Y-79993428D01*
X115333530Y-79970329D01*
X115344020Y-79948150D01*
X115356632Y-79927107D01*
X115371247Y-79907401D01*
X115387723Y-79889223D01*
X115405901Y-79872747D01*
X115425607Y-79858132D01*
X115446650Y-79845520D01*
X115468829Y-79835030D01*
X115491928Y-79826765D01*
X115515727Y-79820804D01*
X115539995Y-79817204D01*
X115564499Y-79816000D01*
X116464501Y-79816000D01*
X116489005Y-79817204D01*
G37*
G04 #@! TD.AperFunction*
G04 #@! TA.AperFunction,SMDPad,CuDef*
G36*
X99219005Y-77723704D02*
G01*
X99243273Y-77727304D01*
X99267072Y-77733265D01*
X99290171Y-77741530D01*
X99312350Y-77752020D01*
X99333393Y-77764632D01*
X99353099Y-77779247D01*
X99371277Y-77795723D01*
X99387753Y-77813901D01*
X99402368Y-77833607D01*
X99414980Y-77854650D01*
X99425470Y-77876829D01*
X99433735Y-77899928D01*
X99439696Y-77923727D01*
X99443296Y-77947995D01*
X99444500Y-77972499D01*
X99444500Y-78872501D01*
X99443296Y-78897005D01*
X99439696Y-78921273D01*
X99433735Y-78945072D01*
X99425470Y-78968171D01*
X99414980Y-78990350D01*
X99402368Y-79011393D01*
X99387753Y-79031099D01*
X99371277Y-79049277D01*
X99353099Y-79065753D01*
X99333393Y-79080368D01*
X99312350Y-79092980D01*
X99290171Y-79103470D01*
X99267072Y-79111735D01*
X99243273Y-79117696D01*
X99219005Y-79121296D01*
X99194501Y-79122500D01*
X98544499Y-79122500D01*
X98519995Y-79121296D01*
X98495727Y-79117696D01*
X98471928Y-79111735D01*
X98448829Y-79103470D01*
X98426650Y-79092980D01*
X98405607Y-79080368D01*
X98385901Y-79065753D01*
X98367723Y-79049277D01*
X98351247Y-79031099D01*
X98336632Y-79011393D01*
X98324020Y-78990350D01*
X98313530Y-78968171D01*
X98305265Y-78945072D01*
X98299304Y-78921273D01*
X98295704Y-78897005D01*
X98294500Y-78872501D01*
X98294500Y-77972499D01*
X98295704Y-77947995D01*
X98299304Y-77923727D01*
X98305265Y-77899928D01*
X98313530Y-77876829D01*
X98324020Y-77854650D01*
X98336632Y-77833607D01*
X98351247Y-77813901D01*
X98367723Y-77795723D01*
X98385901Y-77779247D01*
X98405607Y-77764632D01*
X98426650Y-77752020D01*
X98448829Y-77741530D01*
X98471928Y-77733265D01*
X98495727Y-77727304D01*
X98519995Y-77723704D01*
X98544499Y-77722500D01*
X99194501Y-77722500D01*
X99219005Y-77723704D01*
G37*
G04 #@! TD.AperFunction*
G04 #@! TA.AperFunction,SMDPad,CuDef*
G36*
X97169005Y-77723704D02*
G01*
X97193273Y-77727304D01*
X97217072Y-77733265D01*
X97240171Y-77741530D01*
X97262350Y-77752020D01*
X97283393Y-77764632D01*
X97303099Y-77779247D01*
X97321277Y-77795723D01*
X97337753Y-77813901D01*
X97352368Y-77833607D01*
X97364980Y-77854650D01*
X97375470Y-77876829D01*
X97383735Y-77899928D01*
X97389696Y-77923727D01*
X97393296Y-77947995D01*
X97394500Y-77972499D01*
X97394500Y-78872501D01*
X97393296Y-78897005D01*
X97389696Y-78921273D01*
X97383735Y-78945072D01*
X97375470Y-78968171D01*
X97364980Y-78990350D01*
X97352368Y-79011393D01*
X97337753Y-79031099D01*
X97321277Y-79049277D01*
X97303099Y-79065753D01*
X97283393Y-79080368D01*
X97262350Y-79092980D01*
X97240171Y-79103470D01*
X97217072Y-79111735D01*
X97193273Y-79117696D01*
X97169005Y-79121296D01*
X97144501Y-79122500D01*
X96494499Y-79122500D01*
X96469995Y-79121296D01*
X96445727Y-79117696D01*
X96421928Y-79111735D01*
X96398829Y-79103470D01*
X96376650Y-79092980D01*
X96355607Y-79080368D01*
X96335901Y-79065753D01*
X96317723Y-79049277D01*
X96301247Y-79031099D01*
X96286632Y-79011393D01*
X96274020Y-78990350D01*
X96263530Y-78968171D01*
X96255265Y-78945072D01*
X96249304Y-78921273D01*
X96245704Y-78897005D01*
X96244500Y-78872501D01*
X96244500Y-77972499D01*
X96245704Y-77947995D01*
X96249304Y-77923727D01*
X96255265Y-77899928D01*
X96263530Y-77876829D01*
X96274020Y-77854650D01*
X96286632Y-77833607D01*
X96301247Y-77813901D01*
X96317723Y-77795723D01*
X96335901Y-77779247D01*
X96355607Y-77764632D01*
X96376650Y-77752020D01*
X96398829Y-77741530D01*
X96421928Y-77733265D01*
X96445727Y-77727304D01*
X96469995Y-77723704D01*
X96494499Y-77722500D01*
X97144501Y-77722500D01*
X97169005Y-77723704D01*
G37*
G04 #@! TD.AperFunction*
D18*
X117284500Y-65087500D03*
D19*
X117284500Y-62547500D03*
D16*
X65090000Y-55546000D03*
X66040000Y-55546000D03*
X66990000Y-55546000D03*
X66990000Y-58246000D03*
X65090000Y-58246000D03*
G04 #@! TA.AperFunction,SMDPad,CuDef*
D17*
G36*
X99228005Y-75818704D02*
G01*
X99252273Y-75822304D01*
X99276072Y-75828265D01*
X99299171Y-75836530D01*
X99321350Y-75847020D01*
X99342393Y-75859632D01*
X99362099Y-75874247D01*
X99380277Y-75890723D01*
X99396753Y-75908901D01*
X99411368Y-75928607D01*
X99423980Y-75949650D01*
X99434470Y-75971829D01*
X99442735Y-75994928D01*
X99448696Y-76018727D01*
X99452296Y-76042995D01*
X99453500Y-76067499D01*
X99453500Y-76967501D01*
X99452296Y-76992005D01*
X99448696Y-77016273D01*
X99442735Y-77040072D01*
X99434470Y-77063171D01*
X99423980Y-77085350D01*
X99411368Y-77106393D01*
X99396753Y-77126099D01*
X99380277Y-77144277D01*
X99362099Y-77160753D01*
X99342393Y-77175368D01*
X99321350Y-77187980D01*
X99299171Y-77198470D01*
X99276072Y-77206735D01*
X99252273Y-77212696D01*
X99228005Y-77216296D01*
X99203501Y-77217500D01*
X98553499Y-77217500D01*
X98528995Y-77216296D01*
X98504727Y-77212696D01*
X98480928Y-77206735D01*
X98457829Y-77198470D01*
X98435650Y-77187980D01*
X98414607Y-77175368D01*
X98394901Y-77160753D01*
X98376723Y-77144277D01*
X98360247Y-77126099D01*
X98345632Y-77106393D01*
X98333020Y-77085350D01*
X98322530Y-77063171D01*
X98314265Y-77040072D01*
X98308304Y-77016273D01*
X98304704Y-76992005D01*
X98303500Y-76967501D01*
X98303500Y-76067499D01*
X98304704Y-76042995D01*
X98308304Y-76018727D01*
X98314265Y-75994928D01*
X98322530Y-75971829D01*
X98333020Y-75949650D01*
X98345632Y-75928607D01*
X98360247Y-75908901D01*
X98376723Y-75890723D01*
X98394901Y-75874247D01*
X98414607Y-75859632D01*
X98435650Y-75847020D01*
X98457829Y-75836530D01*
X98480928Y-75828265D01*
X98504727Y-75822304D01*
X98528995Y-75818704D01*
X98553499Y-75817500D01*
X99203501Y-75817500D01*
X99228005Y-75818704D01*
G37*
G04 #@! TD.AperFunction*
G04 #@! TA.AperFunction,SMDPad,CuDef*
G36*
X97178005Y-75818704D02*
G01*
X97202273Y-75822304D01*
X97226072Y-75828265D01*
X97249171Y-75836530D01*
X97271350Y-75847020D01*
X97292393Y-75859632D01*
X97312099Y-75874247D01*
X97330277Y-75890723D01*
X97346753Y-75908901D01*
X97361368Y-75928607D01*
X97373980Y-75949650D01*
X97384470Y-75971829D01*
X97392735Y-75994928D01*
X97398696Y-76018727D01*
X97402296Y-76042995D01*
X97403500Y-76067499D01*
X97403500Y-76967501D01*
X97402296Y-76992005D01*
X97398696Y-77016273D01*
X97392735Y-77040072D01*
X97384470Y-77063171D01*
X97373980Y-77085350D01*
X97361368Y-77106393D01*
X97346753Y-77126099D01*
X97330277Y-77144277D01*
X97312099Y-77160753D01*
X97292393Y-77175368D01*
X97271350Y-77187980D01*
X97249171Y-77198470D01*
X97226072Y-77206735D01*
X97202273Y-77212696D01*
X97178005Y-77216296D01*
X97153501Y-77217500D01*
X96503499Y-77217500D01*
X96478995Y-77216296D01*
X96454727Y-77212696D01*
X96430928Y-77206735D01*
X96407829Y-77198470D01*
X96385650Y-77187980D01*
X96364607Y-77175368D01*
X96344901Y-77160753D01*
X96326723Y-77144277D01*
X96310247Y-77126099D01*
X96295632Y-77106393D01*
X96283020Y-77085350D01*
X96272530Y-77063171D01*
X96264265Y-77040072D01*
X96258304Y-77016273D01*
X96254704Y-76992005D01*
X96253500Y-76967501D01*
X96253500Y-76067499D01*
X96254704Y-76042995D01*
X96258304Y-76018727D01*
X96264265Y-75994928D01*
X96272530Y-75971829D01*
X96283020Y-75949650D01*
X96295632Y-75928607D01*
X96310247Y-75908901D01*
X96326723Y-75890723D01*
X96344901Y-75874247D01*
X96364607Y-75859632D01*
X96385650Y-75847020D01*
X96407829Y-75836530D01*
X96430928Y-75828265D01*
X96454727Y-75822304D01*
X96478995Y-75818704D01*
X96503499Y-75817500D01*
X97153501Y-75817500D01*
X97178005Y-75818704D01*
G37*
G04 #@! TD.AperFunction*
G04 #@! TA.AperFunction,SMDPad,CuDef*
G36*
X63433504Y-55030204D02*
G01*
X63457773Y-55033804D01*
X63481571Y-55039765D01*
X63504671Y-55048030D01*
X63526849Y-55058520D01*
X63547893Y-55071133D01*
X63567598Y-55085747D01*
X63585777Y-55102223D01*
X63602253Y-55120402D01*
X63616867Y-55140107D01*
X63629480Y-55161151D01*
X63639970Y-55183329D01*
X63648235Y-55206429D01*
X63654196Y-55230227D01*
X63657796Y-55254496D01*
X63659000Y-55279000D01*
X63659000Y-56279000D01*
X63657796Y-56303504D01*
X63654196Y-56327773D01*
X63648235Y-56351571D01*
X63639970Y-56374671D01*
X63629480Y-56396849D01*
X63616867Y-56417893D01*
X63602253Y-56437598D01*
X63585777Y-56455777D01*
X63567598Y-56472253D01*
X63547893Y-56486867D01*
X63526849Y-56499480D01*
X63504671Y-56509970D01*
X63481571Y-56518235D01*
X63457773Y-56524196D01*
X63433504Y-56527796D01*
X63409000Y-56529000D01*
X61559000Y-56529000D01*
X61534496Y-56527796D01*
X61510227Y-56524196D01*
X61486429Y-56518235D01*
X61463329Y-56509970D01*
X61441151Y-56499480D01*
X61420107Y-56486867D01*
X61400402Y-56472253D01*
X61382223Y-56455777D01*
X61365747Y-56437598D01*
X61351133Y-56417893D01*
X61338520Y-56396849D01*
X61328030Y-56374671D01*
X61319765Y-56351571D01*
X61313804Y-56327773D01*
X61310204Y-56303504D01*
X61309000Y-56279000D01*
X61309000Y-55279000D01*
X61310204Y-55254496D01*
X61313804Y-55230227D01*
X61319765Y-55206429D01*
X61328030Y-55183329D01*
X61338520Y-55161151D01*
X61351133Y-55140107D01*
X61365747Y-55120402D01*
X61382223Y-55102223D01*
X61400402Y-55085747D01*
X61420107Y-55071133D01*
X61441151Y-55058520D01*
X61463329Y-55048030D01*
X61486429Y-55039765D01*
X61510227Y-55033804D01*
X61534496Y-55030204D01*
X61559000Y-55029000D01*
X63409000Y-55029000D01*
X63433504Y-55030204D01*
G37*
G04 #@! TD.AperFunction*
G04 #@! TA.AperFunction,SMDPad,CuDef*
G36*
X63433504Y-58280204D02*
G01*
X63457773Y-58283804D01*
X63481571Y-58289765D01*
X63504671Y-58298030D01*
X63526849Y-58308520D01*
X63547893Y-58321133D01*
X63567598Y-58335747D01*
X63585777Y-58352223D01*
X63602253Y-58370402D01*
X63616867Y-58390107D01*
X63629480Y-58411151D01*
X63639970Y-58433329D01*
X63648235Y-58456429D01*
X63654196Y-58480227D01*
X63657796Y-58504496D01*
X63659000Y-58529000D01*
X63659000Y-59529000D01*
X63657796Y-59553504D01*
X63654196Y-59577773D01*
X63648235Y-59601571D01*
X63639970Y-59624671D01*
X63629480Y-59646849D01*
X63616867Y-59667893D01*
X63602253Y-59687598D01*
X63585777Y-59705777D01*
X63567598Y-59722253D01*
X63547893Y-59736867D01*
X63526849Y-59749480D01*
X63504671Y-59759970D01*
X63481571Y-59768235D01*
X63457773Y-59774196D01*
X63433504Y-59777796D01*
X63409000Y-59779000D01*
X61559000Y-59779000D01*
X61534496Y-59777796D01*
X61510227Y-59774196D01*
X61486429Y-59768235D01*
X61463329Y-59759970D01*
X61441151Y-59749480D01*
X61420107Y-59736867D01*
X61400402Y-59722253D01*
X61382223Y-59705777D01*
X61365747Y-59687598D01*
X61351133Y-59667893D01*
X61338520Y-59646849D01*
X61328030Y-59624671D01*
X61319765Y-59601571D01*
X61313804Y-59577773D01*
X61310204Y-59553504D01*
X61309000Y-59529000D01*
X61309000Y-58529000D01*
X61310204Y-58504496D01*
X61313804Y-58480227D01*
X61319765Y-58456429D01*
X61328030Y-58433329D01*
X61338520Y-58411151D01*
X61351133Y-58390107D01*
X61365747Y-58370402D01*
X61382223Y-58352223D01*
X61400402Y-58335747D01*
X61420107Y-58321133D01*
X61441151Y-58308520D01*
X61463329Y-58298030D01*
X61486429Y-58289765D01*
X61510227Y-58283804D01*
X61534496Y-58280204D01*
X61559000Y-58279000D01*
X63409000Y-58279000D01*
X63433504Y-58280204D01*
G37*
G04 #@! TD.AperFunction*
G04 #@! TA.AperFunction,SMDPad,CuDef*
G36*
X114649505Y-59372204D02*
G01*
X114673773Y-59375804D01*
X114697572Y-59381765D01*
X114720671Y-59390030D01*
X114742850Y-59400520D01*
X114763893Y-59413132D01*
X114783599Y-59427747D01*
X114801777Y-59444223D01*
X114818253Y-59462401D01*
X114832868Y-59482107D01*
X114845480Y-59503150D01*
X114855970Y-59525329D01*
X114864235Y-59548428D01*
X114870196Y-59572227D01*
X114873796Y-59596495D01*
X114875000Y-59620999D01*
X114875000Y-60521001D01*
X114873796Y-60545505D01*
X114870196Y-60569773D01*
X114864235Y-60593572D01*
X114855970Y-60616671D01*
X114845480Y-60638850D01*
X114832868Y-60659893D01*
X114818253Y-60679599D01*
X114801777Y-60697777D01*
X114783599Y-60714253D01*
X114763893Y-60728868D01*
X114742850Y-60741480D01*
X114720671Y-60751970D01*
X114697572Y-60760235D01*
X114673773Y-60766196D01*
X114649505Y-60769796D01*
X114625001Y-60771000D01*
X113974999Y-60771000D01*
X113950495Y-60769796D01*
X113926227Y-60766196D01*
X113902428Y-60760235D01*
X113879329Y-60751970D01*
X113857150Y-60741480D01*
X113836107Y-60728868D01*
X113816401Y-60714253D01*
X113798223Y-60697777D01*
X113781747Y-60679599D01*
X113767132Y-60659893D01*
X113754520Y-60638850D01*
X113744030Y-60616671D01*
X113735765Y-60593572D01*
X113729804Y-60569773D01*
X113726204Y-60545505D01*
X113725000Y-60521001D01*
X113725000Y-59620999D01*
X113726204Y-59596495D01*
X113729804Y-59572227D01*
X113735765Y-59548428D01*
X113744030Y-59525329D01*
X113754520Y-59503150D01*
X113767132Y-59482107D01*
X113781747Y-59462401D01*
X113798223Y-59444223D01*
X113816401Y-59427747D01*
X113836107Y-59413132D01*
X113857150Y-59400520D01*
X113879329Y-59390030D01*
X113902428Y-59381765D01*
X113926227Y-59375804D01*
X113950495Y-59372204D01*
X113974999Y-59371000D01*
X114625001Y-59371000D01*
X114649505Y-59372204D01*
G37*
G04 #@! TD.AperFunction*
G04 #@! TA.AperFunction,SMDPad,CuDef*
G36*
X116699505Y-59372204D02*
G01*
X116723773Y-59375804D01*
X116747572Y-59381765D01*
X116770671Y-59390030D01*
X116792850Y-59400520D01*
X116813893Y-59413132D01*
X116833599Y-59427747D01*
X116851777Y-59444223D01*
X116868253Y-59462401D01*
X116882868Y-59482107D01*
X116895480Y-59503150D01*
X116905970Y-59525329D01*
X116914235Y-59548428D01*
X116920196Y-59572227D01*
X116923796Y-59596495D01*
X116925000Y-59620999D01*
X116925000Y-60521001D01*
X116923796Y-60545505D01*
X116920196Y-60569773D01*
X116914235Y-60593572D01*
X116905970Y-60616671D01*
X116895480Y-60638850D01*
X116882868Y-60659893D01*
X116868253Y-60679599D01*
X116851777Y-60697777D01*
X116833599Y-60714253D01*
X116813893Y-60728868D01*
X116792850Y-60741480D01*
X116770671Y-60751970D01*
X116747572Y-60760235D01*
X116723773Y-60766196D01*
X116699505Y-60769796D01*
X116675001Y-60771000D01*
X116024999Y-60771000D01*
X116000495Y-60769796D01*
X115976227Y-60766196D01*
X115952428Y-60760235D01*
X115929329Y-60751970D01*
X115907150Y-60741480D01*
X115886107Y-60728868D01*
X115866401Y-60714253D01*
X115848223Y-60697777D01*
X115831747Y-60679599D01*
X115817132Y-60659893D01*
X115804520Y-60638850D01*
X115794030Y-60616671D01*
X115785765Y-60593572D01*
X115779804Y-60569773D01*
X115776204Y-60545505D01*
X115775000Y-60521001D01*
X115775000Y-59620999D01*
X115776204Y-59596495D01*
X115779804Y-59572227D01*
X115785765Y-59548428D01*
X115794030Y-59525329D01*
X115804520Y-59503150D01*
X115817132Y-59482107D01*
X115831747Y-59462401D01*
X115848223Y-59444223D01*
X115866401Y-59427747D01*
X115886107Y-59413132D01*
X115907150Y-59400520D01*
X115929329Y-59390030D01*
X115952428Y-59381765D01*
X115976227Y-59375804D01*
X116000495Y-59372204D01*
X116024999Y-59371000D01*
X116675001Y-59371000D01*
X116699505Y-59372204D01*
G37*
G04 #@! TD.AperFunction*
G04 #@! TA.AperFunction,SMDPad,CuDef*
G36*
X121389505Y-75755204D02*
G01*
X121413773Y-75758804D01*
X121437572Y-75764765D01*
X121460671Y-75773030D01*
X121482850Y-75783520D01*
X121503893Y-75796132D01*
X121523599Y-75810747D01*
X121541777Y-75827223D01*
X121558253Y-75845401D01*
X121572868Y-75865107D01*
X121585480Y-75886150D01*
X121595970Y-75908329D01*
X121604235Y-75931428D01*
X121610196Y-75955227D01*
X121613796Y-75979495D01*
X121615000Y-76003999D01*
X121615000Y-76904001D01*
X121613796Y-76928505D01*
X121610196Y-76952773D01*
X121604235Y-76976572D01*
X121595970Y-76999671D01*
X121585480Y-77021850D01*
X121572868Y-77042893D01*
X121558253Y-77062599D01*
X121541777Y-77080777D01*
X121523599Y-77097253D01*
X121503893Y-77111868D01*
X121482850Y-77124480D01*
X121460671Y-77134970D01*
X121437572Y-77143235D01*
X121413773Y-77149196D01*
X121389505Y-77152796D01*
X121365001Y-77154000D01*
X120714999Y-77154000D01*
X120690495Y-77152796D01*
X120666227Y-77149196D01*
X120642428Y-77143235D01*
X120619329Y-77134970D01*
X120597150Y-77124480D01*
X120576107Y-77111868D01*
X120556401Y-77097253D01*
X120538223Y-77080777D01*
X120521747Y-77062599D01*
X120507132Y-77042893D01*
X120494520Y-77021850D01*
X120484030Y-76999671D01*
X120475765Y-76976572D01*
X120469804Y-76952773D01*
X120466204Y-76928505D01*
X120465000Y-76904001D01*
X120465000Y-76003999D01*
X120466204Y-75979495D01*
X120469804Y-75955227D01*
X120475765Y-75931428D01*
X120484030Y-75908329D01*
X120494520Y-75886150D01*
X120507132Y-75865107D01*
X120521747Y-75845401D01*
X120538223Y-75827223D01*
X120556401Y-75810747D01*
X120576107Y-75796132D01*
X120597150Y-75783520D01*
X120619329Y-75773030D01*
X120642428Y-75764765D01*
X120666227Y-75758804D01*
X120690495Y-75755204D01*
X120714999Y-75754000D01*
X121365001Y-75754000D01*
X121389505Y-75755204D01*
G37*
G04 #@! TD.AperFunction*
G04 #@! TA.AperFunction,SMDPad,CuDef*
G36*
X119339505Y-75755204D02*
G01*
X119363773Y-75758804D01*
X119387572Y-75764765D01*
X119410671Y-75773030D01*
X119432850Y-75783520D01*
X119453893Y-75796132D01*
X119473599Y-75810747D01*
X119491777Y-75827223D01*
X119508253Y-75845401D01*
X119522868Y-75865107D01*
X119535480Y-75886150D01*
X119545970Y-75908329D01*
X119554235Y-75931428D01*
X119560196Y-75955227D01*
X119563796Y-75979495D01*
X119565000Y-76003999D01*
X119565000Y-76904001D01*
X119563796Y-76928505D01*
X119560196Y-76952773D01*
X119554235Y-76976572D01*
X119545970Y-76999671D01*
X119535480Y-77021850D01*
X119522868Y-77042893D01*
X119508253Y-77062599D01*
X119491777Y-77080777D01*
X119473599Y-77097253D01*
X119453893Y-77111868D01*
X119432850Y-77124480D01*
X119410671Y-77134970D01*
X119387572Y-77143235D01*
X119363773Y-77149196D01*
X119339505Y-77152796D01*
X119315001Y-77154000D01*
X118664999Y-77154000D01*
X118640495Y-77152796D01*
X118616227Y-77149196D01*
X118592428Y-77143235D01*
X118569329Y-77134970D01*
X118547150Y-77124480D01*
X118526107Y-77111868D01*
X118506401Y-77097253D01*
X118488223Y-77080777D01*
X118471747Y-77062599D01*
X118457132Y-77042893D01*
X118444520Y-77021850D01*
X118434030Y-76999671D01*
X118425765Y-76976572D01*
X118419804Y-76952773D01*
X118416204Y-76928505D01*
X118415000Y-76904001D01*
X118415000Y-76003999D01*
X118416204Y-75979495D01*
X118419804Y-75955227D01*
X118425765Y-75931428D01*
X118434030Y-75908329D01*
X118444520Y-75886150D01*
X118457132Y-75865107D01*
X118471747Y-75845401D01*
X118488223Y-75827223D01*
X118506401Y-75810747D01*
X118526107Y-75796132D01*
X118547150Y-75783520D01*
X118569329Y-75773030D01*
X118592428Y-75764765D01*
X118616227Y-75758804D01*
X118640495Y-75755204D01*
X118664999Y-75754000D01*
X119315001Y-75754000D01*
X119339505Y-75755204D01*
G37*
G04 #@! TD.AperFunction*
D20*
X63119000Y-57015999D03*
X62484000Y-57023000D03*
X61849000Y-57023000D03*
X122578501Y-78753499D03*
X122578501Y-80033501D03*
X122578501Y-79375000D03*
X95504000Y-70993000D03*
X95504000Y-71628000D03*
X92597480Y-73660000D03*
X92597480Y-73025000D03*
X128016000Y-52959000D03*
X129159000Y-52959000D03*
X130175000Y-52959000D03*
X128016000Y-53975000D03*
X130175000Y-53975000D03*
X129159000Y-53975000D03*
X128016000Y-54991000D03*
X129159000Y-54991000D03*
X130175000Y-54991000D03*
X96075500Y-80581500D03*
X95377000Y-80581500D03*
X92597480Y-72390000D03*
X95504000Y-72263000D03*
X66294000Y-52832000D03*
X66294000Y-53467000D03*
X66294000Y-54102000D03*
X65659000Y-54102000D03*
X65659000Y-53467000D03*
X65659000Y-52832000D03*
X65024000Y-52832000D03*
X65024000Y-53467000D03*
X65024000Y-54102000D03*
X100012500Y-76263500D03*
X100012500Y-77089000D03*
X100012500Y-78740000D03*
X100012500Y-77978000D03*
X118681500Y-77470000D03*
X113342500Y-59626500D03*
X113342500Y-60198000D03*
X113342500Y-60769500D03*
X118110000Y-77470000D03*
X119253000Y-77470000D03*
X65151000Y-60579000D03*
X65151000Y-61214000D03*
X65151000Y-61849000D03*
X101473000Y-80562000D03*
X95694500Y-76771500D03*
X101473000Y-78041500D03*
X78740000Y-62611000D03*
X103505000Y-74803000D03*
X112392500Y-68196500D03*
X119888000Y-80013500D03*
X110426500Y-62674500D03*
X110426500Y-63563500D03*
D21*
X66990000Y-58246000D02*
X66990000Y-57791000D01*
X113342500Y-65849500D02*
X113342500Y-65346500D01*
D22*
X96774000Y-78468000D02*
X96819500Y-78422500D01*
X122313502Y-78488500D02*
X122578501Y-78753499D01*
X121348500Y-78488500D02*
X122313502Y-78488500D01*
X122223502Y-80388500D02*
X121348500Y-80388500D01*
X122578501Y-80033501D02*
X122223502Y-80388500D01*
X122578501Y-78753499D02*
X122578501Y-80033501D01*
D21*
X122578501Y-78753499D02*
X122578501Y-78753499D01*
X122578501Y-80033501D02*
X122578501Y-80033501D01*
D22*
X113342500Y-64884498D02*
X113342500Y-65849500D01*
X113077501Y-64619499D02*
X113342500Y-64884498D01*
X111707499Y-64619499D02*
X113077501Y-64619499D01*
X111442500Y-65849500D02*
X111442500Y-64884498D01*
X111442500Y-64884498D02*
X111707499Y-64619499D01*
X124460000Y-62484000D02*
X128651000Y-62484000D01*
X96819500Y-78422500D02*
X96819500Y-80028000D01*
X122578501Y-78753499D02*
X122578501Y-73683501D01*
X96266000Y-80581500D02*
X95377000Y-80581500D01*
X96819500Y-80028000D02*
X96266000Y-80581500D01*
X116350000Y-60771000D02*
X114935000Y-62186000D01*
X116350000Y-60071000D02*
X116350000Y-60771000D01*
X114935000Y-62186000D02*
X114935000Y-65405000D01*
X118648500Y-78488500D02*
X118648500Y-77470000D01*
X113342500Y-63149500D02*
X113342500Y-59626500D01*
D21*
X117812000Y-79438500D02*
X120318500Y-79438500D01*
X116714500Y-78341000D02*
X117812000Y-79438500D01*
X116014500Y-78341000D02*
X116714500Y-78341000D01*
X120318500Y-79438500D02*
X121348500Y-79438500D01*
X69850000Y-78075600D02*
X69850000Y-76962000D01*
X72930910Y-81156510D02*
X69850000Y-78075600D01*
X101473000Y-80562000D02*
X100878490Y-81156510D01*
X100878490Y-81156510D02*
X72930910Y-81156510D01*
X103694000Y-78341000D02*
X101473000Y-80562000D01*
X116014500Y-78341000D02*
X103694000Y-78341000D01*
X96828500Y-76517500D02*
X95948500Y-76517500D01*
X95948500Y-76517500D02*
X95694500Y-76771500D01*
X76568610Y-78600610D02*
X95135390Y-78600610D01*
X74930000Y-76962000D02*
X76568610Y-78600610D01*
X95694500Y-78041500D02*
X95694500Y-76771500D01*
X95135390Y-78600610D02*
X95694500Y-78041500D01*
X79435000Y-62238500D02*
X86360000Y-62238500D01*
X78410000Y-62238500D02*
X79435000Y-62238500D01*
X78658601Y-78150601D02*
X80599399Y-78150601D01*
X77470000Y-76962000D02*
X78658601Y-78150601D01*
X80599399Y-78150601D02*
X83257510Y-75492490D01*
X83257510Y-75492490D02*
X101019490Y-75492490D01*
X101473000Y-75946000D02*
X101473000Y-78041500D01*
X101019490Y-75492490D02*
X101473000Y-75946000D01*
X112392500Y-67373500D02*
X112392500Y-65849500D01*
X80137000Y-76962000D02*
X80010000Y-76962000D01*
X80010000Y-76962000D02*
X82169000Y-74803000D01*
X82169000Y-74803000D02*
X103505000Y-74803000D01*
X103505000Y-74803000D02*
X103505000Y-74803000D01*
X112392500Y-67373500D02*
X112392500Y-68196500D01*
X112392500Y-68196500D02*
X112392500Y-68196500D01*
X118646000Y-80391000D02*
X118648500Y-80388500D01*
X116014500Y-80391000D02*
X118646000Y-80391000D01*
X118648500Y-80388500D02*
X119513000Y-80388500D01*
X119513000Y-80388500D02*
X119888000Y-80013500D01*
D23*
G36*
X65278000Y-57783606D02*
G01*
X65278000Y-59055000D01*
X65280440Y-59079776D01*
X65287667Y-59103601D01*
X65299403Y-59125557D01*
X65315197Y-59144803D01*
X65405000Y-59234606D01*
X65405000Y-61977394D01*
X65279394Y-62103000D01*
X65022606Y-62103000D01*
X64897000Y-61977394D01*
X64897000Y-57783606D01*
X65022606Y-57658000D01*
X65152394Y-57658000D01*
X65278000Y-57783606D01*
G37*
X65278000Y-57783606D02*
X65278000Y-59055000D01*
X65280440Y-59079776D01*
X65287667Y-59103601D01*
X65299403Y-59125557D01*
X65315197Y-59144803D01*
X65405000Y-59234606D01*
X65405000Y-61977394D01*
X65279394Y-62103000D01*
X65022606Y-62103000D01*
X64897000Y-61977394D01*
X64897000Y-57783606D01*
X65022606Y-57658000D01*
X65152394Y-57658000D01*
X65278000Y-57783606D01*
G36*
X66548000Y-52703606D02*
G01*
X66548000Y-54303394D01*
X66331197Y-54520197D01*
X66315403Y-54539443D01*
X66303667Y-54561399D01*
X66296440Y-54585224D01*
X66294000Y-54610000D01*
X66294000Y-56262394D01*
X66168394Y-56388000D01*
X61847606Y-56388000D01*
X61722000Y-56262394D01*
X61722000Y-55307106D01*
X61847606Y-55181500D01*
X64443000Y-55181500D01*
X64467776Y-55179060D01*
X64491601Y-55171833D01*
X64513557Y-55160097D01*
X64532803Y-55144303D01*
X64732803Y-54944303D01*
X64748597Y-54925057D01*
X64760333Y-54903101D01*
X64767560Y-54879276D01*
X64770000Y-54854500D01*
X64770000Y-52703606D01*
X64895606Y-52578000D01*
X66422394Y-52578000D01*
X66548000Y-52703606D01*
G37*
X66548000Y-52703606D02*
X66548000Y-54303394D01*
X66331197Y-54520197D01*
X66315403Y-54539443D01*
X66303667Y-54561399D01*
X66296440Y-54585224D01*
X66294000Y-54610000D01*
X66294000Y-56262394D01*
X66168394Y-56388000D01*
X61847606Y-56388000D01*
X61722000Y-56262394D01*
X61722000Y-55307106D01*
X61847606Y-55181500D01*
X64443000Y-55181500D01*
X64467776Y-55179060D01*
X64491601Y-55171833D01*
X64513557Y-55160097D01*
X64532803Y-55144303D01*
X64732803Y-54944303D01*
X64748597Y-54925057D01*
X64760333Y-54903101D01*
X64767560Y-54879276D01*
X64770000Y-54854500D01*
X64770000Y-52703606D01*
X64895606Y-52578000D01*
X66422394Y-52578000D01*
X66548000Y-52703606D01*
G36*
X111696500Y-62509606D02*
G01*
X111696500Y-63791894D01*
X111670894Y-63817500D01*
X110325106Y-63817500D01*
X110299500Y-63791894D01*
X110299500Y-62509606D01*
X110325106Y-62484000D01*
X111670894Y-62484000D01*
X111696500Y-62509606D01*
G37*
X111696500Y-62509606D02*
X111696500Y-63791894D01*
X111670894Y-63817500D01*
X110325106Y-63817500D01*
X110299500Y-63791894D01*
X110299500Y-62509606D01*
X110325106Y-62484000D01*
X111670894Y-62484000D01*
X111696500Y-62509606D01*
G36*
X100266500Y-75971606D02*
G01*
X100266500Y-78968394D01*
X100240894Y-78994000D01*
X98450606Y-78994000D01*
X98425000Y-78968394D01*
X98425000Y-75971606D01*
X98450606Y-75946000D01*
X100240894Y-75946000D01*
X100266500Y-75971606D01*
G37*
X100266500Y-75971606D02*
X100266500Y-78968394D01*
X100240894Y-78994000D01*
X98450606Y-78994000D01*
X98425000Y-78968394D01*
X98425000Y-75971606D01*
X98450606Y-75946000D01*
X100240894Y-75946000D01*
X100266500Y-75971606D01*
G36*
X130429000Y-73914000D02*
G01*
X81412249Y-73914000D01*
X81366964Y-73786022D01*
X81216817Y-73533512D01*
X81020293Y-73315146D01*
X80784944Y-73139316D01*
X80519814Y-73012778D01*
X80369026Y-72967042D01*
X80137000Y-73088183D01*
X80137000Y-74295000D01*
X80157000Y-74295000D01*
X80157000Y-74549000D01*
X80137000Y-74549000D01*
X80137000Y-74569000D01*
X79883000Y-74569000D01*
X79883000Y-74549000D01*
X77597000Y-74549000D01*
X77597000Y-74569000D01*
X77343000Y-74569000D01*
X77343000Y-74549000D01*
X75057000Y-74549000D01*
X75057000Y-74569000D01*
X74803000Y-74569000D01*
X74803000Y-74549000D01*
X72517000Y-74549000D01*
X72517000Y-74569000D01*
X72263000Y-74569000D01*
X72263000Y-74549000D01*
X72243000Y-74549000D01*
X72243000Y-74295000D01*
X72263000Y-74295000D01*
X72263000Y-73088183D01*
X72517000Y-73088183D01*
X72517000Y-74295000D01*
X74803000Y-74295000D01*
X74803000Y-73088183D01*
X75057000Y-73088183D01*
X75057000Y-74295000D01*
X77343000Y-74295000D01*
X77343000Y-73088183D01*
X77597000Y-73088183D01*
X77597000Y-74295000D01*
X79883000Y-74295000D01*
X79883000Y-73088183D01*
X79650974Y-72967042D01*
X79500186Y-73012778D01*
X79235056Y-73139316D01*
X78999707Y-73315146D01*
X78803183Y-73533512D01*
X78740000Y-73639770D01*
X78676817Y-73533512D01*
X78480293Y-73315146D01*
X78244944Y-73139316D01*
X77979814Y-73012778D01*
X77829026Y-72967042D01*
X77597000Y-73088183D01*
X77343000Y-73088183D01*
X77110974Y-72967042D01*
X76960186Y-73012778D01*
X76695056Y-73139316D01*
X76459707Y-73315146D01*
X76263183Y-73533512D01*
X76200000Y-73639770D01*
X76136817Y-73533512D01*
X75940293Y-73315146D01*
X75704944Y-73139316D01*
X75439814Y-73012778D01*
X75289026Y-72967042D01*
X75057000Y-73088183D01*
X74803000Y-73088183D01*
X74570974Y-72967042D01*
X74420186Y-73012778D01*
X74155056Y-73139316D01*
X73919707Y-73315146D01*
X73723183Y-73533512D01*
X73660000Y-73639770D01*
X73596817Y-73533512D01*
X73400293Y-73315146D01*
X73164944Y-73139316D01*
X72899814Y-73012778D01*
X72749026Y-72967042D01*
X72517000Y-73088183D01*
X72263000Y-73088183D01*
X72030974Y-72967042D01*
X71880186Y-73012778D01*
X71854578Y-73025000D01*
X60071000Y-73025000D01*
X60071000Y-67388500D01*
X76996928Y-67388500D01*
X77009188Y-67512982D01*
X77045498Y-67632680D01*
X77104463Y-67742994D01*
X77183815Y-67839685D01*
X77280506Y-67919037D01*
X77390820Y-67978002D01*
X77510518Y-68014312D01*
X77635000Y-68026572D01*
X78124250Y-68023500D01*
X78283000Y-67864750D01*
X78283000Y-66865500D01*
X78537000Y-66865500D01*
X78537000Y-67864750D01*
X78695750Y-68023500D01*
X79185000Y-68026572D01*
X79309482Y-68014312D01*
X79429180Y-67978002D01*
X79539494Y-67919037D01*
X79636185Y-67839685D01*
X79715537Y-67742994D01*
X79774502Y-67632680D01*
X79810812Y-67512982D01*
X79823072Y-67388500D01*
X84946928Y-67388500D01*
X84959188Y-67512982D01*
X84995498Y-67632680D01*
X85054463Y-67742994D01*
X85133815Y-67839685D01*
X85230506Y-67919037D01*
X85340820Y-67978002D01*
X85460518Y-68014312D01*
X85585000Y-68026572D01*
X86074250Y-68023500D01*
X86233000Y-67864750D01*
X86233000Y-66865500D01*
X86487000Y-66865500D01*
X86487000Y-67864750D01*
X86645750Y-68023500D01*
X87135000Y-68026572D01*
X87259482Y-68014312D01*
X87379180Y-67978002D01*
X87489494Y-67919037D01*
X87586185Y-67839685D01*
X87665537Y-67742994D01*
X87724502Y-67632680D01*
X87760812Y-67512982D01*
X87773072Y-67388500D01*
X87770000Y-67024250D01*
X87611250Y-66865500D01*
X86487000Y-66865500D01*
X86233000Y-66865500D01*
X85108750Y-66865500D01*
X84950000Y-67024250D01*
X84946928Y-67388500D01*
X79823072Y-67388500D01*
X79820000Y-67024250D01*
X79661250Y-66865500D01*
X78537000Y-66865500D01*
X78283000Y-66865500D01*
X77158750Y-66865500D01*
X77000000Y-67024250D01*
X76996928Y-67388500D01*
X60071000Y-67388500D01*
X60071000Y-59779000D01*
X60670928Y-59779000D01*
X60683188Y-59903482D01*
X60719498Y-60023180D01*
X60778463Y-60133494D01*
X60857815Y-60230185D01*
X60954506Y-60309537D01*
X61064820Y-60368502D01*
X61184518Y-60404812D01*
X61309000Y-60417072D01*
X62198250Y-60414000D01*
X62357000Y-60255250D01*
X62357000Y-59156000D01*
X60832750Y-59156000D01*
X60674000Y-59314750D01*
X60670928Y-59779000D01*
X60071000Y-59779000D01*
X60071000Y-58279000D01*
X60670928Y-58279000D01*
X60674000Y-58743250D01*
X60832750Y-58902000D01*
X62357000Y-58902000D01*
X62357000Y-57802750D01*
X62198250Y-57644000D01*
X61309000Y-57640928D01*
X61184518Y-57653188D01*
X61064820Y-57689498D01*
X60954506Y-57748463D01*
X60857815Y-57827815D01*
X60778463Y-57924506D01*
X60719498Y-58034820D01*
X60683188Y-58154518D01*
X60670928Y-58279000D01*
X60071000Y-58279000D01*
X60071000Y-56896000D01*
X63500000Y-56896000D01*
X63500000Y-57641477D01*
X62769750Y-57644000D01*
X62611000Y-57802750D01*
X62611000Y-58902000D01*
X62631000Y-58902000D01*
X62631000Y-59156000D01*
X62611000Y-59156000D01*
X62611000Y-60255250D01*
X62769750Y-60414000D01*
X63500000Y-60416523D01*
X63500000Y-62484000D01*
X63502440Y-62508776D01*
X63509667Y-62532601D01*
X63521403Y-62554557D01*
X63537197Y-62573803D01*
X63556443Y-62589597D01*
X63578399Y-62601333D01*
X63602224Y-62608560D01*
X63627000Y-62611000D01*
X66675000Y-62611000D01*
X66699776Y-62608560D01*
X66723601Y-62601333D01*
X66745557Y-62589597D01*
X66764803Y-62573803D01*
X66780597Y-62554557D01*
X66792333Y-62532601D01*
X66799560Y-62508776D01*
X66802000Y-62484000D01*
X66802000Y-59563250D01*
X66863000Y-59502250D01*
X66863000Y-58373000D01*
X66843000Y-58373000D01*
X66843000Y-58119000D01*
X66863000Y-58119000D01*
X66863000Y-58099000D01*
X67117000Y-58099000D01*
X67117000Y-58119000D01*
X67137000Y-58119000D01*
X67137000Y-58373000D01*
X67117000Y-58373000D01*
X67117000Y-59502250D01*
X67155697Y-59540947D01*
X67056013Y-66419160D01*
X67058094Y-66443969D01*
X67064975Y-66467895D01*
X67076392Y-66490020D01*
X67091906Y-66509492D01*
X67110920Y-66525563D01*
X67132704Y-66537616D01*
X67156421Y-66545188D01*
X67183000Y-66548000D01*
X77095250Y-66548000D01*
X77158750Y-66611500D01*
X78283000Y-66611500D01*
X78283000Y-66591500D01*
X78537000Y-66591500D01*
X78537000Y-66611500D01*
X79661250Y-66611500D01*
X79724750Y-66548000D01*
X85045250Y-66548000D01*
X85108750Y-66611500D01*
X86233000Y-66611500D01*
X86233000Y-66591500D01*
X86487000Y-66591500D01*
X86487000Y-66611500D01*
X87611250Y-66611500D01*
X87674750Y-66548000D01*
X88011000Y-66548000D01*
X88011000Y-70612000D01*
X88013440Y-70636776D01*
X88020667Y-70660601D01*
X88032403Y-70682557D01*
X88048197Y-70701803D01*
X88067443Y-70717597D01*
X88089399Y-70729333D01*
X88113224Y-70736560D01*
X88138000Y-70739000D01*
X113030000Y-70739000D01*
X113054776Y-70736560D01*
X113078601Y-70729333D01*
X113100557Y-70717597D01*
X113119803Y-70701803D01*
X113135597Y-70682557D01*
X113147333Y-70660601D01*
X113154560Y-70636776D01*
X113157000Y-70612000D01*
X113157000Y-67164250D01*
X113215500Y-67105750D01*
X113215500Y-65976500D01*
X113469500Y-65976500D01*
X113469500Y-67105750D01*
X113628250Y-67264500D01*
X113667500Y-67267572D01*
X113791982Y-67255312D01*
X113911680Y-67219002D01*
X114021994Y-67160037D01*
X114118685Y-67080685D01*
X114198037Y-66983994D01*
X114257002Y-66873680D01*
X114293312Y-66753982D01*
X114305572Y-66629500D01*
X114302500Y-66135250D01*
X114154750Y-65987500D01*
X115746428Y-65987500D01*
X115758688Y-66111982D01*
X115794998Y-66231680D01*
X115853963Y-66341994D01*
X115933315Y-66438685D01*
X116030006Y-66518037D01*
X116140320Y-66577002D01*
X116260018Y-66613312D01*
X116384500Y-66625572D01*
X116998750Y-66622500D01*
X117157500Y-66463750D01*
X117157500Y-65214500D01*
X115908250Y-65214500D01*
X115749500Y-65373250D01*
X115746428Y-65987500D01*
X114154750Y-65987500D01*
X114143750Y-65976500D01*
X113469500Y-65976500D01*
X113215500Y-65976500D01*
X113195500Y-65976500D01*
X113195500Y-65722500D01*
X113215500Y-65722500D01*
X113215500Y-65702500D01*
X113469500Y-65702500D01*
X113469500Y-65722500D01*
X114143750Y-65722500D01*
X114302500Y-65563750D01*
X114305572Y-65069500D01*
X114293312Y-64945018D01*
X114278746Y-64897000D01*
X115844750Y-64897000D01*
X115908250Y-64960500D01*
X117157500Y-64960500D01*
X117157500Y-64940500D01*
X117411500Y-64940500D01*
X117411500Y-64960500D01*
X117431500Y-64960500D01*
X117431500Y-65214500D01*
X117411500Y-65214500D01*
X117411500Y-66463750D01*
X117570250Y-66622500D01*
X117983000Y-66624564D01*
X117983000Y-70612000D01*
X117985440Y-70636776D01*
X117992667Y-70660601D01*
X118004403Y-70682557D01*
X118020197Y-70701803D01*
X118039443Y-70717597D01*
X118061399Y-70729333D01*
X118085224Y-70736560D01*
X118110000Y-70739000D01*
X127635000Y-70739000D01*
X127659776Y-70736560D01*
X127683601Y-70729333D01*
X127705557Y-70717597D01*
X127724803Y-70701803D01*
X127740597Y-70682557D01*
X127752333Y-70660601D01*
X127759560Y-70636776D01*
X127762000Y-70612000D01*
X127762000Y-52578000D01*
X130429000Y-52578000D01*
X130429000Y-73914000D01*
G37*
X130429000Y-73914000D02*
X81412249Y-73914000D01*
X81366964Y-73786022D01*
X81216817Y-73533512D01*
X81020293Y-73315146D01*
X80784944Y-73139316D01*
X80519814Y-73012778D01*
X80369026Y-72967042D01*
X80137000Y-73088183D01*
X80137000Y-74295000D01*
X80157000Y-74295000D01*
X80157000Y-74549000D01*
X80137000Y-74549000D01*
X80137000Y-74569000D01*
X79883000Y-74569000D01*
X79883000Y-74549000D01*
X77597000Y-74549000D01*
X77597000Y-74569000D01*
X77343000Y-74569000D01*
X77343000Y-74549000D01*
X75057000Y-74549000D01*
X75057000Y-74569000D01*
X74803000Y-74569000D01*
X74803000Y-74549000D01*
X72517000Y-74549000D01*
X72517000Y-74569000D01*
X72263000Y-74569000D01*
X72263000Y-74549000D01*
X72243000Y-74549000D01*
X72243000Y-74295000D01*
X72263000Y-74295000D01*
X72263000Y-73088183D01*
X72517000Y-73088183D01*
X72517000Y-74295000D01*
X74803000Y-74295000D01*
X74803000Y-73088183D01*
X75057000Y-73088183D01*
X75057000Y-74295000D01*
X77343000Y-74295000D01*
X77343000Y-73088183D01*
X77597000Y-73088183D01*
X77597000Y-74295000D01*
X79883000Y-74295000D01*
X79883000Y-73088183D01*
X79650974Y-72967042D01*
X79500186Y-73012778D01*
X79235056Y-73139316D01*
X78999707Y-73315146D01*
X78803183Y-73533512D01*
X78740000Y-73639770D01*
X78676817Y-73533512D01*
X78480293Y-73315146D01*
X78244944Y-73139316D01*
X77979814Y-73012778D01*
X77829026Y-72967042D01*
X77597000Y-73088183D01*
X77343000Y-73088183D01*
X77110974Y-72967042D01*
X76960186Y-73012778D01*
X76695056Y-73139316D01*
X76459707Y-73315146D01*
X76263183Y-73533512D01*
X76200000Y-73639770D01*
X76136817Y-73533512D01*
X75940293Y-73315146D01*
X75704944Y-73139316D01*
X75439814Y-73012778D01*
X75289026Y-72967042D01*
X75057000Y-73088183D01*
X74803000Y-73088183D01*
X74570974Y-72967042D01*
X74420186Y-73012778D01*
X74155056Y-73139316D01*
X73919707Y-73315146D01*
X73723183Y-73533512D01*
X73660000Y-73639770D01*
X73596817Y-73533512D01*
X73400293Y-73315146D01*
X73164944Y-73139316D01*
X72899814Y-73012778D01*
X72749026Y-72967042D01*
X72517000Y-73088183D01*
X72263000Y-73088183D01*
X72030974Y-72967042D01*
X71880186Y-73012778D01*
X71854578Y-73025000D01*
X60071000Y-73025000D01*
X60071000Y-67388500D01*
X76996928Y-67388500D01*
X77009188Y-67512982D01*
X77045498Y-67632680D01*
X77104463Y-67742994D01*
X77183815Y-67839685D01*
X77280506Y-67919037D01*
X77390820Y-67978002D01*
X77510518Y-68014312D01*
X77635000Y-68026572D01*
X78124250Y-68023500D01*
X78283000Y-67864750D01*
X78283000Y-66865500D01*
X78537000Y-66865500D01*
X78537000Y-67864750D01*
X78695750Y-68023500D01*
X79185000Y-68026572D01*
X79309482Y-68014312D01*
X79429180Y-67978002D01*
X79539494Y-67919037D01*
X79636185Y-67839685D01*
X79715537Y-67742994D01*
X79774502Y-67632680D01*
X79810812Y-67512982D01*
X79823072Y-67388500D01*
X84946928Y-67388500D01*
X84959188Y-67512982D01*
X84995498Y-67632680D01*
X85054463Y-67742994D01*
X85133815Y-67839685D01*
X85230506Y-67919037D01*
X85340820Y-67978002D01*
X85460518Y-68014312D01*
X85585000Y-68026572D01*
X86074250Y-68023500D01*
X86233000Y-67864750D01*
X86233000Y-66865500D01*
X86487000Y-66865500D01*
X86487000Y-67864750D01*
X86645750Y-68023500D01*
X87135000Y-68026572D01*
X87259482Y-68014312D01*
X87379180Y-67978002D01*
X87489494Y-67919037D01*
X87586185Y-67839685D01*
X87665537Y-67742994D01*
X87724502Y-67632680D01*
X87760812Y-67512982D01*
X87773072Y-67388500D01*
X87770000Y-67024250D01*
X87611250Y-66865500D01*
X86487000Y-66865500D01*
X86233000Y-66865500D01*
X85108750Y-66865500D01*
X84950000Y-67024250D01*
X84946928Y-67388500D01*
X79823072Y-67388500D01*
X79820000Y-67024250D01*
X79661250Y-66865500D01*
X78537000Y-66865500D01*
X78283000Y-66865500D01*
X77158750Y-66865500D01*
X77000000Y-67024250D01*
X76996928Y-67388500D01*
X60071000Y-67388500D01*
X60071000Y-59779000D01*
X60670928Y-59779000D01*
X60683188Y-59903482D01*
X60719498Y-60023180D01*
X60778463Y-60133494D01*
X60857815Y-60230185D01*
X60954506Y-60309537D01*
X61064820Y-60368502D01*
X61184518Y-60404812D01*
X61309000Y-60417072D01*
X62198250Y-60414000D01*
X62357000Y-60255250D01*
X62357000Y-59156000D01*
X60832750Y-59156000D01*
X60674000Y-59314750D01*
X60670928Y-59779000D01*
X60071000Y-59779000D01*
X60071000Y-58279000D01*
X60670928Y-58279000D01*
X60674000Y-58743250D01*
X60832750Y-58902000D01*
X62357000Y-58902000D01*
X62357000Y-57802750D01*
X62198250Y-57644000D01*
X61309000Y-57640928D01*
X61184518Y-57653188D01*
X61064820Y-57689498D01*
X60954506Y-57748463D01*
X60857815Y-57827815D01*
X60778463Y-57924506D01*
X60719498Y-58034820D01*
X60683188Y-58154518D01*
X60670928Y-58279000D01*
X60071000Y-58279000D01*
X60071000Y-56896000D01*
X63500000Y-56896000D01*
X63500000Y-57641477D01*
X62769750Y-57644000D01*
X62611000Y-57802750D01*
X62611000Y-58902000D01*
X62631000Y-58902000D01*
X62631000Y-59156000D01*
X62611000Y-59156000D01*
X62611000Y-60255250D01*
X62769750Y-60414000D01*
X63500000Y-60416523D01*
X63500000Y-62484000D01*
X63502440Y-62508776D01*
X63509667Y-62532601D01*
X63521403Y-62554557D01*
X63537197Y-62573803D01*
X63556443Y-62589597D01*
X63578399Y-62601333D01*
X63602224Y-62608560D01*
X63627000Y-62611000D01*
X66675000Y-62611000D01*
X66699776Y-62608560D01*
X66723601Y-62601333D01*
X66745557Y-62589597D01*
X66764803Y-62573803D01*
X66780597Y-62554557D01*
X66792333Y-62532601D01*
X66799560Y-62508776D01*
X66802000Y-62484000D01*
X66802000Y-59563250D01*
X66863000Y-59502250D01*
X66863000Y-58373000D01*
X66843000Y-58373000D01*
X66843000Y-58119000D01*
X66863000Y-58119000D01*
X66863000Y-58099000D01*
X67117000Y-58099000D01*
X67117000Y-58119000D01*
X67137000Y-58119000D01*
X67137000Y-58373000D01*
X67117000Y-58373000D01*
X67117000Y-59502250D01*
X67155697Y-59540947D01*
X67056013Y-66419160D01*
X67058094Y-66443969D01*
X67064975Y-66467895D01*
X67076392Y-66490020D01*
X67091906Y-66509492D01*
X67110920Y-66525563D01*
X67132704Y-66537616D01*
X67156421Y-66545188D01*
X67183000Y-66548000D01*
X77095250Y-66548000D01*
X77158750Y-66611500D01*
X78283000Y-66611500D01*
X78283000Y-66591500D01*
X78537000Y-66591500D01*
X78537000Y-66611500D01*
X79661250Y-66611500D01*
X79724750Y-66548000D01*
X85045250Y-66548000D01*
X85108750Y-66611500D01*
X86233000Y-66611500D01*
X86233000Y-66591500D01*
X86487000Y-66591500D01*
X86487000Y-66611500D01*
X87611250Y-66611500D01*
X87674750Y-66548000D01*
X88011000Y-66548000D01*
X88011000Y-70612000D01*
X88013440Y-70636776D01*
X88020667Y-70660601D01*
X88032403Y-70682557D01*
X88048197Y-70701803D01*
X88067443Y-70717597D01*
X88089399Y-70729333D01*
X88113224Y-70736560D01*
X88138000Y-70739000D01*
X113030000Y-70739000D01*
X113054776Y-70736560D01*
X113078601Y-70729333D01*
X113100557Y-70717597D01*
X113119803Y-70701803D01*
X113135597Y-70682557D01*
X113147333Y-70660601D01*
X113154560Y-70636776D01*
X113157000Y-70612000D01*
X113157000Y-67164250D01*
X113215500Y-67105750D01*
X113215500Y-65976500D01*
X113469500Y-65976500D01*
X113469500Y-67105750D01*
X113628250Y-67264500D01*
X113667500Y-67267572D01*
X113791982Y-67255312D01*
X113911680Y-67219002D01*
X114021994Y-67160037D01*
X114118685Y-67080685D01*
X114198037Y-66983994D01*
X114257002Y-66873680D01*
X114293312Y-66753982D01*
X114305572Y-66629500D01*
X114302500Y-66135250D01*
X114154750Y-65987500D01*
X115746428Y-65987500D01*
X115758688Y-66111982D01*
X115794998Y-66231680D01*
X115853963Y-66341994D01*
X115933315Y-66438685D01*
X116030006Y-66518037D01*
X116140320Y-66577002D01*
X116260018Y-66613312D01*
X116384500Y-66625572D01*
X116998750Y-66622500D01*
X117157500Y-66463750D01*
X117157500Y-65214500D01*
X115908250Y-65214500D01*
X115749500Y-65373250D01*
X115746428Y-65987500D01*
X114154750Y-65987500D01*
X114143750Y-65976500D01*
X113469500Y-65976500D01*
X113215500Y-65976500D01*
X113195500Y-65976500D01*
X113195500Y-65722500D01*
X113215500Y-65722500D01*
X113215500Y-65702500D01*
X113469500Y-65702500D01*
X113469500Y-65722500D01*
X114143750Y-65722500D01*
X114302500Y-65563750D01*
X114305572Y-65069500D01*
X114293312Y-64945018D01*
X114278746Y-64897000D01*
X115844750Y-64897000D01*
X115908250Y-64960500D01*
X117157500Y-64960500D01*
X117157500Y-64940500D01*
X117411500Y-64940500D01*
X117411500Y-64960500D01*
X117431500Y-64960500D01*
X117431500Y-65214500D01*
X117411500Y-65214500D01*
X117411500Y-66463750D01*
X117570250Y-66622500D01*
X117983000Y-66624564D01*
X117983000Y-70612000D01*
X117985440Y-70636776D01*
X117992667Y-70660601D01*
X118004403Y-70682557D01*
X118020197Y-70701803D01*
X118039443Y-70717597D01*
X118061399Y-70729333D01*
X118085224Y-70736560D01*
X118110000Y-70739000D01*
X127635000Y-70739000D01*
X127659776Y-70736560D01*
X127683601Y-70729333D01*
X127705557Y-70717597D01*
X127724803Y-70701803D01*
X127740597Y-70682557D01*
X127752333Y-70660601D01*
X127759560Y-70636776D01*
X127762000Y-70612000D01*
X127762000Y-52578000D01*
X130429000Y-52578000D01*
X130429000Y-73914000D01*
G36*
X114744500Y-60642500D02*
G01*
X113220500Y-60642500D01*
X113220500Y-59499500D01*
X114744500Y-59499500D01*
X114744500Y-60642500D01*
G37*
X114744500Y-60642500D02*
X113220500Y-60642500D01*
X113220500Y-59499500D01*
X114744500Y-59499500D01*
X114744500Y-60642500D01*
G36*
X119443500Y-78676500D02*
G01*
X117983000Y-78676500D01*
X117983000Y-75882500D01*
X119443500Y-75882500D01*
X119443500Y-78676500D01*
G37*
X119443500Y-78676500D02*
X117983000Y-78676500D01*
X117983000Y-75882500D01*
X119443500Y-75882500D01*
X119443500Y-78676500D01*
G36*
X121920000Y-78676500D02*
G01*
X120586500Y-78676500D01*
X120586500Y-75882500D01*
X121920000Y-75882500D01*
X121920000Y-78676500D01*
G37*
X121920000Y-78676500D02*
X120586500Y-78676500D01*
X120586500Y-75882500D01*
X121920000Y-75882500D01*
X121920000Y-78676500D01*
M02*
