G04 #@! TF.GenerationSoftware,KiCad,Pcbnew,(5.1.5-0-10_14)*
G04 #@! TF.CreationDate,2020-04-18T14:37:19+10:00*
G04 #@! TF.ProjectId,hrem,6872656d-2e6b-4696-9361-645f70636258,rev?*
G04 #@! TF.SameCoordinates,Original*
G04 #@! TF.FileFunction,Soldermask,Bot*
G04 #@! TF.FilePolarity,Negative*
%FSLAX46Y46*%
G04 Gerber Fmt 4.6, Leading zero omitted, Abs format (unit mm)*
G04 Created by KiCad (PCBNEW (5.1.5-0-10_14)) date 2020-04-18 14:37:19*
%MOMM*%
%LPD*%
G04 APERTURE LIST*
%ADD10C,0.100000*%
G04 APERTURE END LIST*
D10*
G36*
X132611585Y-82833802D02*
G01*
X132761410Y-82863604D01*
X133043674Y-82980521D01*
X133297705Y-83150259D01*
X133513741Y-83366295D01*
X133683479Y-83620326D01*
X133800396Y-83902590D01*
X133860000Y-84202240D01*
X133860000Y-84507760D01*
X133800396Y-84807410D01*
X133683479Y-85089674D01*
X133513741Y-85343705D01*
X133297705Y-85559741D01*
X133043674Y-85729479D01*
X132761410Y-85846396D01*
X132611585Y-85876198D01*
X132461761Y-85906000D01*
X132156239Y-85906000D01*
X132006415Y-85876198D01*
X131856590Y-85846396D01*
X131574326Y-85729479D01*
X131320295Y-85559741D01*
X131104259Y-85343705D01*
X130934521Y-85089674D01*
X130817604Y-84807410D01*
X130758000Y-84507760D01*
X130758000Y-84202240D01*
X130817604Y-83902590D01*
X130934521Y-83620326D01*
X131104259Y-83366295D01*
X131320295Y-83150259D01*
X131574326Y-82980521D01*
X131856590Y-82863604D01*
X132006415Y-82833802D01*
X132156239Y-82804000D01*
X132461761Y-82804000D01*
X132611585Y-82833802D01*
G37*
G36*
X59611585Y-82833802D02*
G01*
X59761410Y-82863604D01*
X60043674Y-82980521D01*
X60297705Y-83150259D01*
X60513741Y-83366295D01*
X60683479Y-83620326D01*
X60800396Y-83902590D01*
X60860000Y-84202240D01*
X60860000Y-84507760D01*
X60800396Y-84807410D01*
X60683479Y-85089674D01*
X60513741Y-85343705D01*
X60297705Y-85559741D01*
X60043674Y-85729479D01*
X59761410Y-85846396D01*
X59611585Y-85876198D01*
X59461761Y-85906000D01*
X59156239Y-85906000D01*
X59006415Y-85876198D01*
X58856590Y-85846396D01*
X58574326Y-85729479D01*
X58320295Y-85559741D01*
X58104259Y-85343705D01*
X57934521Y-85089674D01*
X57817604Y-84807410D01*
X57758000Y-84507760D01*
X57758000Y-84202240D01*
X57817604Y-83902590D01*
X57934521Y-83620326D01*
X58104259Y-83366295D01*
X58320295Y-83150259D01*
X58574326Y-82980521D01*
X58856590Y-82863604D01*
X59006415Y-82833802D01*
X59156239Y-82804000D01*
X59461761Y-82804000D01*
X59611585Y-82833802D01*
G37*
G36*
X116603174Y-79769465D02*
G01*
X116640867Y-79780899D01*
X116675603Y-79799466D01*
X116706048Y-79824452D01*
X116731034Y-79854897D01*
X116749601Y-79889633D01*
X116761035Y-79927326D01*
X116765500Y-79972661D01*
X116765500Y-80809339D01*
X116761035Y-80854674D01*
X116749601Y-80892367D01*
X116731034Y-80927103D01*
X116706048Y-80957548D01*
X116675603Y-80982534D01*
X116640867Y-81001101D01*
X116603174Y-81012535D01*
X116557839Y-81017000D01*
X115471161Y-81017000D01*
X115425826Y-81012535D01*
X115388133Y-81001101D01*
X115353397Y-80982534D01*
X115322952Y-80957548D01*
X115297966Y-80927103D01*
X115279399Y-80892367D01*
X115267965Y-80854674D01*
X115263500Y-80809339D01*
X115263500Y-79972661D01*
X115267965Y-79927326D01*
X115279399Y-79889633D01*
X115297966Y-79854897D01*
X115322952Y-79824452D01*
X115353397Y-79799466D01*
X115388133Y-79780899D01*
X115425826Y-79769465D01*
X115471161Y-79765000D01*
X116557839Y-79765000D01*
X116603174Y-79769465D01*
G37*
G36*
X119479500Y-80764500D02*
G01*
X117817500Y-80764500D01*
X117817500Y-80012500D01*
X119479500Y-80012500D01*
X119479500Y-80764500D01*
G37*
G36*
X122179500Y-80764500D02*
G01*
X120517500Y-80764500D01*
X120517500Y-78112500D01*
X122179500Y-78112500D01*
X122179500Y-80764500D01*
G37*
G36*
X99333174Y-77675965D02*
G01*
X99370867Y-77687399D01*
X99405603Y-77705966D01*
X99436048Y-77730952D01*
X99461034Y-77761397D01*
X99479601Y-77796133D01*
X99491035Y-77833826D01*
X99495500Y-77879161D01*
X99495500Y-78965839D01*
X99491035Y-79011174D01*
X99479601Y-79048867D01*
X99461034Y-79083603D01*
X99436048Y-79114048D01*
X99405603Y-79139034D01*
X99370867Y-79157601D01*
X99333174Y-79169035D01*
X99287839Y-79173500D01*
X98451161Y-79173500D01*
X98405826Y-79169035D01*
X98368133Y-79157601D01*
X98333397Y-79139034D01*
X98302952Y-79114048D01*
X98277966Y-79083603D01*
X98259399Y-79048867D01*
X98247965Y-79011174D01*
X98243500Y-78965839D01*
X98243500Y-77879161D01*
X98247965Y-77833826D01*
X98259399Y-77796133D01*
X98277966Y-77761397D01*
X98302952Y-77730952D01*
X98333397Y-77705966D01*
X98368133Y-77687399D01*
X98405826Y-77675965D01*
X98451161Y-77671500D01*
X99287839Y-77671500D01*
X99333174Y-77675965D01*
G37*
G36*
X97283174Y-77675965D02*
G01*
X97320867Y-77687399D01*
X97355603Y-77705966D01*
X97386048Y-77730952D01*
X97411034Y-77761397D01*
X97429601Y-77796133D01*
X97441035Y-77833826D01*
X97445500Y-77879161D01*
X97445500Y-78965839D01*
X97441035Y-79011174D01*
X97429601Y-79048867D01*
X97411034Y-79083603D01*
X97386048Y-79114048D01*
X97355603Y-79139034D01*
X97320867Y-79157601D01*
X97283174Y-79169035D01*
X97237839Y-79173500D01*
X96401161Y-79173500D01*
X96355826Y-79169035D01*
X96318133Y-79157601D01*
X96283397Y-79139034D01*
X96252952Y-79114048D01*
X96227966Y-79083603D01*
X96209399Y-79048867D01*
X96197965Y-79011174D01*
X96193500Y-78965839D01*
X96193500Y-77879161D01*
X96197965Y-77833826D01*
X96209399Y-77796133D01*
X96227966Y-77761397D01*
X96252952Y-77730952D01*
X96283397Y-77705966D01*
X96318133Y-77687399D01*
X96355826Y-77675965D01*
X96401161Y-77671500D01*
X97237839Y-77671500D01*
X97283174Y-77675965D01*
G37*
G36*
X116603174Y-77719465D02*
G01*
X116640867Y-77730899D01*
X116675603Y-77749466D01*
X116706048Y-77774452D01*
X116731034Y-77804897D01*
X116749601Y-77839633D01*
X116761035Y-77877326D01*
X116765500Y-77922661D01*
X116765500Y-78759339D01*
X116761035Y-78804674D01*
X116749601Y-78842367D01*
X116731034Y-78877103D01*
X116706048Y-78907548D01*
X116675603Y-78932534D01*
X116640867Y-78951101D01*
X116603174Y-78962535D01*
X116557839Y-78967000D01*
X115471161Y-78967000D01*
X115425826Y-78962535D01*
X115388133Y-78951101D01*
X115353397Y-78932534D01*
X115322952Y-78907548D01*
X115297966Y-78877103D01*
X115279399Y-78842367D01*
X115267965Y-78804674D01*
X115263500Y-78759339D01*
X115263500Y-77922661D01*
X115267965Y-77877326D01*
X115279399Y-77839633D01*
X115297966Y-77804897D01*
X115322952Y-77774452D01*
X115353397Y-77749466D01*
X115388133Y-77730899D01*
X115425826Y-77719465D01*
X115471161Y-77715000D01*
X116557839Y-77715000D01*
X116603174Y-77719465D01*
G37*
G36*
X119479500Y-78864500D02*
G01*
X117817500Y-78864500D01*
X117817500Y-78112500D01*
X119479500Y-78112500D01*
X119479500Y-78864500D01*
G37*
G36*
X80276778Y-76082547D02*
G01*
X80443224Y-76151491D01*
X80593022Y-76251583D01*
X80720417Y-76378978D01*
X80820509Y-76528776D01*
X80889453Y-76695222D01*
X80924600Y-76871918D01*
X80924600Y-77052082D01*
X80889453Y-77228778D01*
X80820509Y-77395224D01*
X80720417Y-77545022D01*
X80593022Y-77672417D01*
X80443224Y-77772509D01*
X80276778Y-77841453D01*
X80100082Y-77876600D01*
X79919918Y-77876600D01*
X79743222Y-77841453D01*
X79576776Y-77772509D01*
X79426978Y-77672417D01*
X79299583Y-77545022D01*
X79199491Y-77395224D01*
X79130547Y-77228778D01*
X79095400Y-77052082D01*
X79095400Y-76871918D01*
X79130547Y-76695222D01*
X79199491Y-76528776D01*
X79299583Y-76378978D01*
X79426978Y-76251583D01*
X79576776Y-76151491D01*
X79743222Y-76082547D01*
X79919918Y-76047400D01*
X80100082Y-76047400D01*
X80276778Y-76082547D01*
G37*
G36*
X77736778Y-76082547D02*
G01*
X77903224Y-76151491D01*
X78053022Y-76251583D01*
X78180417Y-76378978D01*
X78280509Y-76528776D01*
X78349453Y-76695222D01*
X78384600Y-76871918D01*
X78384600Y-77052082D01*
X78349453Y-77228778D01*
X78280509Y-77395224D01*
X78180417Y-77545022D01*
X78053022Y-77672417D01*
X77903224Y-77772509D01*
X77736778Y-77841453D01*
X77560082Y-77876600D01*
X77379918Y-77876600D01*
X77203222Y-77841453D01*
X77036776Y-77772509D01*
X76886978Y-77672417D01*
X76759583Y-77545022D01*
X76659491Y-77395224D01*
X76590547Y-77228778D01*
X76555400Y-77052082D01*
X76555400Y-76871918D01*
X76590547Y-76695222D01*
X76659491Y-76528776D01*
X76759583Y-76378978D01*
X76886978Y-76251583D01*
X77036776Y-76151491D01*
X77203222Y-76082547D01*
X77379918Y-76047400D01*
X77560082Y-76047400D01*
X77736778Y-76082547D01*
G37*
G36*
X75196778Y-76082547D02*
G01*
X75363224Y-76151491D01*
X75513022Y-76251583D01*
X75640417Y-76378978D01*
X75740509Y-76528776D01*
X75809453Y-76695222D01*
X75844600Y-76871918D01*
X75844600Y-77052082D01*
X75809453Y-77228778D01*
X75740509Y-77395224D01*
X75640417Y-77545022D01*
X75513022Y-77672417D01*
X75363224Y-77772509D01*
X75196778Y-77841453D01*
X75020082Y-77876600D01*
X74839918Y-77876600D01*
X74663222Y-77841453D01*
X74496776Y-77772509D01*
X74346978Y-77672417D01*
X74219583Y-77545022D01*
X74119491Y-77395224D01*
X74050547Y-77228778D01*
X74015400Y-77052082D01*
X74015400Y-76871918D01*
X74050547Y-76695222D01*
X74119491Y-76528776D01*
X74219583Y-76378978D01*
X74346978Y-76251583D01*
X74496776Y-76151491D01*
X74663222Y-76082547D01*
X74839918Y-76047400D01*
X75020082Y-76047400D01*
X75196778Y-76082547D01*
G37*
G36*
X72656778Y-76082547D02*
G01*
X72823224Y-76151491D01*
X72973022Y-76251583D01*
X73100417Y-76378978D01*
X73200509Y-76528776D01*
X73269453Y-76695222D01*
X73304600Y-76871918D01*
X73304600Y-77052082D01*
X73269453Y-77228778D01*
X73200509Y-77395224D01*
X73100417Y-77545022D01*
X72973022Y-77672417D01*
X72823224Y-77772509D01*
X72656778Y-77841453D01*
X72480082Y-77876600D01*
X72299918Y-77876600D01*
X72123222Y-77841453D01*
X71956776Y-77772509D01*
X71806978Y-77672417D01*
X71679583Y-77545022D01*
X71579491Y-77395224D01*
X71510547Y-77228778D01*
X71475400Y-77052082D01*
X71475400Y-76871918D01*
X71510547Y-76695222D01*
X71579491Y-76528776D01*
X71679583Y-76378978D01*
X71806978Y-76251583D01*
X71956776Y-76151491D01*
X72123222Y-76082547D01*
X72299918Y-76047400D01*
X72480082Y-76047400D01*
X72656778Y-76082547D01*
G37*
G36*
X70764600Y-77876600D02*
G01*
X68935400Y-77876600D01*
X68935400Y-76047400D01*
X70764600Y-76047400D01*
X70764600Y-77876600D01*
G37*
G36*
X99342174Y-75770965D02*
G01*
X99379867Y-75782399D01*
X99414603Y-75800966D01*
X99445048Y-75825952D01*
X99470034Y-75856397D01*
X99488601Y-75891133D01*
X99500035Y-75928826D01*
X99504500Y-75974161D01*
X99504500Y-77060839D01*
X99500035Y-77106174D01*
X99488601Y-77143867D01*
X99470034Y-77178603D01*
X99445048Y-77209048D01*
X99414603Y-77234034D01*
X99379867Y-77252601D01*
X99342174Y-77264035D01*
X99296839Y-77268500D01*
X98460161Y-77268500D01*
X98414826Y-77264035D01*
X98377133Y-77252601D01*
X98342397Y-77234034D01*
X98311952Y-77209048D01*
X98286966Y-77178603D01*
X98268399Y-77143867D01*
X98256965Y-77106174D01*
X98252500Y-77060839D01*
X98252500Y-75974161D01*
X98256965Y-75928826D01*
X98268399Y-75891133D01*
X98286966Y-75856397D01*
X98311952Y-75825952D01*
X98342397Y-75800966D01*
X98377133Y-75782399D01*
X98414826Y-75770965D01*
X98460161Y-75766500D01*
X99296839Y-75766500D01*
X99342174Y-75770965D01*
G37*
G36*
X97292174Y-75770965D02*
G01*
X97329867Y-75782399D01*
X97364603Y-75800966D01*
X97395048Y-75825952D01*
X97420034Y-75856397D01*
X97438601Y-75891133D01*
X97450035Y-75928826D01*
X97454500Y-75974161D01*
X97454500Y-77060839D01*
X97450035Y-77106174D01*
X97438601Y-77143867D01*
X97420034Y-77178603D01*
X97395048Y-77209048D01*
X97364603Y-77234034D01*
X97329867Y-77252601D01*
X97292174Y-77264035D01*
X97246839Y-77268500D01*
X96410161Y-77268500D01*
X96364826Y-77264035D01*
X96327133Y-77252601D01*
X96292397Y-77234034D01*
X96261952Y-77209048D01*
X96236966Y-77178603D01*
X96218399Y-77143867D01*
X96206965Y-77106174D01*
X96202500Y-77060839D01*
X96202500Y-75974161D01*
X96206965Y-75928826D01*
X96218399Y-75891133D01*
X96236966Y-75856397D01*
X96261952Y-75825952D01*
X96292397Y-75800966D01*
X96327133Y-75782399D01*
X96364826Y-75770965D01*
X96410161Y-75766500D01*
X97246839Y-75766500D01*
X97292174Y-75770965D01*
G37*
G36*
X119453674Y-75707465D02*
G01*
X119491367Y-75718899D01*
X119526103Y-75737466D01*
X119556548Y-75762452D01*
X119581534Y-75792897D01*
X119600101Y-75827633D01*
X119611535Y-75865326D01*
X119616000Y-75910661D01*
X119616000Y-76997339D01*
X119611535Y-77042674D01*
X119600101Y-77080367D01*
X119581534Y-77115103D01*
X119556548Y-77145548D01*
X119526103Y-77170534D01*
X119491367Y-77189101D01*
X119453674Y-77200535D01*
X119408339Y-77205000D01*
X118571661Y-77205000D01*
X118526326Y-77200535D01*
X118488633Y-77189101D01*
X118453897Y-77170534D01*
X118423452Y-77145548D01*
X118398466Y-77115103D01*
X118379899Y-77080367D01*
X118368465Y-77042674D01*
X118364000Y-76997339D01*
X118364000Y-75910661D01*
X118368465Y-75865326D01*
X118379899Y-75827633D01*
X118398466Y-75792897D01*
X118423452Y-75762452D01*
X118453897Y-75737466D01*
X118488633Y-75718899D01*
X118526326Y-75707465D01*
X118571661Y-75703000D01*
X119408339Y-75703000D01*
X119453674Y-75707465D01*
G37*
G36*
X121503674Y-75707465D02*
G01*
X121541367Y-75718899D01*
X121576103Y-75737466D01*
X121606548Y-75762452D01*
X121631534Y-75792897D01*
X121650101Y-75827633D01*
X121661535Y-75865326D01*
X121666000Y-75910661D01*
X121666000Y-76997339D01*
X121661535Y-77042674D01*
X121650101Y-77080367D01*
X121631534Y-77115103D01*
X121606548Y-77145548D01*
X121576103Y-77170534D01*
X121541367Y-77189101D01*
X121503674Y-77200535D01*
X121458339Y-77205000D01*
X120621661Y-77205000D01*
X120576326Y-77200535D01*
X120538633Y-77189101D01*
X120503897Y-77170534D01*
X120473452Y-77145548D01*
X120448466Y-77115103D01*
X120429899Y-77080367D01*
X120418465Y-77042674D01*
X120414000Y-76997339D01*
X120414000Y-75910661D01*
X120418465Y-75865326D01*
X120429899Y-75827633D01*
X120448466Y-75792897D01*
X120473452Y-75762452D01*
X120503897Y-75737466D01*
X120538633Y-75718899D01*
X120576326Y-75707465D01*
X120621661Y-75703000D01*
X121458339Y-75703000D01*
X121503674Y-75707465D01*
G37*
G36*
X80276778Y-73542547D02*
G01*
X80443224Y-73611491D01*
X80593022Y-73711583D01*
X80720417Y-73838978D01*
X80820509Y-73988776D01*
X80889453Y-74155222D01*
X80924600Y-74331918D01*
X80924600Y-74512082D01*
X80889453Y-74688778D01*
X80820509Y-74855224D01*
X80720417Y-75005022D01*
X80593022Y-75132417D01*
X80443224Y-75232509D01*
X80276778Y-75301453D01*
X80100082Y-75336600D01*
X79919918Y-75336600D01*
X79743222Y-75301453D01*
X79576776Y-75232509D01*
X79426978Y-75132417D01*
X79299583Y-75005022D01*
X79199491Y-74855224D01*
X79130547Y-74688778D01*
X79095400Y-74512082D01*
X79095400Y-74331918D01*
X79130547Y-74155222D01*
X79199491Y-73988776D01*
X79299583Y-73838978D01*
X79426978Y-73711583D01*
X79576776Y-73611491D01*
X79743222Y-73542547D01*
X79919918Y-73507400D01*
X80100082Y-73507400D01*
X80276778Y-73542547D01*
G37*
G36*
X77736778Y-73542547D02*
G01*
X77903224Y-73611491D01*
X78053022Y-73711583D01*
X78180417Y-73838978D01*
X78280509Y-73988776D01*
X78349453Y-74155222D01*
X78384600Y-74331918D01*
X78384600Y-74512082D01*
X78349453Y-74688778D01*
X78280509Y-74855224D01*
X78180417Y-75005022D01*
X78053022Y-75132417D01*
X77903224Y-75232509D01*
X77736778Y-75301453D01*
X77560082Y-75336600D01*
X77379918Y-75336600D01*
X77203222Y-75301453D01*
X77036776Y-75232509D01*
X76886978Y-75132417D01*
X76759583Y-75005022D01*
X76659491Y-74855224D01*
X76590547Y-74688778D01*
X76555400Y-74512082D01*
X76555400Y-74331918D01*
X76590547Y-74155222D01*
X76659491Y-73988776D01*
X76759583Y-73838978D01*
X76886978Y-73711583D01*
X77036776Y-73611491D01*
X77203222Y-73542547D01*
X77379918Y-73507400D01*
X77560082Y-73507400D01*
X77736778Y-73542547D01*
G37*
G36*
X75196778Y-73542547D02*
G01*
X75363224Y-73611491D01*
X75513022Y-73711583D01*
X75640417Y-73838978D01*
X75740509Y-73988776D01*
X75809453Y-74155222D01*
X75844600Y-74331918D01*
X75844600Y-74512082D01*
X75809453Y-74688778D01*
X75740509Y-74855224D01*
X75640417Y-75005022D01*
X75513022Y-75132417D01*
X75363224Y-75232509D01*
X75196778Y-75301453D01*
X75020082Y-75336600D01*
X74839918Y-75336600D01*
X74663222Y-75301453D01*
X74496776Y-75232509D01*
X74346978Y-75132417D01*
X74219583Y-75005022D01*
X74119491Y-74855224D01*
X74050547Y-74688778D01*
X74015400Y-74512082D01*
X74015400Y-74331918D01*
X74050547Y-74155222D01*
X74119491Y-73988776D01*
X74219583Y-73838978D01*
X74346978Y-73711583D01*
X74496776Y-73611491D01*
X74663222Y-73542547D01*
X74839918Y-73507400D01*
X75020082Y-73507400D01*
X75196778Y-73542547D01*
G37*
G36*
X72656778Y-73542547D02*
G01*
X72823224Y-73611491D01*
X72973022Y-73711583D01*
X73100417Y-73838978D01*
X73200509Y-73988776D01*
X73269453Y-74155222D01*
X73304600Y-74331918D01*
X73304600Y-74512082D01*
X73269453Y-74688778D01*
X73200509Y-74855224D01*
X73100417Y-75005022D01*
X72973022Y-75132417D01*
X72823224Y-75232509D01*
X72656778Y-75301453D01*
X72480082Y-75336600D01*
X72299918Y-75336600D01*
X72123222Y-75301453D01*
X71956776Y-75232509D01*
X71806978Y-75132417D01*
X71679583Y-75005022D01*
X71579491Y-74855224D01*
X71510547Y-74688778D01*
X71475400Y-74512082D01*
X71475400Y-74331918D01*
X71510547Y-74155222D01*
X71579491Y-73988776D01*
X71679583Y-73838978D01*
X71806978Y-73711583D01*
X71956776Y-73611491D01*
X72123222Y-73542547D01*
X72299918Y-73507400D01*
X72480082Y-73507400D01*
X72656778Y-73542547D01*
G37*
G36*
X70116778Y-73542547D02*
G01*
X70283224Y-73611491D01*
X70433022Y-73711583D01*
X70560417Y-73838978D01*
X70660509Y-73988776D01*
X70729453Y-74155222D01*
X70764600Y-74331918D01*
X70764600Y-74512082D01*
X70729453Y-74688778D01*
X70660509Y-74855224D01*
X70560417Y-75005022D01*
X70433022Y-75132417D01*
X70283224Y-75232509D01*
X70116778Y-75301453D01*
X69940082Y-75336600D01*
X69759918Y-75336600D01*
X69583222Y-75301453D01*
X69416776Y-75232509D01*
X69266978Y-75132417D01*
X69139583Y-75005022D01*
X69039491Y-74855224D01*
X68970547Y-74688778D01*
X68935400Y-74512082D01*
X68935400Y-74331918D01*
X68970547Y-74155222D01*
X69039491Y-73988776D01*
X69139583Y-73838978D01*
X69266978Y-73711583D01*
X69416776Y-73611491D01*
X69583222Y-73542547D01*
X69759918Y-73507400D01*
X69940082Y-73507400D01*
X70116778Y-73542547D01*
G37*
G36*
X99678142Y-66020242D02*
G01*
X99826101Y-66081529D01*
X99959255Y-66170499D01*
X100072501Y-66283745D01*
X100161471Y-66416899D01*
X100222758Y-66564858D01*
X100254000Y-66721925D01*
X100254000Y-66882075D01*
X100222758Y-67039142D01*
X100161471Y-67187101D01*
X100072501Y-67320255D01*
X99959255Y-67433501D01*
X99826101Y-67522471D01*
X99678142Y-67583758D01*
X99521075Y-67615000D01*
X99360925Y-67615000D01*
X99203858Y-67583758D01*
X99055899Y-67522471D01*
X98922745Y-67433501D01*
X98809499Y-67320255D01*
X98720529Y-67187101D01*
X98659242Y-67039142D01*
X98628000Y-66882075D01*
X98628000Y-66721925D01*
X98659242Y-66564858D01*
X98720529Y-66416899D01*
X98809499Y-66283745D01*
X98922745Y-66170499D01*
X99055899Y-66081529D01*
X99203858Y-66020242D01*
X99360925Y-65989000D01*
X99521075Y-65989000D01*
X99678142Y-66020242D01*
G37*
G36*
X87186000Y-67439500D02*
G01*
X85534000Y-67439500D01*
X85534000Y-66037500D01*
X87186000Y-66037500D01*
X87186000Y-67439500D01*
G37*
G36*
X79236000Y-67439500D02*
G01*
X77584000Y-67439500D01*
X77584000Y-66037500D01*
X79236000Y-66037500D01*
X79236000Y-67439500D01*
G37*
G36*
X113718500Y-66680500D02*
G01*
X111066500Y-66680500D01*
X111066500Y-65018500D01*
X113718500Y-65018500D01*
X113718500Y-66680500D01*
G37*
G36*
X118235500Y-66038500D02*
G01*
X116333500Y-66038500D01*
X116333500Y-64136500D01*
X118235500Y-64136500D01*
X118235500Y-66038500D01*
G37*
G36*
X111818500Y-63980500D02*
G01*
X111066500Y-63980500D01*
X111066500Y-62318500D01*
X111818500Y-62318500D01*
X111818500Y-63980500D01*
G37*
G36*
X113718500Y-63980500D02*
G01*
X112966500Y-63980500D01*
X112966500Y-62318500D01*
X113718500Y-62318500D01*
X113718500Y-63980500D01*
G37*
G36*
X124766564Y-61473389D02*
G01*
X124957833Y-61552615D01*
X124957835Y-61552616D01*
X125023512Y-61596500D01*
X125129973Y-61667635D01*
X125276365Y-61814027D01*
X125391385Y-61986167D01*
X125470611Y-62177436D01*
X125511000Y-62380484D01*
X125511000Y-62587516D01*
X125470611Y-62790564D01*
X125456390Y-62824896D01*
X125391384Y-62981835D01*
X125276365Y-63153973D01*
X125129973Y-63300365D01*
X124957835Y-63415384D01*
X124957834Y-63415385D01*
X124957833Y-63415385D01*
X124766564Y-63494611D01*
X124563516Y-63535000D01*
X124356484Y-63535000D01*
X124153436Y-63494611D01*
X123962167Y-63415385D01*
X123962166Y-63415385D01*
X123962165Y-63415384D01*
X123790027Y-63300365D01*
X123643635Y-63153973D01*
X123528616Y-62981835D01*
X123463610Y-62824896D01*
X123449389Y-62790564D01*
X123409000Y-62587516D01*
X123409000Y-62380484D01*
X123449389Y-62177436D01*
X123528615Y-61986167D01*
X123643635Y-61814027D01*
X123790027Y-61667635D01*
X123896488Y-61596500D01*
X123962165Y-61552616D01*
X123962167Y-61552615D01*
X124153436Y-61473389D01*
X124356484Y-61433000D01*
X124563516Y-61433000D01*
X124766564Y-61473389D01*
G37*
G36*
X117561895Y-61633046D02*
G01*
X117734966Y-61704734D01*
X117734967Y-61704735D01*
X117890727Y-61808810D01*
X118023190Y-61941273D01*
X118035130Y-61959143D01*
X118127266Y-62097034D01*
X118198954Y-62270105D01*
X118235500Y-62453833D01*
X118235500Y-62641167D01*
X118198954Y-62824895D01*
X118127266Y-62997966D01*
X118127265Y-62997967D01*
X118023190Y-63153727D01*
X117890727Y-63286190D01*
X117812318Y-63338581D01*
X117734966Y-63390266D01*
X117561895Y-63461954D01*
X117378167Y-63498500D01*
X117190833Y-63498500D01*
X117007105Y-63461954D01*
X116834034Y-63390266D01*
X116756682Y-63338581D01*
X116678273Y-63286190D01*
X116545810Y-63153727D01*
X116441735Y-62997967D01*
X116441734Y-62997966D01*
X116370046Y-62824895D01*
X116333500Y-62641167D01*
X116333500Y-62453833D01*
X116370046Y-62270105D01*
X116441734Y-62097034D01*
X116533870Y-61959143D01*
X116545810Y-61941273D01*
X116678273Y-61808810D01*
X116834033Y-61704735D01*
X116834034Y-61704734D01*
X117007105Y-61633046D01*
X117190833Y-61596500D01*
X117378167Y-61596500D01*
X117561895Y-61633046D01*
G37*
G36*
X79236000Y-62939500D02*
G01*
X77584000Y-62939500D01*
X77584000Y-61537500D01*
X79236000Y-61537500D01*
X79236000Y-62939500D01*
G37*
G36*
X87186000Y-62939500D02*
G01*
X85534000Y-62939500D01*
X85534000Y-61537500D01*
X87186000Y-61537500D01*
X87186000Y-62939500D01*
G37*
G36*
X99678142Y-60940242D02*
G01*
X99826101Y-61001529D01*
X99959255Y-61090499D01*
X100072501Y-61203745D01*
X100161471Y-61336899D01*
X100222758Y-61484858D01*
X100254000Y-61641925D01*
X100254000Y-61802075D01*
X100222758Y-61959142D01*
X100161471Y-62107101D01*
X100072501Y-62240255D01*
X99959255Y-62353501D01*
X99826101Y-62442471D01*
X99678142Y-62503758D01*
X99521075Y-62535000D01*
X99360925Y-62535000D01*
X99203858Y-62503758D01*
X99055899Y-62442471D01*
X98922745Y-62353501D01*
X98809499Y-62240255D01*
X98720529Y-62107101D01*
X98659242Y-61959142D01*
X98628000Y-61802075D01*
X98628000Y-61641925D01*
X98659242Y-61484858D01*
X98720529Y-61336899D01*
X98809499Y-61203745D01*
X98922745Y-61090499D01*
X99055899Y-61001529D01*
X99203858Y-60940242D01*
X99360925Y-60909000D01*
X99521075Y-60909000D01*
X99678142Y-60940242D01*
G37*
G36*
X116813674Y-59324465D02*
G01*
X116851367Y-59335899D01*
X116886103Y-59354466D01*
X116916548Y-59379452D01*
X116941534Y-59409897D01*
X116960101Y-59444633D01*
X116971535Y-59482326D01*
X116976000Y-59527661D01*
X116976000Y-60614339D01*
X116971535Y-60659674D01*
X116960101Y-60697367D01*
X116941534Y-60732103D01*
X116916548Y-60762548D01*
X116886103Y-60787534D01*
X116851367Y-60806101D01*
X116813674Y-60817535D01*
X116768339Y-60822000D01*
X115931661Y-60822000D01*
X115886326Y-60817535D01*
X115848633Y-60806101D01*
X115813897Y-60787534D01*
X115783452Y-60762548D01*
X115758466Y-60732103D01*
X115739899Y-60697367D01*
X115728465Y-60659674D01*
X115724000Y-60614339D01*
X115724000Y-59527661D01*
X115728465Y-59482326D01*
X115739899Y-59444633D01*
X115758466Y-59409897D01*
X115783452Y-59379452D01*
X115813897Y-59354466D01*
X115848633Y-59335899D01*
X115886326Y-59324465D01*
X115931661Y-59320000D01*
X116768339Y-59320000D01*
X116813674Y-59324465D01*
G37*
G36*
X114763674Y-59324465D02*
G01*
X114801367Y-59335899D01*
X114836103Y-59354466D01*
X114866548Y-59379452D01*
X114891534Y-59409897D01*
X114910101Y-59444633D01*
X114921535Y-59482326D01*
X114926000Y-59527661D01*
X114926000Y-60614339D01*
X114921535Y-60659674D01*
X114910101Y-60697367D01*
X114891534Y-60732103D01*
X114866548Y-60762548D01*
X114836103Y-60787534D01*
X114801367Y-60806101D01*
X114763674Y-60817535D01*
X114718339Y-60822000D01*
X113881661Y-60822000D01*
X113836326Y-60817535D01*
X113798633Y-60806101D01*
X113763897Y-60787534D01*
X113733452Y-60762548D01*
X113708466Y-60732103D01*
X113689899Y-60697367D01*
X113678465Y-60659674D01*
X113674000Y-60614339D01*
X113674000Y-59527661D01*
X113678465Y-59482326D01*
X113689899Y-59444633D01*
X113708466Y-59409897D01*
X113733452Y-59379452D01*
X113763897Y-59354466D01*
X113798633Y-59335899D01*
X113836326Y-59324465D01*
X113881661Y-59320000D01*
X114718339Y-59320000D01*
X114763674Y-59324465D01*
G37*
G36*
X63562048Y-58232122D02*
G01*
X63596387Y-58242539D01*
X63628036Y-58259456D01*
X63655778Y-58282222D01*
X63678544Y-58309964D01*
X63695461Y-58341613D01*
X63705878Y-58375952D01*
X63710000Y-58417807D01*
X63710000Y-59640193D01*
X63705878Y-59682048D01*
X63695461Y-59716387D01*
X63678544Y-59748036D01*
X63655778Y-59775778D01*
X63628036Y-59798544D01*
X63596387Y-59815461D01*
X63562048Y-59825878D01*
X63520193Y-59830000D01*
X61447807Y-59830000D01*
X61405952Y-59825878D01*
X61371613Y-59815461D01*
X61339964Y-59798544D01*
X61312222Y-59775778D01*
X61289456Y-59748036D01*
X61272539Y-59716387D01*
X61262122Y-59682048D01*
X61258000Y-59640193D01*
X61258000Y-58417807D01*
X61262122Y-58375952D01*
X61272539Y-58341613D01*
X61289456Y-58309964D01*
X61312222Y-58282222D01*
X61339964Y-58259456D01*
X61371613Y-58242539D01*
X61405952Y-58232122D01*
X61447807Y-58228000D01*
X63520193Y-58228000D01*
X63562048Y-58232122D01*
G37*
G36*
X67366000Y-59077000D02*
G01*
X66614000Y-59077000D01*
X66614000Y-57415000D01*
X67366000Y-57415000D01*
X67366000Y-59077000D01*
G37*
G36*
X65466000Y-59077000D02*
G01*
X64714000Y-59077000D01*
X64714000Y-57415000D01*
X65466000Y-57415000D01*
X65466000Y-59077000D01*
G37*
G36*
X63562048Y-54982122D02*
G01*
X63596387Y-54992539D01*
X63628036Y-55009456D01*
X63655778Y-55032222D01*
X63678544Y-55059964D01*
X63695461Y-55091613D01*
X63705878Y-55125952D01*
X63710000Y-55167807D01*
X63710000Y-56390193D01*
X63705878Y-56432048D01*
X63695461Y-56466387D01*
X63678544Y-56498036D01*
X63655778Y-56525778D01*
X63628036Y-56548544D01*
X63596387Y-56565461D01*
X63562048Y-56575878D01*
X63520193Y-56580000D01*
X61447807Y-56580000D01*
X61405952Y-56575878D01*
X61371613Y-56565461D01*
X61339964Y-56548544D01*
X61312222Y-56525778D01*
X61289456Y-56498036D01*
X61272539Y-56466387D01*
X61262122Y-56432048D01*
X61258000Y-56390193D01*
X61258000Y-55167807D01*
X61262122Y-55125952D01*
X61272539Y-55091613D01*
X61289456Y-55059964D01*
X61312222Y-55032222D01*
X61339964Y-55009456D01*
X61371613Y-54992539D01*
X61405952Y-54982122D01*
X61447807Y-54978000D01*
X63520193Y-54978000D01*
X63562048Y-54982122D01*
G37*
G36*
X67366000Y-56377000D02*
G01*
X64714000Y-56377000D01*
X64714000Y-54715000D01*
X67366000Y-54715000D01*
X67366000Y-56377000D01*
G37*
G36*
X59611585Y-44833802D02*
G01*
X59761410Y-44863604D01*
X60043674Y-44980521D01*
X60297705Y-45150259D01*
X60513741Y-45366295D01*
X60683479Y-45620326D01*
X60800396Y-45902590D01*
X60860000Y-46202240D01*
X60860000Y-46507760D01*
X60800396Y-46807410D01*
X60683479Y-47089674D01*
X60513741Y-47343705D01*
X60297705Y-47559741D01*
X60043674Y-47729479D01*
X59761410Y-47846396D01*
X59611585Y-47876198D01*
X59461761Y-47906000D01*
X59156239Y-47906000D01*
X59006415Y-47876198D01*
X58856590Y-47846396D01*
X58574326Y-47729479D01*
X58320295Y-47559741D01*
X58104259Y-47343705D01*
X57934521Y-47089674D01*
X57817604Y-46807410D01*
X57758000Y-46507760D01*
X57758000Y-46202240D01*
X57817604Y-45902590D01*
X57934521Y-45620326D01*
X58104259Y-45366295D01*
X58320295Y-45150259D01*
X58574326Y-44980521D01*
X58856590Y-44863604D01*
X59006415Y-44833802D01*
X59156239Y-44804000D01*
X59461761Y-44804000D01*
X59611585Y-44833802D01*
G37*
G36*
X132611585Y-44833802D02*
G01*
X132761410Y-44863604D01*
X133043674Y-44980521D01*
X133297705Y-45150259D01*
X133513741Y-45366295D01*
X133683479Y-45620326D01*
X133800396Y-45902590D01*
X133860000Y-46202240D01*
X133860000Y-46507760D01*
X133800396Y-46807410D01*
X133683479Y-47089674D01*
X133513741Y-47343705D01*
X133297705Y-47559741D01*
X133043674Y-47729479D01*
X132761410Y-47846396D01*
X132611585Y-47876198D01*
X132461761Y-47906000D01*
X132156239Y-47906000D01*
X132006415Y-47876198D01*
X131856590Y-47846396D01*
X131574326Y-47729479D01*
X131320295Y-47559741D01*
X131104259Y-47343705D01*
X130934521Y-47089674D01*
X130817604Y-46807410D01*
X130758000Y-46507760D01*
X130758000Y-46202240D01*
X130817604Y-45902590D01*
X130934521Y-45620326D01*
X131104259Y-45366295D01*
X131320295Y-45150259D01*
X131574326Y-44980521D01*
X131856590Y-44863604D01*
X132006415Y-44833802D01*
X132156239Y-44804000D01*
X132461761Y-44804000D01*
X132611585Y-44833802D01*
G37*
M02*
