G04 #@! TF.GenerationSoftware,KiCad,Pcbnew,5.1.5*
G04 #@! TF.CreationDate,2020-02-09T12:43:18+10:00*
G04 #@! TF.ProjectId,hrem,6872656d-2e6b-4696-9361-645f70636258,rev?*
G04 #@! TF.SameCoordinates,Original*
G04 #@! TF.FileFunction,Soldermask,Top*
G04 #@! TF.FilePolarity,Negative*
%FSLAX46Y46*%
G04 Gerber Fmt 4.6, Leading zero omitted, Abs format (unit mm)*
G04 Created by KiCad (PCBNEW 5.1.5) date 2020-02-09 12:43:18*
%MOMM*%
%LPD*%
G04 APERTURE LIST*
%ADD10C,0.100000*%
G04 APERTURE END LIST*
D10*
G36*
X132611585Y-82833802D02*
G01*
X132761410Y-82863604D01*
X133043674Y-82980521D01*
X133297705Y-83150259D01*
X133513741Y-83366295D01*
X133683479Y-83620326D01*
X133800396Y-83902590D01*
X133860000Y-84202240D01*
X133860000Y-84507760D01*
X133800396Y-84807410D01*
X133683479Y-85089674D01*
X133513741Y-85343705D01*
X133297705Y-85559741D01*
X133043674Y-85729479D01*
X132761410Y-85846396D01*
X132611585Y-85876198D01*
X132461761Y-85906000D01*
X132156239Y-85906000D01*
X132006415Y-85876198D01*
X131856590Y-85846396D01*
X131574326Y-85729479D01*
X131320295Y-85559741D01*
X131104259Y-85343705D01*
X130934521Y-85089674D01*
X130817604Y-84807410D01*
X130758000Y-84507760D01*
X130758000Y-84202240D01*
X130817604Y-83902590D01*
X130934521Y-83620326D01*
X131104259Y-83366295D01*
X131320295Y-83150259D01*
X131574326Y-82980521D01*
X131856590Y-82863604D01*
X132006415Y-82833802D01*
X132156239Y-82804000D01*
X132461761Y-82804000D01*
X132611585Y-82833802D01*
G37*
G36*
X59611585Y-82833802D02*
G01*
X59761410Y-82863604D01*
X60043674Y-82980521D01*
X60297705Y-83150259D01*
X60513741Y-83366295D01*
X60683479Y-83620326D01*
X60800396Y-83902590D01*
X60860000Y-84202240D01*
X60860000Y-84507760D01*
X60800396Y-84807410D01*
X60683479Y-85089674D01*
X60513741Y-85343705D01*
X60297705Y-85559741D01*
X60043674Y-85729479D01*
X59761410Y-85846396D01*
X59611585Y-85876198D01*
X59461761Y-85906000D01*
X59156239Y-85906000D01*
X59006415Y-85876198D01*
X58856590Y-85846396D01*
X58574326Y-85729479D01*
X58320295Y-85559741D01*
X58104259Y-85343705D01*
X57934521Y-85089674D01*
X57817604Y-84807410D01*
X57758000Y-84507760D01*
X57758000Y-84202240D01*
X57817604Y-83902590D01*
X57934521Y-83620326D01*
X58104259Y-83366295D01*
X58320295Y-83150259D01*
X58574326Y-82980521D01*
X58856590Y-82863604D01*
X59006415Y-82833802D01*
X59156239Y-82804000D01*
X59461761Y-82804000D01*
X59611585Y-82833802D01*
G37*
G36*
X120863000Y-84202000D02*
G01*
X115761000Y-84202000D01*
X115761000Y-82300000D01*
X120863000Y-82300000D01*
X120863000Y-84202000D01*
G37*
G36*
X128013000Y-81052000D02*
G01*
X123411000Y-81052000D01*
X123411000Y-79650000D01*
X128013000Y-79650000D01*
X128013000Y-81052000D01*
G37*
G36*
X95057428Y-80233264D02*
G01*
X95078509Y-80239660D01*
X95097945Y-80250048D01*
X95114976Y-80264024D01*
X95128952Y-80281055D01*
X95139340Y-80300491D01*
X95145736Y-80321572D01*
X95148500Y-80349640D01*
X95148500Y-80813360D01*
X95145736Y-80841428D01*
X95139340Y-80862509D01*
X95128952Y-80881945D01*
X95114976Y-80898976D01*
X95097945Y-80912952D01*
X95078509Y-80923340D01*
X95057428Y-80929736D01*
X95029360Y-80932500D01*
X93565640Y-80932500D01*
X93537572Y-80929736D01*
X93516491Y-80923340D01*
X93497055Y-80912952D01*
X93480024Y-80898976D01*
X93466048Y-80881945D01*
X93455660Y-80862509D01*
X93449264Y-80841428D01*
X93446500Y-80813360D01*
X93446500Y-80349640D01*
X93449264Y-80321572D01*
X93455660Y-80300491D01*
X93466048Y-80281055D01*
X93480024Y-80264024D01*
X93497055Y-80250048D01*
X93516491Y-80239660D01*
X93537572Y-80233264D01*
X93565640Y-80230500D01*
X95029360Y-80230500D01*
X95057428Y-80233264D01*
G37*
G36*
X102257428Y-80233264D02*
G01*
X102278509Y-80239660D01*
X102297945Y-80250048D01*
X102314976Y-80264024D01*
X102328952Y-80281055D01*
X102339340Y-80300491D01*
X102345736Y-80321572D01*
X102348500Y-80349640D01*
X102348500Y-80813360D01*
X102345736Y-80841428D01*
X102339340Y-80862509D01*
X102328952Y-80881945D01*
X102314976Y-80898976D01*
X102297945Y-80912952D01*
X102278509Y-80923340D01*
X102257428Y-80929736D01*
X102229360Y-80932500D01*
X100765640Y-80932500D01*
X100737572Y-80929736D01*
X100716491Y-80923340D01*
X100697055Y-80912952D01*
X100680024Y-80898976D01*
X100666048Y-80881945D01*
X100655660Y-80862509D01*
X100649264Y-80841428D01*
X100646500Y-80813360D01*
X100646500Y-80349640D01*
X100649264Y-80321572D01*
X100655660Y-80300491D01*
X100666048Y-80281055D01*
X100680024Y-80264024D01*
X100697055Y-80250048D01*
X100716491Y-80239660D01*
X100737572Y-80233264D01*
X100765640Y-80230500D01*
X102229360Y-80230500D01*
X102257428Y-80233264D01*
G37*
G36*
X102257428Y-78963264D02*
G01*
X102278509Y-78969660D01*
X102297945Y-78980048D01*
X102314976Y-78994024D01*
X102328952Y-79011055D01*
X102339340Y-79030491D01*
X102345736Y-79051572D01*
X102348500Y-79079640D01*
X102348500Y-79543360D01*
X102345736Y-79571428D01*
X102339340Y-79592509D01*
X102328952Y-79611945D01*
X102314976Y-79628976D01*
X102297945Y-79642952D01*
X102278509Y-79653340D01*
X102257428Y-79659736D01*
X102229360Y-79662500D01*
X100765640Y-79662500D01*
X100737572Y-79659736D01*
X100716491Y-79653340D01*
X100697055Y-79642952D01*
X100680024Y-79628976D01*
X100666048Y-79611945D01*
X100655660Y-79592509D01*
X100649264Y-79571428D01*
X100646500Y-79543360D01*
X100646500Y-79079640D01*
X100649264Y-79051572D01*
X100655660Y-79030491D01*
X100666048Y-79011055D01*
X100680024Y-78994024D01*
X100697055Y-78980048D01*
X100716491Y-78969660D01*
X100737572Y-78963264D01*
X100765640Y-78960500D01*
X102229360Y-78960500D01*
X102257428Y-78963264D01*
G37*
G36*
X95057428Y-78963264D02*
G01*
X95078509Y-78969660D01*
X95097945Y-78980048D01*
X95114976Y-78994024D01*
X95128952Y-79011055D01*
X95139340Y-79030491D01*
X95145736Y-79051572D01*
X95148500Y-79079640D01*
X95148500Y-79543360D01*
X95145736Y-79571428D01*
X95139340Y-79592509D01*
X95128952Y-79611945D01*
X95114976Y-79628976D01*
X95097945Y-79642952D01*
X95078509Y-79653340D01*
X95057428Y-79659736D01*
X95029360Y-79662500D01*
X93565640Y-79662500D01*
X93537572Y-79659736D01*
X93516491Y-79653340D01*
X93497055Y-79642952D01*
X93480024Y-79628976D01*
X93466048Y-79611945D01*
X93455660Y-79592509D01*
X93449264Y-79571428D01*
X93446500Y-79543360D01*
X93446500Y-79079640D01*
X93449264Y-79051572D01*
X93455660Y-79030491D01*
X93466048Y-79011055D01*
X93480024Y-78994024D01*
X93497055Y-78980048D01*
X93516491Y-78969660D01*
X93537572Y-78963264D01*
X93565640Y-78960500D01*
X95029360Y-78960500D01*
X95057428Y-78963264D01*
G37*
G36*
X128013000Y-78552000D02*
G01*
X123411000Y-78552000D01*
X123411000Y-77150000D01*
X128013000Y-77150000D01*
X128013000Y-78552000D01*
G37*
G36*
X95057428Y-77693264D02*
G01*
X95078509Y-77699660D01*
X95097945Y-77710048D01*
X95114976Y-77724024D01*
X95128952Y-77741055D01*
X95139340Y-77760491D01*
X95145736Y-77781572D01*
X95148500Y-77809640D01*
X95148500Y-78273360D01*
X95145736Y-78301428D01*
X95139340Y-78322509D01*
X95128952Y-78341945D01*
X95114976Y-78358976D01*
X95097945Y-78372952D01*
X95078509Y-78383340D01*
X95057428Y-78389736D01*
X95029360Y-78392500D01*
X93565640Y-78392500D01*
X93537572Y-78389736D01*
X93516491Y-78383340D01*
X93497055Y-78372952D01*
X93480024Y-78358976D01*
X93466048Y-78341945D01*
X93455660Y-78322509D01*
X93449264Y-78301428D01*
X93446500Y-78273360D01*
X93446500Y-77809640D01*
X93449264Y-77781572D01*
X93455660Y-77760491D01*
X93466048Y-77741055D01*
X93480024Y-77724024D01*
X93497055Y-77710048D01*
X93516491Y-77699660D01*
X93537572Y-77693264D01*
X93565640Y-77690500D01*
X95029360Y-77690500D01*
X95057428Y-77693264D01*
G37*
G36*
X102257428Y-77693264D02*
G01*
X102278509Y-77699660D01*
X102297945Y-77710048D01*
X102314976Y-77724024D01*
X102328952Y-77741055D01*
X102339340Y-77760491D01*
X102345736Y-77781572D01*
X102348500Y-77809640D01*
X102348500Y-78273360D01*
X102345736Y-78301428D01*
X102339340Y-78322509D01*
X102328952Y-78341945D01*
X102314976Y-78358976D01*
X102297945Y-78372952D01*
X102278509Y-78383340D01*
X102257428Y-78389736D01*
X102229360Y-78392500D01*
X100765640Y-78392500D01*
X100737572Y-78389736D01*
X100716491Y-78383340D01*
X100697055Y-78372952D01*
X100680024Y-78358976D01*
X100666048Y-78341945D01*
X100655660Y-78322509D01*
X100649264Y-78301428D01*
X100646500Y-78273360D01*
X100646500Y-77809640D01*
X100649264Y-77781572D01*
X100655660Y-77760491D01*
X100666048Y-77741055D01*
X100680024Y-77724024D01*
X100697055Y-77710048D01*
X100716491Y-77699660D01*
X100737572Y-77693264D01*
X100765640Y-77690500D01*
X102229360Y-77690500D01*
X102257428Y-77693264D01*
G37*
G36*
X70764600Y-77876600D02*
G01*
X68935400Y-77876600D01*
X68935400Y-76047400D01*
X70764600Y-76047400D01*
X70764600Y-77876600D01*
G37*
G36*
X72656778Y-76082547D02*
G01*
X72823224Y-76151491D01*
X72973022Y-76251583D01*
X73100417Y-76378978D01*
X73200509Y-76528776D01*
X73269453Y-76695222D01*
X73304600Y-76871918D01*
X73304600Y-77052082D01*
X73269453Y-77228778D01*
X73200509Y-77395224D01*
X73100417Y-77545022D01*
X72973022Y-77672417D01*
X72823224Y-77772509D01*
X72656778Y-77841453D01*
X72480082Y-77876600D01*
X72299918Y-77876600D01*
X72123222Y-77841453D01*
X71956776Y-77772509D01*
X71806978Y-77672417D01*
X71679583Y-77545022D01*
X71579491Y-77395224D01*
X71510547Y-77228778D01*
X71475400Y-77052082D01*
X71475400Y-76871918D01*
X71510547Y-76695222D01*
X71579491Y-76528776D01*
X71679583Y-76378978D01*
X71806978Y-76251583D01*
X71956776Y-76151491D01*
X72123222Y-76082547D01*
X72299918Y-76047400D01*
X72480082Y-76047400D01*
X72656778Y-76082547D01*
G37*
G36*
X75196778Y-76082547D02*
G01*
X75363224Y-76151491D01*
X75513022Y-76251583D01*
X75640417Y-76378978D01*
X75740509Y-76528776D01*
X75809453Y-76695222D01*
X75844600Y-76871918D01*
X75844600Y-77052082D01*
X75809453Y-77228778D01*
X75740509Y-77395224D01*
X75640417Y-77545022D01*
X75513022Y-77672417D01*
X75363224Y-77772509D01*
X75196778Y-77841453D01*
X75020082Y-77876600D01*
X74839918Y-77876600D01*
X74663222Y-77841453D01*
X74496776Y-77772509D01*
X74346978Y-77672417D01*
X74219583Y-77545022D01*
X74119491Y-77395224D01*
X74050547Y-77228778D01*
X74015400Y-77052082D01*
X74015400Y-76871918D01*
X74050547Y-76695222D01*
X74119491Y-76528776D01*
X74219583Y-76378978D01*
X74346978Y-76251583D01*
X74496776Y-76151491D01*
X74663222Y-76082547D01*
X74839918Y-76047400D01*
X75020082Y-76047400D01*
X75196778Y-76082547D01*
G37*
G36*
X77736778Y-76082547D02*
G01*
X77903224Y-76151491D01*
X78053022Y-76251583D01*
X78180417Y-76378978D01*
X78280509Y-76528776D01*
X78349453Y-76695222D01*
X78384600Y-76871918D01*
X78384600Y-77052082D01*
X78349453Y-77228778D01*
X78280509Y-77395224D01*
X78180417Y-77545022D01*
X78053022Y-77672417D01*
X77903224Y-77772509D01*
X77736778Y-77841453D01*
X77560082Y-77876600D01*
X77379918Y-77876600D01*
X77203222Y-77841453D01*
X77036776Y-77772509D01*
X76886978Y-77672417D01*
X76759583Y-77545022D01*
X76659491Y-77395224D01*
X76590547Y-77228778D01*
X76555400Y-77052082D01*
X76555400Y-76871918D01*
X76590547Y-76695222D01*
X76659491Y-76528776D01*
X76759583Y-76378978D01*
X76886978Y-76251583D01*
X77036776Y-76151491D01*
X77203222Y-76082547D01*
X77379918Y-76047400D01*
X77560082Y-76047400D01*
X77736778Y-76082547D01*
G37*
G36*
X80276778Y-76082547D02*
G01*
X80443224Y-76151491D01*
X80593022Y-76251583D01*
X80720417Y-76378978D01*
X80820509Y-76528776D01*
X80889453Y-76695222D01*
X80924600Y-76871918D01*
X80924600Y-77052082D01*
X80889453Y-77228778D01*
X80820509Y-77395224D01*
X80720417Y-77545022D01*
X80593022Y-77672417D01*
X80443224Y-77772509D01*
X80276778Y-77841453D01*
X80100082Y-77876600D01*
X79919918Y-77876600D01*
X79743222Y-77841453D01*
X79576776Y-77772509D01*
X79426978Y-77672417D01*
X79299583Y-77545022D01*
X79199491Y-77395224D01*
X79130547Y-77228778D01*
X79095400Y-77052082D01*
X79095400Y-76871918D01*
X79130547Y-76695222D01*
X79199491Y-76528776D01*
X79299583Y-76378978D01*
X79426978Y-76251583D01*
X79576776Y-76151491D01*
X79743222Y-76082547D01*
X79919918Y-76047400D01*
X80100082Y-76047400D01*
X80276778Y-76082547D01*
G37*
G36*
X95057428Y-76423264D02*
G01*
X95078509Y-76429660D01*
X95097945Y-76440048D01*
X95114976Y-76454024D01*
X95128952Y-76471055D01*
X95139340Y-76490491D01*
X95145736Y-76511572D01*
X95148500Y-76539640D01*
X95148500Y-77003360D01*
X95145736Y-77031428D01*
X95139340Y-77052509D01*
X95128952Y-77071945D01*
X95114976Y-77088976D01*
X95097945Y-77102952D01*
X95078509Y-77113340D01*
X95057428Y-77119736D01*
X95029360Y-77122500D01*
X93565640Y-77122500D01*
X93537572Y-77119736D01*
X93516491Y-77113340D01*
X93497055Y-77102952D01*
X93480024Y-77088976D01*
X93466048Y-77071945D01*
X93455660Y-77052509D01*
X93449264Y-77031428D01*
X93446500Y-77003360D01*
X93446500Y-76539640D01*
X93449264Y-76511572D01*
X93455660Y-76490491D01*
X93466048Y-76471055D01*
X93480024Y-76454024D01*
X93497055Y-76440048D01*
X93516491Y-76429660D01*
X93537572Y-76423264D01*
X93565640Y-76420500D01*
X95029360Y-76420500D01*
X95057428Y-76423264D01*
G37*
G36*
X102257428Y-76423264D02*
G01*
X102278509Y-76429660D01*
X102297945Y-76440048D01*
X102314976Y-76454024D01*
X102328952Y-76471055D01*
X102339340Y-76490491D01*
X102345736Y-76511572D01*
X102348500Y-76539640D01*
X102348500Y-77003360D01*
X102345736Y-77031428D01*
X102339340Y-77052509D01*
X102328952Y-77071945D01*
X102314976Y-77088976D01*
X102297945Y-77102952D01*
X102278509Y-77113340D01*
X102257428Y-77119736D01*
X102229360Y-77122500D01*
X100765640Y-77122500D01*
X100737572Y-77119736D01*
X100716491Y-77113340D01*
X100697055Y-77102952D01*
X100680024Y-77088976D01*
X100666048Y-77071945D01*
X100655660Y-77052509D01*
X100649264Y-77031428D01*
X100646500Y-77003360D01*
X100646500Y-76539640D01*
X100649264Y-76511572D01*
X100655660Y-76490491D01*
X100666048Y-76471055D01*
X100680024Y-76454024D01*
X100697055Y-76440048D01*
X100716491Y-76429660D01*
X100737572Y-76423264D01*
X100765640Y-76420500D01*
X102229360Y-76420500D01*
X102257428Y-76423264D01*
G37*
G36*
X128013000Y-76052000D02*
G01*
X123411000Y-76052000D01*
X123411000Y-74650000D01*
X128013000Y-74650000D01*
X128013000Y-76052000D01*
G37*
G36*
X80276778Y-73542547D02*
G01*
X80443224Y-73611491D01*
X80593022Y-73711583D01*
X80720417Y-73838978D01*
X80820509Y-73988776D01*
X80889453Y-74155222D01*
X80924600Y-74331918D01*
X80924600Y-74512082D01*
X80889453Y-74688778D01*
X80820509Y-74855224D01*
X80720417Y-75005022D01*
X80593022Y-75132417D01*
X80443224Y-75232509D01*
X80276778Y-75301453D01*
X80100082Y-75336600D01*
X79919918Y-75336600D01*
X79743222Y-75301453D01*
X79576776Y-75232509D01*
X79426978Y-75132417D01*
X79299583Y-75005022D01*
X79199491Y-74855224D01*
X79130547Y-74688778D01*
X79095400Y-74512082D01*
X79095400Y-74331918D01*
X79130547Y-74155222D01*
X79199491Y-73988776D01*
X79299583Y-73838978D01*
X79426978Y-73711583D01*
X79576776Y-73611491D01*
X79743222Y-73542547D01*
X79919918Y-73507400D01*
X80100082Y-73507400D01*
X80276778Y-73542547D01*
G37*
G36*
X77736778Y-73542547D02*
G01*
X77903224Y-73611491D01*
X78053022Y-73711583D01*
X78180417Y-73838978D01*
X78280509Y-73988776D01*
X78349453Y-74155222D01*
X78384600Y-74331918D01*
X78384600Y-74512082D01*
X78349453Y-74688778D01*
X78280509Y-74855224D01*
X78180417Y-75005022D01*
X78053022Y-75132417D01*
X77903224Y-75232509D01*
X77736778Y-75301453D01*
X77560082Y-75336600D01*
X77379918Y-75336600D01*
X77203222Y-75301453D01*
X77036776Y-75232509D01*
X76886978Y-75132417D01*
X76759583Y-75005022D01*
X76659491Y-74855224D01*
X76590547Y-74688778D01*
X76555400Y-74512082D01*
X76555400Y-74331918D01*
X76590547Y-74155222D01*
X76659491Y-73988776D01*
X76759583Y-73838978D01*
X76886978Y-73711583D01*
X77036776Y-73611491D01*
X77203222Y-73542547D01*
X77379918Y-73507400D01*
X77560082Y-73507400D01*
X77736778Y-73542547D01*
G37*
G36*
X75196778Y-73542547D02*
G01*
X75363224Y-73611491D01*
X75513022Y-73711583D01*
X75640417Y-73838978D01*
X75740509Y-73988776D01*
X75809453Y-74155222D01*
X75844600Y-74331918D01*
X75844600Y-74512082D01*
X75809453Y-74688778D01*
X75740509Y-74855224D01*
X75640417Y-75005022D01*
X75513022Y-75132417D01*
X75363224Y-75232509D01*
X75196778Y-75301453D01*
X75020082Y-75336600D01*
X74839918Y-75336600D01*
X74663222Y-75301453D01*
X74496776Y-75232509D01*
X74346978Y-75132417D01*
X74219583Y-75005022D01*
X74119491Y-74855224D01*
X74050547Y-74688778D01*
X74015400Y-74512082D01*
X74015400Y-74331918D01*
X74050547Y-74155222D01*
X74119491Y-73988776D01*
X74219583Y-73838978D01*
X74346978Y-73711583D01*
X74496776Y-73611491D01*
X74663222Y-73542547D01*
X74839918Y-73507400D01*
X75020082Y-73507400D01*
X75196778Y-73542547D01*
G37*
G36*
X72656778Y-73542547D02*
G01*
X72823224Y-73611491D01*
X72973022Y-73711583D01*
X73100417Y-73838978D01*
X73200509Y-73988776D01*
X73269453Y-74155222D01*
X73304600Y-74331918D01*
X73304600Y-74512082D01*
X73269453Y-74688778D01*
X73200509Y-74855224D01*
X73100417Y-75005022D01*
X72973022Y-75132417D01*
X72823224Y-75232509D01*
X72656778Y-75301453D01*
X72480082Y-75336600D01*
X72299918Y-75336600D01*
X72123222Y-75301453D01*
X71956776Y-75232509D01*
X71806978Y-75132417D01*
X71679583Y-75005022D01*
X71579491Y-74855224D01*
X71510547Y-74688778D01*
X71475400Y-74512082D01*
X71475400Y-74331918D01*
X71510547Y-74155222D01*
X71579491Y-73988776D01*
X71679583Y-73838978D01*
X71806978Y-73711583D01*
X71956776Y-73611491D01*
X72123222Y-73542547D01*
X72299918Y-73507400D01*
X72480082Y-73507400D01*
X72656778Y-73542547D01*
G37*
G36*
X70116778Y-73542547D02*
G01*
X70283224Y-73611491D01*
X70433022Y-73711583D01*
X70560417Y-73838978D01*
X70660509Y-73988776D01*
X70729453Y-74155222D01*
X70764600Y-74331918D01*
X70764600Y-74512082D01*
X70729453Y-74688778D01*
X70660509Y-74855224D01*
X70560417Y-75005022D01*
X70433022Y-75132417D01*
X70283224Y-75232509D01*
X70116778Y-75301453D01*
X69940082Y-75336600D01*
X69759918Y-75336600D01*
X69583222Y-75301453D01*
X69416776Y-75232509D01*
X69266978Y-75132417D01*
X69139583Y-75005022D01*
X69039491Y-74855224D01*
X68970547Y-74688778D01*
X68935400Y-74512082D01*
X68935400Y-74331918D01*
X68970547Y-74155222D01*
X69039491Y-73988776D01*
X69139583Y-73838978D01*
X69266978Y-73711583D01*
X69416776Y-73611491D01*
X69583222Y-73542547D01*
X69759918Y-73507400D01*
X69940082Y-73507400D01*
X70116778Y-73542547D01*
G37*
G36*
X120863000Y-73502000D02*
G01*
X115761000Y-73502000D01*
X115761000Y-71600000D01*
X120863000Y-71600000D01*
X120863000Y-73502000D01*
G37*
G36*
X126481064Y-68712389D02*
G01*
X126672333Y-68791615D01*
X126672335Y-68791616D01*
X126844473Y-68906635D01*
X126990865Y-69053027D01*
X127092963Y-69205827D01*
X127105885Y-69225167D01*
X127185111Y-69416436D01*
X127225500Y-69619484D01*
X127225500Y-69826516D01*
X127185111Y-70029564D01*
X127105885Y-70220833D01*
X127105884Y-70220835D01*
X126990865Y-70392973D01*
X126844473Y-70539365D01*
X126672335Y-70654384D01*
X126672334Y-70654385D01*
X126672333Y-70654385D01*
X126481064Y-70733611D01*
X126278016Y-70774000D01*
X126070984Y-70774000D01*
X125867936Y-70733611D01*
X125676667Y-70654385D01*
X125676666Y-70654385D01*
X125676665Y-70654384D01*
X125504527Y-70539365D01*
X125358135Y-70392973D01*
X125243116Y-70220835D01*
X125243115Y-70220833D01*
X125163889Y-70029564D01*
X125123500Y-69826516D01*
X125123500Y-69619484D01*
X125163889Y-69416436D01*
X125243115Y-69225167D01*
X125256038Y-69205827D01*
X125358135Y-69053027D01*
X125504527Y-68906635D01*
X125676665Y-68791616D01*
X125676667Y-68791615D01*
X125867936Y-68712389D01*
X126070984Y-68672000D01*
X126278016Y-68672000D01*
X126481064Y-68712389D01*
G37*
G36*
X122290064Y-68712389D02*
G01*
X122481333Y-68791615D01*
X122481335Y-68791616D01*
X122653473Y-68906635D01*
X122799865Y-69053027D01*
X122901963Y-69205827D01*
X122914885Y-69225167D01*
X122994111Y-69416436D01*
X123034500Y-69619484D01*
X123034500Y-69826516D01*
X122994111Y-70029564D01*
X122914885Y-70220833D01*
X122914884Y-70220835D01*
X122799865Y-70392973D01*
X122653473Y-70539365D01*
X122481335Y-70654384D01*
X122481334Y-70654385D01*
X122481333Y-70654385D01*
X122290064Y-70733611D01*
X122087016Y-70774000D01*
X121879984Y-70774000D01*
X121676936Y-70733611D01*
X121485667Y-70654385D01*
X121485666Y-70654385D01*
X121485665Y-70654384D01*
X121313527Y-70539365D01*
X121167135Y-70392973D01*
X121052116Y-70220835D01*
X121052115Y-70220833D01*
X120972889Y-70029564D01*
X120932500Y-69826516D01*
X120932500Y-69619484D01*
X120972889Y-69416436D01*
X121052115Y-69225167D01*
X121065038Y-69205827D01*
X121167135Y-69053027D01*
X121313527Y-68906635D01*
X121485665Y-68791616D01*
X121485667Y-68791615D01*
X121676936Y-68712389D01*
X121879984Y-68672000D01*
X122087016Y-68672000D01*
X122290064Y-68712389D01*
G37*
G36*
X102823674Y-68230465D02*
G01*
X102861367Y-68241899D01*
X102896103Y-68260466D01*
X102926548Y-68285452D01*
X102951534Y-68315897D01*
X102970101Y-68350633D01*
X102981535Y-68388326D01*
X102986000Y-68433661D01*
X102986000Y-69270339D01*
X102981535Y-69315674D01*
X102970101Y-69353367D01*
X102951534Y-69388103D01*
X102926548Y-69418548D01*
X102896103Y-69443534D01*
X102861367Y-69462101D01*
X102823674Y-69473535D01*
X102778339Y-69478000D01*
X101691661Y-69478000D01*
X101646326Y-69473535D01*
X101608633Y-69462101D01*
X101573897Y-69443534D01*
X101543452Y-69418548D01*
X101518466Y-69388103D01*
X101499899Y-69353367D01*
X101488465Y-69315674D01*
X101484000Y-69270339D01*
X101484000Y-68433661D01*
X101488465Y-68388326D01*
X101499899Y-68350633D01*
X101518466Y-68315897D01*
X101543452Y-68285452D01*
X101573897Y-68260466D01*
X101608633Y-68241899D01*
X101646326Y-68230465D01*
X101691661Y-68226000D01*
X102778339Y-68226000D01*
X102823674Y-68230465D01*
G37*
G36*
X96727674Y-68230465D02*
G01*
X96765367Y-68241899D01*
X96800103Y-68260466D01*
X96830548Y-68285452D01*
X96855534Y-68315897D01*
X96874101Y-68350633D01*
X96885535Y-68388326D01*
X96890000Y-68433661D01*
X96890000Y-69270339D01*
X96885535Y-69315674D01*
X96874101Y-69353367D01*
X96855534Y-69388103D01*
X96830548Y-69418548D01*
X96800103Y-69443534D01*
X96765367Y-69462101D01*
X96727674Y-69473535D01*
X96682339Y-69478000D01*
X95595661Y-69478000D01*
X95550326Y-69473535D01*
X95512633Y-69462101D01*
X95477897Y-69443534D01*
X95447452Y-69418548D01*
X95422466Y-69388103D01*
X95403899Y-69353367D01*
X95392465Y-69315674D01*
X95388000Y-69270339D01*
X95388000Y-68433661D01*
X95392465Y-68388326D01*
X95403899Y-68350633D01*
X95422466Y-68315897D01*
X95447452Y-68285452D01*
X95477897Y-68260466D01*
X95512633Y-68241899D01*
X95550326Y-68230465D01*
X95595661Y-68226000D01*
X96682339Y-68226000D01*
X96727674Y-68230465D01*
G37*
G36*
X93651564Y-65791389D02*
G01*
X93740880Y-65828385D01*
X93842835Y-65870616D01*
X94014973Y-65985635D01*
X94161365Y-66132027D01*
X94262740Y-66283745D01*
X94276385Y-66304167D01*
X94355611Y-66495436D01*
X94396000Y-66698484D01*
X94396000Y-66905516D01*
X94355611Y-67108564D01*
X94294748Y-67255500D01*
X94276384Y-67299835D01*
X94161365Y-67471973D01*
X94014973Y-67618365D01*
X93842835Y-67733384D01*
X93842834Y-67733385D01*
X93842833Y-67733385D01*
X93651564Y-67812611D01*
X93448516Y-67853000D01*
X93241484Y-67853000D01*
X93038436Y-67812611D01*
X92847167Y-67733385D01*
X92847166Y-67733385D01*
X92847165Y-67733384D01*
X92675027Y-67618365D01*
X92528635Y-67471973D01*
X92413616Y-67299835D01*
X92395252Y-67255500D01*
X92334389Y-67108564D01*
X92294000Y-66905516D01*
X92294000Y-66698484D01*
X92334389Y-66495436D01*
X92413615Y-66304167D01*
X92427261Y-66283745D01*
X92528635Y-66132027D01*
X92675027Y-65985635D01*
X92847165Y-65870616D01*
X92949120Y-65828385D01*
X93038436Y-65791389D01*
X93241484Y-65751000D01*
X93448516Y-65751000D01*
X93651564Y-65791389D01*
G37*
G36*
X99678142Y-66020242D02*
G01*
X99826101Y-66081529D01*
X99959255Y-66170499D01*
X100072501Y-66283745D01*
X100161471Y-66416899D01*
X100222758Y-66564858D01*
X100254000Y-66721925D01*
X100254000Y-66882075D01*
X100222758Y-67039142D01*
X100161471Y-67187101D01*
X100072501Y-67320255D01*
X99959255Y-67433501D01*
X99826101Y-67522471D01*
X99678142Y-67583758D01*
X99521075Y-67615000D01*
X99360925Y-67615000D01*
X99203858Y-67583758D01*
X99055899Y-67522471D01*
X98922745Y-67433501D01*
X98809499Y-67320255D01*
X98720529Y-67187101D01*
X98659242Y-67039142D01*
X98628000Y-66882075D01*
X98628000Y-66721925D01*
X98659242Y-66564858D01*
X98720529Y-66416899D01*
X98809499Y-66283745D01*
X98922745Y-66170499D01*
X99055899Y-66081529D01*
X99203858Y-66020242D01*
X99360925Y-65989000D01*
X99521075Y-65989000D01*
X99678142Y-66020242D01*
G37*
G36*
X96727674Y-66180465D02*
G01*
X96765367Y-66191899D01*
X96800103Y-66210466D01*
X96830548Y-66235452D01*
X96855534Y-66265897D01*
X96874101Y-66300633D01*
X96885535Y-66338326D01*
X96890000Y-66383661D01*
X96890000Y-67220339D01*
X96885535Y-67265674D01*
X96874101Y-67303367D01*
X96855534Y-67338103D01*
X96830548Y-67368548D01*
X96800103Y-67393534D01*
X96765367Y-67412101D01*
X96727674Y-67423535D01*
X96682339Y-67428000D01*
X95595661Y-67428000D01*
X95550326Y-67423535D01*
X95512633Y-67412101D01*
X95477897Y-67393534D01*
X95447452Y-67368548D01*
X95422466Y-67338103D01*
X95403899Y-67303367D01*
X95392465Y-67265674D01*
X95388000Y-67220339D01*
X95388000Y-66383661D01*
X95392465Y-66338326D01*
X95403899Y-66300633D01*
X95422466Y-66265897D01*
X95447452Y-66235452D01*
X95477897Y-66210466D01*
X95512633Y-66191899D01*
X95550326Y-66180465D01*
X95595661Y-66176000D01*
X96682339Y-66176000D01*
X96727674Y-66180465D01*
G37*
G36*
X102823674Y-66180465D02*
G01*
X102861367Y-66191899D01*
X102896103Y-66210466D01*
X102926548Y-66235452D01*
X102951534Y-66265897D01*
X102970101Y-66300633D01*
X102981535Y-66338326D01*
X102986000Y-66383661D01*
X102986000Y-67220339D01*
X102981535Y-67265674D01*
X102970101Y-67303367D01*
X102951534Y-67338103D01*
X102926548Y-67368548D01*
X102896103Y-67393534D01*
X102861367Y-67412101D01*
X102823674Y-67423535D01*
X102778339Y-67428000D01*
X101691661Y-67428000D01*
X101646326Y-67423535D01*
X101608633Y-67412101D01*
X101573897Y-67393534D01*
X101543452Y-67368548D01*
X101518466Y-67338103D01*
X101499899Y-67303367D01*
X101488465Y-67265674D01*
X101484000Y-67220339D01*
X101484000Y-66383661D01*
X101488465Y-66338326D01*
X101499899Y-66300633D01*
X101518466Y-66265897D01*
X101543452Y-66235452D01*
X101573897Y-66210466D01*
X101608633Y-66191899D01*
X101646326Y-66180465D01*
X101691661Y-66176000D01*
X102778339Y-66176000D01*
X102823674Y-66180465D01*
G37*
G36*
X113047174Y-66007965D02*
G01*
X113084867Y-66019399D01*
X113119603Y-66037966D01*
X113150048Y-66062952D01*
X113175034Y-66093397D01*
X113193601Y-66128133D01*
X113205035Y-66165826D01*
X113209500Y-66211161D01*
X113209500Y-67047839D01*
X113205035Y-67093174D01*
X113193601Y-67130867D01*
X113175034Y-67165603D01*
X113150048Y-67196048D01*
X113119603Y-67221034D01*
X113084867Y-67239601D01*
X113047174Y-67251035D01*
X113001839Y-67255500D01*
X111915161Y-67255500D01*
X111869826Y-67251035D01*
X111832133Y-67239601D01*
X111797397Y-67221034D01*
X111766952Y-67196048D01*
X111741966Y-67165603D01*
X111723399Y-67130867D01*
X111711965Y-67093174D01*
X111707500Y-67047839D01*
X111707500Y-66211161D01*
X111711965Y-66165826D01*
X111723399Y-66128133D01*
X111741966Y-66093397D01*
X111766952Y-66062952D01*
X111797397Y-66037966D01*
X111832133Y-66019399D01*
X111869826Y-66007965D01*
X111915161Y-66003500D01*
X113001839Y-66003500D01*
X113047174Y-66007965D01*
G37*
G36*
X118235500Y-66038500D02*
G01*
X116333500Y-66038500D01*
X116333500Y-64136500D01*
X118235500Y-64136500D01*
X118235500Y-66038500D01*
G37*
G36*
X70156564Y-63886389D02*
G01*
X70329364Y-63957965D01*
X70347835Y-63965616D01*
X70381284Y-63987966D01*
X70519973Y-64080635D01*
X70666365Y-64227027D01*
X70781385Y-64399167D01*
X70860611Y-64590436D01*
X70901000Y-64793484D01*
X70901000Y-65000516D01*
X70860611Y-65203564D01*
X70859809Y-65205500D01*
X70781384Y-65394835D01*
X70666365Y-65566973D01*
X70519973Y-65713365D01*
X70347835Y-65828384D01*
X70347834Y-65828385D01*
X70347833Y-65828385D01*
X70156564Y-65907611D01*
X69953516Y-65948000D01*
X69746484Y-65948000D01*
X69543436Y-65907611D01*
X69352167Y-65828385D01*
X69352166Y-65828385D01*
X69352165Y-65828384D01*
X69180027Y-65713365D01*
X69033635Y-65566973D01*
X68918616Y-65394835D01*
X68840191Y-65205500D01*
X68839389Y-65203564D01*
X68799000Y-65000516D01*
X68799000Y-64793484D01*
X68839389Y-64590436D01*
X68918615Y-64399167D01*
X69033635Y-64227027D01*
X69180027Y-64080635D01*
X69318716Y-63987966D01*
X69352165Y-63965616D01*
X69370636Y-63957965D01*
X69543436Y-63886389D01*
X69746484Y-63846000D01*
X69953516Y-63846000D01*
X70156564Y-63886389D01*
G37*
G36*
X97140000Y-65602000D02*
G01*
X95138000Y-65602000D01*
X95138000Y-64700000D01*
X97140000Y-64700000D01*
X97140000Y-65602000D01*
G37*
G36*
X113047174Y-63957965D02*
G01*
X113084867Y-63969399D01*
X113119603Y-63987966D01*
X113150048Y-64012952D01*
X113175034Y-64043397D01*
X113193601Y-64078133D01*
X113205035Y-64115826D01*
X113209500Y-64161161D01*
X113209500Y-64997839D01*
X113205035Y-65043174D01*
X113193601Y-65080867D01*
X113175034Y-65115603D01*
X113150048Y-65146048D01*
X113119603Y-65171034D01*
X113084867Y-65189601D01*
X113047174Y-65201035D01*
X113001839Y-65205500D01*
X111915161Y-65205500D01*
X111869826Y-65201035D01*
X111832133Y-65189601D01*
X111797397Y-65171034D01*
X111766952Y-65146048D01*
X111741966Y-65115603D01*
X111723399Y-65080867D01*
X111711965Y-65043174D01*
X111707500Y-64997839D01*
X111707500Y-64161161D01*
X111711965Y-64115826D01*
X111723399Y-64078133D01*
X111741966Y-64043397D01*
X111766952Y-64012952D01*
X111797397Y-63987966D01*
X111832133Y-63969399D01*
X111869826Y-63957965D01*
X111915161Y-63953500D01*
X113001839Y-63953500D01*
X113047174Y-63957965D01*
G37*
G36*
X100140000Y-64652000D02*
G01*
X98138000Y-64652000D01*
X98138000Y-63750000D01*
X100140000Y-63750000D01*
X100140000Y-64652000D01*
G37*
G36*
X59971000Y-63781000D02*
G01*
X56869000Y-63781000D01*
X56869000Y-60679000D01*
X59971000Y-60679000D01*
X59971000Y-63781000D01*
G37*
G36*
X64471000Y-63781000D02*
G01*
X61369000Y-63781000D01*
X61369000Y-60679000D01*
X64471000Y-60679000D01*
X64471000Y-63781000D01*
G37*
G36*
X67499000Y-63737000D02*
G01*
X65597000Y-63737000D01*
X65597000Y-60135000D01*
X67499000Y-60135000D01*
X67499000Y-63737000D01*
G37*
G36*
X97140000Y-63702000D02*
G01*
X95138000Y-63702000D01*
X95138000Y-62800000D01*
X97140000Y-62800000D01*
X97140000Y-63702000D01*
G37*
G36*
X124766564Y-61473389D02*
G01*
X124957833Y-61552615D01*
X124957835Y-61552616D01*
X125129973Y-61667635D01*
X125276365Y-61814027D01*
X125373117Y-61958826D01*
X125391385Y-61986167D01*
X125470611Y-62177436D01*
X125511000Y-62380484D01*
X125511000Y-62587516D01*
X125470611Y-62790564D01*
X125456390Y-62824896D01*
X125391384Y-62981835D01*
X125276365Y-63153973D01*
X125129973Y-63300365D01*
X124957835Y-63415384D01*
X124957834Y-63415385D01*
X124957833Y-63415385D01*
X124766564Y-63494611D01*
X124563516Y-63535000D01*
X124356484Y-63535000D01*
X124153436Y-63494611D01*
X123962167Y-63415385D01*
X123962166Y-63415385D01*
X123962165Y-63415384D01*
X123790027Y-63300365D01*
X123643635Y-63153973D01*
X123528616Y-62981835D01*
X123463610Y-62824896D01*
X123449389Y-62790564D01*
X123409000Y-62587516D01*
X123409000Y-62380484D01*
X123449389Y-62177436D01*
X123528615Y-61986167D01*
X123546884Y-61958826D01*
X123643635Y-61814027D01*
X123790027Y-61667635D01*
X123962165Y-61552616D01*
X123962167Y-61552615D01*
X124153436Y-61473389D01*
X124356484Y-61433000D01*
X124563516Y-61433000D01*
X124766564Y-61473389D01*
G37*
G36*
X117561895Y-61633046D02*
G01*
X117734966Y-61704734D01*
X117734967Y-61704735D01*
X117890727Y-61808810D01*
X118023190Y-61941273D01*
X118035130Y-61959143D01*
X118127266Y-62097034D01*
X118198954Y-62270105D01*
X118235500Y-62453833D01*
X118235500Y-62641167D01*
X118198954Y-62824895D01*
X118127266Y-62997966D01*
X118127265Y-62997967D01*
X118023190Y-63153727D01*
X117890727Y-63286190D01*
X117812318Y-63338581D01*
X117734966Y-63390266D01*
X117561895Y-63461954D01*
X117378167Y-63498500D01*
X117190833Y-63498500D01*
X117007105Y-63461954D01*
X116834034Y-63390266D01*
X116756682Y-63338581D01*
X116678273Y-63286190D01*
X116545810Y-63153727D01*
X116441735Y-62997967D01*
X116441734Y-62997966D01*
X116370046Y-62824895D01*
X116333500Y-62641167D01*
X116333500Y-62453833D01*
X116370046Y-62270105D01*
X116441734Y-62097034D01*
X116533870Y-61959143D01*
X116545810Y-61941273D01*
X116678273Y-61808810D01*
X116834033Y-61704735D01*
X116834034Y-61704734D01*
X117007105Y-61633046D01*
X117190833Y-61596500D01*
X117378167Y-61596500D01*
X117561895Y-61633046D01*
G37*
G36*
X114972174Y-61800965D02*
G01*
X115009867Y-61812399D01*
X115044603Y-61830966D01*
X115075048Y-61855952D01*
X115100034Y-61886397D01*
X115118601Y-61921133D01*
X115130035Y-61958826D01*
X115134500Y-62004161D01*
X115134500Y-63090839D01*
X115130035Y-63136174D01*
X115118601Y-63173867D01*
X115100034Y-63208603D01*
X115075048Y-63239048D01*
X115044603Y-63264034D01*
X115009867Y-63282601D01*
X114972174Y-63294035D01*
X114926839Y-63298500D01*
X114090161Y-63298500D01*
X114044826Y-63294035D01*
X114007133Y-63282601D01*
X113972397Y-63264034D01*
X113941952Y-63239048D01*
X113916966Y-63208603D01*
X113898399Y-63173867D01*
X113886965Y-63136174D01*
X113882500Y-63090839D01*
X113882500Y-62004161D01*
X113886965Y-61958826D01*
X113898399Y-61921133D01*
X113916966Y-61886397D01*
X113941952Y-61855952D01*
X113972397Y-61830966D01*
X114007133Y-61812399D01*
X114044826Y-61800965D01*
X114090161Y-61796500D01*
X114926839Y-61796500D01*
X114972174Y-61800965D01*
G37*
G36*
X112922174Y-61800965D02*
G01*
X112959867Y-61812399D01*
X112994603Y-61830966D01*
X113025048Y-61855952D01*
X113050034Y-61886397D01*
X113068601Y-61921133D01*
X113080035Y-61958826D01*
X113084500Y-62004161D01*
X113084500Y-63090839D01*
X113080035Y-63136174D01*
X113068601Y-63173867D01*
X113050034Y-63208603D01*
X113025048Y-63239048D01*
X112994603Y-63264034D01*
X112959867Y-63282601D01*
X112922174Y-63294035D01*
X112876839Y-63298500D01*
X112040161Y-63298500D01*
X111994826Y-63294035D01*
X111957133Y-63282601D01*
X111922397Y-63264034D01*
X111891952Y-63239048D01*
X111866966Y-63208603D01*
X111848399Y-63173867D01*
X111836965Y-63136174D01*
X111832500Y-63090839D01*
X111832500Y-62004161D01*
X111836965Y-61958826D01*
X111848399Y-61921133D01*
X111866966Y-61886397D01*
X111891952Y-61855952D01*
X111922397Y-61830966D01*
X111957133Y-61812399D01*
X111994826Y-61800965D01*
X112040161Y-61796500D01*
X112876839Y-61796500D01*
X112922174Y-61800965D01*
G37*
G36*
X99678142Y-60940242D02*
G01*
X99826101Y-61001529D01*
X99959255Y-61090499D01*
X100072501Y-61203745D01*
X100161471Y-61336899D01*
X100222758Y-61484858D01*
X100254000Y-61641925D01*
X100254000Y-61802075D01*
X100222758Y-61959142D01*
X100161471Y-62107101D01*
X100072501Y-62240255D01*
X99959255Y-62353501D01*
X99826101Y-62442471D01*
X99678142Y-62503758D01*
X99521075Y-62535000D01*
X99360925Y-62535000D01*
X99203858Y-62503758D01*
X99055899Y-62442471D01*
X98922745Y-62353501D01*
X98809499Y-62240255D01*
X98720529Y-62107101D01*
X98659242Y-61959142D01*
X98628000Y-61802075D01*
X98628000Y-61641925D01*
X98659242Y-61484858D01*
X98720529Y-61336899D01*
X98809499Y-61203745D01*
X98922745Y-61090499D01*
X99055899Y-61001529D01*
X99203858Y-60940242D01*
X99360925Y-60909000D01*
X99521075Y-60909000D01*
X99678142Y-60940242D01*
G37*
G36*
X63492048Y-57452122D02*
G01*
X63526387Y-57462539D01*
X63558036Y-57479456D01*
X63585778Y-57502222D01*
X63608544Y-57529964D01*
X63625461Y-57561613D01*
X63635878Y-57595952D01*
X63640000Y-57637807D01*
X63640000Y-59710193D01*
X63635878Y-59752048D01*
X63625461Y-59786387D01*
X63608544Y-59818036D01*
X63585778Y-59845778D01*
X63558036Y-59868544D01*
X63526387Y-59885461D01*
X63492048Y-59895878D01*
X63450193Y-59900000D01*
X62227807Y-59900000D01*
X62185952Y-59895878D01*
X62151613Y-59885461D01*
X62119964Y-59868544D01*
X62092222Y-59845778D01*
X62069456Y-59818036D01*
X62052539Y-59786387D01*
X62042122Y-59752048D01*
X62038000Y-59710193D01*
X62038000Y-57637807D01*
X62042122Y-57595952D01*
X62052539Y-57561613D01*
X62069456Y-57529964D01*
X62092222Y-57502222D01*
X62119964Y-57479456D01*
X62151613Y-57462539D01*
X62185952Y-57452122D01*
X62227807Y-57448000D01*
X63450193Y-57448000D01*
X63492048Y-57452122D01*
G37*
G36*
X60242048Y-57452122D02*
G01*
X60276387Y-57462539D01*
X60308036Y-57479456D01*
X60335778Y-57502222D01*
X60358544Y-57529964D01*
X60375461Y-57561613D01*
X60385878Y-57595952D01*
X60390000Y-57637807D01*
X60390000Y-59710193D01*
X60385878Y-59752048D01*
X60375461Y-59786387D01*
X60358544Y-59818036D01*
X60335778Y-59845778D01*
X60308036Y-59868544D01*
X60276387Y-59885461D01*
X60242048Y-59895878D01*
X60200193Y-59900000D01*
X58977807Y-59900000D01*
X58935952Y-59895878D01*
X58901613Y-59885461D01*
X58869964Y-59868544D01*
X58842222Y-59845778D01*
X58819456Y-59818036D01*
X58802539Y-59786387D01*
X58792122Y-59752048D01*
X58788000Y-59710193D01*
X58788000Y-57637807D01*
X58792122Y-57595952D01*
X58802539Y-57561613D01*
X58819456Y-57529964D01*
X58842222Y-57502222D01*
X58869964Y-57479456D01*
X58901613Y-57462539D01*
X58935952Y-57452122D01*
X58977807Y-57448000D01*
X60200193Y-57448000D01*
X60242048Y-57452122D01*
G37*
G36*
X67499000Y-58737000D02*
G01*
X65597000Y-58737000D01*
X65597000Y-55135000D01*
X67499000Y-55135000D01*
X67499000Y-58737000D01*
G37*
G36*
X64226000Y-55526000D02*
G01*
X61124000Y-55526000D01*
X61124000Y-52424000D01*
X64226000Y-52424000D01*
X64226000Y-55526000D01*
G37*
G36*
X130646000Y-55526000D02*
G01*
X127544000Y-55526000D01*
X127544000Y-52424000D01*
X130646000Y-52424000D01*
X130646000Y-55526000D01*
G37*
G36*
X59611585Y-44833802D02*
G01*
X59761410Y-44863604D01*
X60043674Y-44980521D01*
X60297705Y-45150259D01*
X60513741Y-45366295D01*
X60683479Y-45620326D01*
X60800396Y-45902590D01*
X60860000Y-46202240D01*
X60860000Y-46507760D01*
X60800396Y-46807410D01*
X60683479Y-47089674D01*
X60513741Y-47343705D01*
X60297705Y-47559741D01*
X60043674Y-47729479D01*
X59761410Y-47846396D01*
X59611585Y-47876198D01*
X59461761Y-47906000D01*
X59156239Y-47906000D01*
X59006415Y-47876198D01*
X58856590Y-47846396D01*
X58574326Y-47729479D01*
X58320295Y-47559741D01*
X58104259Y-47343705D01*
X57934521Y-47089674D01*
X57817604Y-46807410D01*
X57758000Y-46507760D01*
X57758000Y-46202240D01*
X57817604Y-45902590D01*
X57934521Y-45620326D01*
X58104259Y-45366295D01*
X58320295Y-45150259D01*
X58574326Y-44980521D01*
X58856590Y-44863604D01*
X59006415Y-44833802D01*
X59156239Y-44804000D01*
X59461761Y-44804000D01*
X59611585Y-44833802D01*
G37*
G36*
X132611585Y-44833802D02*
G01*
X132761410Y-44863604D01*
X133043674Y-44980521D01*
X133297705Y-45150259D01*
X133513741Y-45366295D01*
X133683479Y-45620326D01*
X133800396Y-45902590D01*
X133860000Y-46202240D01*
X133860000Y-46507760D01*
X133800396Y-46807410D01*
X133683479Y-47089674D01*
X133513741Y-47343705D01*
X133297705Y-47559741D01*
X133043674Y-47729479D01*
X132761410Y-47846396D01*
X132611585Y-47876198D01*
X132461761Y-47906000D01*
X132156239Y-47906000D01*
X132006415Y-47876198D01*
X131856590Y-47846396D01*
X131574326Y-47729479D01*
X131320295Y-47559741D01*
X131104259Y-47343705D01*
X130934521Y-47089674D01*
X130817604Y-46807410D01*
X130758000Y-46507760D01*
X130758000Y-46202240D01*
X130817604Y-45902590D01*
X130934521Y-45620326D01*
X131104259Y-45366295D01*
X131320295Y-45150259D01*
X131574326Y-44980521D01*
X131856590Y-44863604D01*
X132006415Y-44833802D01*
X132156239Y-44804000D01*
X132461761Y-44804000D01*
X132611585Y-44833802D01*
G37*
M02*
