M48
; DRILL file {KiCad 5.1.5} date Sun 09 Feb 2020 12:43:31 PM +10
; FORMAT={-:-/ absolute / inch / decimal}
; #@! TF.CreationDate,2020-02-09T12:43:31+10:00
; #@! TF.GenerationSoftware,Kicad,Pcbnew,5.1.5
; #@! TF.FileFunction,Plated,1,2,PTH
FMAT,2
INCH
T1C0.0118
T2C0.0300
T3C0.0354
T4C0.0394
T5C0.0400
%
G90
G05
T1
X2.435Y-2.245
X2.46Y-2.245
X2.485Y-2.2447
X2.56Y-2.08
X2.56Y-2.105
X2.56Y-2.13
X2.565Y-2.385
X2.565Y-2.41
X2.565Y-2.435
X2.585Y-2.08
X2.585Y-2.105
X2.585Y-2.13
X2.61Y-2.08
X2.61Y-2.105
X2.61Y-2.13
X3.1Y-2.465
X3.6456Y-2.85
X3.6456Y-2.875
X3.6456Y-2.9
X3.755Y-3.1725
X3.7675Y-3.0225
X3.7825Y-3.1725
X3.85Y-2.795
X3.85Y-2.82
X3.85Y-2.845
X3.9375Y-3.0025
X3.9375Y-3.035
X3.9375Y-3.07
X3.9375Y-3.1
X3.995Y-3.0725
X3.995Y-3.1717
X4.075Y-2.945
X4.3475Y-2.4675
X4.3475Y-2.5025
X4.4249Y-2.6849
X4.4623Y-2.3475
X4.4623Y-2.37
X4.4623Y-2.3925
X4.65Y-3.05
X4.6725Y-3.05
X4.695Y-3.05
X4.72Y-3.1501
X4.8259Y-3.1005
X4.8259Y-3.125
X4.8259Y-3.1509
X5.04Y-2.085
X5.04Y-2.125
X5.04Y-2.165
X5.085Y-2.085
X5.085Y-2.125
X5.085Y-2.165
X5.125Y-2.085
X5.125Y-2.125
X5.125Y-2.165
T2
X3.915Y-2.43
X3.915Y-2.63
T3
X4.6175Y-2.4625
X4.6175Y-2.5625
T4
X4.9Y-2.46
T5
X2.75Y-2.93
X2.75Y-3.03
X2.85Y-2.93
X2.85Y-3.03
X2.95Y-2.93
X2.95Y-3.03
X3.05Y-2.93
X3.05Y-3.03
X3.15Y-2.93
X3.15Y-3.03
T0
M30
