G04 #@! TF.GenerationSoftware,KiCad,Pcbnew,5.1.5*
G04 #@! TF.CreationDate,2020-02-09T12:43:18+10:00*
G04 #@! TF.ProjectId,hrem,6872656d-2e6b-4696-9361-645f70636258,rev?*
G04 #@! TF.SameCoordinates,Original*
G04 #@! TF.FileFunction,Legend,Bot*
G04 #@! TF.FilePolarity,Positive*
%FSLAX46Y46*%
G04 Gerber Fmt 4.6, Leading zero omitted, Abs format (unit mm)*
G04 Created by KiCad (PCBNEW 5.1.5) date 2020-02-09 12:43:18*
%MOMM*%
%LPD*%
G04 APERTURE LIST*
%ADD10C,0.120000*%
%ADD11C,0.150000*%
%ADD12C,1.626000*%
%ADD13R,1.652000X1.402000*%
%ADD14C,2.102000*%
%ADD15R,1.829200X1.829200*%
%ADD16O,1.829200X1.829200*%
%ADD17R,1.662000X0.752000*%
%ADD18R,0.752000X1.662000*%
%ADD19C,0.100000*%
%ADD20R,1.902000X1.902000*%
%ADD21C,1.902000*%
%ADD22C,3.102000*%
G04 APERTURE END LIST*
D10*
X103941000Y-64262000D02*
G75*
G03X103941000Y-64262000I-4500000J0D01*
G01*
X119098500Y-77828500D02*
X121548500Y-77828500D01*
X120898500Y-81048500D02*
X119098500Y-81048500D01*
X110782500Y-65399500D02*
X110782500Y-63599500D01*
X114002500Y-63599500D02*
X114002500Y-66049500D01*
X115304500Y-79104748D02*
X115304500Y-79627252D01*
X116724500Y-79104748D02*
X116724500Y-79627252D01*
X98105752Y-77712500D02*
X97583248Y-77712500D01*
X98105752Y-79132500D02*
X97583248Y-79132500D01*
X118363108Y-62145165D02*
G75*
G02X118520016Y-65377500I-1078608J-1672335D01*
G01*
X116205892Y-62145165D02*
G75*
G03X116048984Y-65377500I1078608J-1672335D01*
G01*
X118364337Y-62776370D02*
G75*
G02X118364500Y-64858461I-1079837J-1041130D01*
G01*
X116204663Y-62776370D02*
G75*
G03X116204500Y-64858461I1079837J-1041130D01*
G01*
X118520500Y-65377500D02*
X118364500Y-65377500D01*
X116204500Y-65377500D02*
X116048500Y-65377500D01*
X67650000Y-55996000D02*
X67650000Y-57796000D01*
X64430000Y-57796000D02*
X64430000Y-55346000D01*
X98114752Y-75807500D02*
X97592248Y-75807500D01*
X98114752Y-77227500D02*
X97592248Y-77227500D01*
X60974000Y-59154000D02*
X60974000Y-54769000D01*
X60974000Y-54769000D02*
X63994000Y-54769000D01*
X63994000Y-54769000D02*
X63994000Y-59154000D01*
X115063748Y-60781000D02*
X115586252Y-60781000D01*
X115063748Y-59361000D02*
X115586252Y-59361000D01*
X119753748Y-75744000D02*
X120276252Y-75744000D01*
X119753748Y-77164000D02*
X120276252Y-77164000D01*
D11*
X105528952Y-60507571D02*
X105386095Y-60555190D01*
X105338476Y-60602809D01*
X105290857Y-60698047D01*
X105290857Y-60840904D01*
X105338476Y-60936142D01*
X105386095Y-60983761D01*
X105481333Y-61031380D01*
X105862285Y-61031380D01*
X105862285Y-60031380D01*
X105528952Y-60031380D01*
X105433714Y-60079000D01*
X105386095Y-60126619D01*
X105338476Y-60221857D01*
X105338476Y-60317095D01*
X105386095Y-60412333D01*
X105433714Y-60459952D01*
X105528952Y-60507571D01*
X105862285Y-60507571D01*
X104957523Y-60031380D02*
X104290857Y-60031380D01*
X104957523Y-61031380D01*
X104290857Y-61031380D01*
X103386095Y-61031380D02*
X103957523Y-61031380D01*
X103671809Y-61031380D02*
X103671809Y-60031380D01*
X103767047Y-60174238D01*
X103862285Y-60269476D01*
X103957523Y-60317095D01*
X100202904Y-70810333D02*
X100250523Y-70762714D01*
X100345761Y-70619857D01*
X100393380Y-70524619D01*
X100441000Y-70381761D01*
X100488619Y-70143666D01*
X100488619Y-69953190D01*
X100441000Y-69715095D01*
X100393380Y-69572238D01*
X100345761Y-69477000D01*
X100250523Y-69334142D01*
X100202904Y-69286523D01*
X99821952Y-70048428D02*
X99060047Y-70048428D01*
X99441000Y-70429380D02*
X99441000Y-69667476D01*
X98679095Y-70810333D02*
X98631476Y-70762714D01*
X98536238Y-70619857D01*
X98488619Y-70524619D01*
X98441000Y-70381761D01*
X98393380Y-70143666D01*
X98393380Y-69953190D01*
X98441000Y-69715095D01*
X98488619Y-69572238D01*
X98536238Y-69477000D01*
X98631476Y-69334142D01*
X98679095Y-69286523D01*
X83756333Y-60856761D02*
X83613476Y-60904380D01*
X83375380Y-60904380D01*
X83280142Y-60856761D01*
X83232523Y-60809142D01*
X83184904Y-60713904D01*
X83184904Y-60618666D01*
X83232523Y-60523428D01*
X83280142Y-60475809D01*
X83375380Y-60428190D01*
X83565857Y-60380571D01*
X83661095Y-60332952D01*
X83708714Y-60285333D01*
X83756333Y-60190095D01*
X83756333Y-60094857D01*
X83708714Y-59999619D01*
X83661095Y-59952000D01*
X83565857Y-59904380D01*
X83327761Y-59904380D01*
X83184904Y-59952000D01*
X82851571Y-59904380D02*
X82613476Y-60904380D01*
X82423000Y-60190095D01*
X82232523Y-60904380D01*
X81994428Y-59904380D01*
X81089666Y-60904380D02*
X81661095Y-60904380D01*
X81375380Y-60904380D02*
X81375380Y-59904380D01*
X81470619Y-60047238D01*
X81565857Y-60142476D01*
X81661095Y-60190095D01*
X120760404Y-81621380D02*
X120760404Y-82430904D01*
X120712785Y-82526142D01*
X120665166Y-82573761D01*
X120569928Y-82621380D01*
X120379452Y-82621380D01*
X120284214Y-82573761D01*
X120236595Y-82526142D01*
X120188976Y-82430904D01*
X120188976Y-81621380D01*
X119284214Y-81954714D02*
X119284214Y-82621380D01*
X119522309Y-81573761D02*
X119760404Y-82288047D01*
X119141357Y-82288047D01*
X109981904Y-64349380D02*
X109981904Y-65158904D01*
X109934285Y-65254142D01*
X109886666Y-65301761D01*
X109791428Y-65349380D01*
X109600952Y-65349380D01*
X109505714Y-65301761D01*
X109458095Y-65254142D01*
X109410476Y-65158904D01*
X109410476Y-64349380D01*
X109029523Y-64349380D02*
X108410476Y-64349380D01*
X108743809Y-64730333D01*
X108600952Y-64730333D01*
X108505714Y-64777952D01*
X108458095Y-64825571D01*
X108410476Y-64920809D01*
X108410476Y-65158904D01*
X108458095Y-65254142D01*
X108505714Y-65301761D01*
X108600952Y-65349380D01*
X108886666Y-65349380D01*
X108981904Y-65301761D01*
X109029523Y-65254142D01*
X116117666Y-77096880D02*
X116451000Y-76620690D01*
X116689095Y-77096880D02*
X116689095Y-76096880D01*
X116308142Y-76096880D01*
X116212904Y-76144500D01*
X116165285Y-76192119D01*
X116117666Y-76287357D01*
X116117666Y-76430214D01*
X116165285Y-76525452D01*
X116212904Y-76573071D01*
X116308142Y-76620690D01*
X116689095Y-76620690D01*
X115212904Y-76096880D02*
X115689095Y-76096880D01*
X115736714Y-76573071D01*
X115689095Y-76525452D01*
X115593857Y-76477833D01*
X115355761Y-76477833D01*
X115260523Y-76525452D01*
X115212904Y-76573071D01*
X115165285Y-76668309D01*
X115165285Y-76906404D01*
X115212904Y-77001642D01*
X115260523Y-77049261D01*
X115355761Y-77096880D01*
X115593857Y-77096880D01*
X115689095Y-77049261D01*
X115736714Y-77001642D01*
X98011166Y-80430642D02*
X98058785Y-80478261D01*
X98201642Y-80525880D01*
X98296880Y-80525880D01*
X98439738Y-80478261D01*
X98534976Y-80383023D01*
X98582595Y-80287785D01*
X98630214Y-80097309D01*
X98630214Y-79954452D01*
X98582595Y-79763976D01*
X98534976Y-79668738D01*
X98439738Y-79573500D01*
X98296880Y-79525880D01*
X98201642Y-79525880D01*
X98058785Y-79573500D01*
X98011166Y-79621119D01*
X97677833Y-79525880D02*
X97058785Y-79525880D01*
X97392119Y-79906833D01*
X97249261Y-79906833D01*
X97154023Y-79954452D01*
X97106404Y-80002071D01*
X97058785Y-80097309D01*
X97058785Y-80335404D01*
X97106404Y-80430642D01*
X97154023Y-80478261D01*
X97249261Y-80525880D01*
X97534976Y-80525880D01*
X97630214Y-80478261D01*
X97677833Y-80430642D01*
X118022595Y-67571880D02*
X118022595Y-66571880D01*
X117784500Y-66571880D01*
X117641642Y-66619500D01*
X117546404Y-66714738D01*
X117498785Y-66809976D01*
X117451166Y-67000452D01*
X117451166Y-67143309D01*
X117498785Y-67333785D01*
X117546404Y-67429023D01*
X117641642Y-67524261D01*
X117784500Y-67571880D01*
X118022595Y-67571880D01*
X117070214Y-66667119D02*
X117022595Y-66619500D01*
X116927357Y-66571880D01*
X116689261Y-66571880D01*
X116594023Y-66619500D01*
X116546404Y-66667119D01*
X116498785Y-66762357D01*
X116498785Y-66857595D01*
X116546404Y-67000452D01*
X117117833Y-67571880D01*
X116498785Y-67571880D01*
X67817904Y-59777380D02*
X67817904Y-60586904D01*
X67770285Y-60682142D01*
X67722666Y-60729761D01*
X67627428Y-60777380D01*
X67436952Y-60777380D01*
X67341714Y-60729761D01*
X67294095Y-60682142D01*
X67246476Y-60586904D01*
X67246476Y-59777380D01*
X66246476Y-60777380D02*
X66817904Y-60777380D01*
X66532190Y-60777380D02*
X66532190Y-59777380D01*
X66627428Y-59920238D01*
X66722666Y-60015476D01*
X66817904Y-60063095D01*
X98020166Y-75382380D02*
X98353500Y-74906190D01*
X98591595Y-75382380D02*
X98591595Y-74382380D01*
X98210642Y-74382380D01*
X98115404Y-74430000D01*
X98067785Y-74477619D01*
X98020166Y-74572857D01*
X98020166Y-74715714D01*
X98067785Y-74810952D01*
X98115404Y-74858571D01*
X98210642Y-74906190D01*
X98591595Y-74906190D01*
X97067785Y-75382380D02*
X97639214Y-75382380D01*
X97353500Y-75382380D02*
X97353500Y-74382380D01*
X97448738Y-74525238D01*
X97543976Y-74620476D01*
X97639214Y-74668095D01*
X62650666Y-54078142D02*
X62698285Y-54125761D01*
X62841142Y-54173380D01*
X62936380Y-54173380D01*
X63079238Y-54125761D01*
X63174476Y-54030523D01*
X63222095Y-53935285D01*
X63269714Y-53744809D01*
X63269714Y-53601952D01*
X63222095Y-53411476D01*
X63174476Y-53316238D01*
X63079238Y-53221000D01*
X62936380Y-53173380D01*
X62841142Y-53173380D01*
X62698285Y-53221000D01*
X62650666Y-53268619D01*
X62269714Y-53268619D02*
X62222095Y-53221000D01*
X62126857Y-53173380D01*
X61888761Y-53173380D01*
X61793523Y-53221000D01*
X61745904Y-53268619D01*
X61698285Y-53363857D01*
X61698285Y-53459095D01*
X61745904Y-53601952D01*
X62317333Y-54173380D01*
X61698285Y-54173380D01*
X118530666Y-60428142D02*
X118578285Y-60475761D01*
X118721142Y-60523380D01*
X118816380Y-60523380D01*
X118959238Y-60475761D01*
X119054476Y-60380523D01*
X119102095Y-60285285D01*
X119149714Y-60094809D01*
X119149714Y-59951952D01*
X119102095Y-59761476D01*
X119054476Y-59666238D01*
X118959238Y-59571000D01*
X118816380Y-59523380D01*
X118721142Y-59523380D01*
X118578285Y-59571000D01*
X118530666Y-59618619D01*
X117673523Y-59856714D02*
X117673523Y-60523380D01*
X117911619Y-59475761D02*
X118149714Y-60190047D01*
X117530666Y-60190047D01*
X120181666Y-74906142D02*
X120229285Y-74953761D01*
X120372142Y-75001380D01*
X120467380Y-75001380D01*
X120610238Y-74953761D01*
X120705476Y-74858523D01*
X120753095Y-74763285D01*
X120800714Y-74572809D01*
X120800714Y-74429952D01*
X120753095Y-74239476D01*
X120705476Y-74144238D01*
X120610238Y-74049000D01*
X120467380Y-74001380D01*
X120372142Y-74001380D01*
X120229285Y-74049000D01*
X120181666Y-74096619D01*
X119276904Y-74001380D02*
X119753095Y-74001380D01*
X119800714Y-74477571D01*
X119753095Y-74429952D01*
X119657857Y-74382333D01*
X119419761Y-74382333D01*
X119324523Y-74429952D01*
X119276904Y-74477571D01*
X119229285Y-74572809D01*
X119229285Y-74810904D01*
X119276904Y-74906142D01*
X119324523Y-74953761D01*
X119419761Y-75001380D01*
X119657857Y-75001380D01*
X119753095Y-74953761D01*
X119800714Y-74906142D01*
%LPC*%
D12*
X99441000Y-61722000D03*
X99441000Y-66802000D03*
D13*
X78410000Y-66738500D03*
X86360000Y-66738500D03*
X78410000Y-62238500D03*
X86360000Y-62238500D03*
D14*
X124460000Y-62484000D03*
D15*
X69850000Y-76962000D03*
D16*
X69850000Y-74422000D03*
X72390000Y-76962000D03*
X72390000Y-74422000D03*
X74930000Y-76962000D03*
X74930000Y-74422000D03*
X77470000Y-76962000D03*
X77470000Y-74422000D03*
X80010000Y-76962000D03*
X80010000Y-74422000D03*
D17*
X118648500Y-78488500D03*
X118648500Y-80388500D03*
X121348500Y-80388500D03*
X121348500Y-79438500D03*
X121348500Y-78488500D03*
D18*
X113342500Y-65849500D03*
X112392500Y-65849500D03*
X111442500Y-65849500D03*
X111442500Y-63149500D03*
X113342500Y-63149500D03*
D19*
G36*
X116520005Y-77716311D02*
G01*
X116546425Y-77720230D01*
X116572335Y-77726720D01*
X116597483Y-77735718D01*
X116621628Y-77747138D01*
X116644538Y-77760869D01*
X116665992Y-77776780D01*
X116685782Y-77794718D01*
X116703720Y-77814508D01*
X116719631Y-77835962D01*
X116733362Y-77858872D01*
X116744782Y-77883017D01*
X116753780Y-77908165D01*
X116760270Y-77934075D01*
X116764189Y-77960495D01*
X116765500Y-77987173D01*
X116765500Y-78694827D01*
X116764189Y-78721505D01*
X116760270Y-78747925D01*
X116753780Y-78773835D01*
X116744782Y-78798983D01*
X116733362Y-78823128D01*
X116719631Y-78846038D01*
X116703720Y-78867492D01*
X116685782Y-78887282D01*
X116665992Y-78905220D01*
X116644538Y-78921131D01*
X116621628Y-78934862D01*
X116597483Y-78946282D01*
X116572335Y-78955280D01*
X116546425Y-78961770D01*
X116520005Y-78965689D01*
X116493327Y-78967000D01*
X115535673Y-78967000D01*
X115508995Y-78965689D01*
X115482575Y-78961770D01*
X115456665Y-78955280D01*
X115431517Y-78946282D01*
X115407372Y-78934862D01*
X115384462Y-78921131D01*
X115363008Y-78905220D01*
X115343218Y-78887282D01*
X115325280Y-78867492D01*
X115309369Y-78846038D01*
X115295638Y-78823128D01*
X115284218Y-78798983D01*
X115275220Y-78773835D01*
X115268730Y-78747925D01*
X115264811Y-78721505D01*
X115263500Y-78694827D01*
X115263500Y-77987173D01*
X115264811Y-77960495D01*
X115268730Y-77934075D01*
X115275220Y-77908165D01*
X115284218Y-77883017D01*
X115295638Y-77858872D01*
X115309369Y-77835962D01*
X115325280Y-77814508D01*
X115343218Y-77794718D01*
X115363008Y-77776780D01*
X115384462Y-77760869D01*
X115407372Y-77747138D01*
X115431517Y-77735718D01*
X115456665Y-77726720D01*
X115482575Y-77720230D01*
X115508995Y-77716311D01*
X115535673Y-77715000D01*
X116493327Y-77715000D01*
X116520005Y-77716311D01*
G37*
G36*
X116520005Y-79766311D02*
G01*
X116546425Y-79770230D01*
X116572335Y-79776720D01*
X116597483Y-79785718D01*
X116621628Y-79797138D01*
X116644538Y-79810869D01*
X116665992Y-79826780D01*
X116685782Y-79844718D01*
X116703720Y-79864508D01*
X116719631Y-79885962D01*
X116733362Y-79908872D01*
X116744782Y-79933017D01*
X116753780Y-79958165D01*
X116760270Y-79984075D01*
X116764189Y-80010495D01*
X116765500Y-80037173D01*
X116765500Y-80744827D01*
X116764189Y-80771505D01*
X116760270Y-80797925D01*
X116753780Y-80823835D01*
X116744782Y-80848983D01*
X116733362Y-80873128D01*
X116719631Y-80896038D01*
X116703720Y-80917492D01*
X116685782Y-80937282D01*
X116665992Y-80955220D01*
X116644538Y-80971131D01*
X116621628Y-80984862D01*
X116597483Y-80996282D01*
X116572335Y-81005280D01*
X116546425Y-81011770D01*
X116520005Y-81015689D01*
X116493327Y-81017000D01*
X115535673Y-81017000D01*
X115508995Y-81015689D01*
X115482575Y-81011770D01*
X115456665Y-81005280D01*
X115431517Y-80996282D01*
X115407372Y-80984862D01*
X115384462Y-80971131D01*
X115363008Y-80955220D01*
X115343218Y-80937282D01*
X115325280Y-80917492D01*
X115309369Y-80896038D01*
X115295638Y-80873128D01*
X115284218Y-80848983D01*
X115275220Y-80823835D01*
X115268730Y-80797925D01*
X115264811Y-80771505D01*
X115263500Y-80744827D01*
X115263500Y-80037173D01*
X115264811Y-80010495D01*
X115268730Y-79984075D01*
X115275220Y-79958165D01*
X115284218Y-79933017D01*
X115295638Y-79908872D01*
X115309369Y-79885962D01*
X115325280Y-79864508D01*
X115343218Y-79844718D01*
X115363008Y-79826780D01*
X115384462Y-79810869D01*
X115407372Y-79797138D01*
X115431517Y-79785718D01*
X115456665Y-79776720D01*
X115482575Y-79770230D01*
X115508995Y-79766311D01*
X115535673Y-79765000D01*
X116493327Y-79765000D01*
X116520005Y-79766311D01*
G37*
G36*
X99250005Y-77672811D02*
G01*
X99276425Y-77676730D01*
X99302335Y-77683220D01*
X99327483Y-77692218D01*
X99351628Y-77703638D01*
X99374538Y-77717369D01*
X99395992Y-77733280D01*
X99415782Y-77751218D01*
X99433720Y-77771008D01*
X99449631Y-77792462D01*
X99463362Y-77815372D01*
X99474782Y-77839517D01*
X99483780Y-77864665D01*
X99490270Y-77890575D01*
X99494189Y-77916995D01*
X99495500Y-77943673D01*
X99495500Y-78901327D01*
X99494189Y-78928005D01*
X99490270Y-78954425D01*
X99483780Y-78980335D01*
X99474782Y-79005483D01*
X99463362Y-79029628D01*
X99449631Y-79052538D01*
X99433720Y-79073992D01*
X99415782Y-79093782D01*
X99395992Y-79111720D01*
X99374538Y-79127631D01*
X99351628Y-79141362D01*
X99327483Y-79152782D01*
X99302335Y-79161780D01*
X99276425Y-79168270D01*
X99250005Y-79172189D01*
X99223327Y-79173500D01*
X98515673Y-79173500D01*
X98488995Y-79172189D01*
X98462575Y-79168270D01*
X98436665Y-79161780D01*
X98411517Y-79152782D01*
X98387372Y-79141362D01*
X98364462Y-79127631D01*
X98343008Y-79111720D01*
X98323218Y-79093782D01*
X98305280Y-79073992D01*
X98289369Y-79052538D01*
X98275638Y-79029628D01*
X98264218Y-79005483D01*
X98255220Y-78980335D01*
X98248730Y-78954425D01*
X98244811Y-78928005D01*
X98243500Y-78901327D01*
X98243500Y-77943673D01*
X98244811Y-77916995D01*
X98248730Y-77890575D01*
X98255220Y-77864665D01*
X98264218Y-77839517D01*
X98275638Y-77815372D01*
X98289369Y-77792462D01*
X98305280Y-77771008D01*
X98323218Y-77751218D01*
X98343008Y-77733280D01*
X98364462Y-77717369D01*
X98387372Y-77703638D01*
X98411517Y-77692218D01*
X98436665Y-77683220D01*
X98462575Y-77676730D01*
X98488995Y-77672811D01*
X98515673Y-77671500D01*
X99223327Y-77671500D01*
X99250005Y-77672811D01*
G37*
G36*
X97200005Y-77672811D02*
G01*
X97226425Y-77676730D01*
X97252335Y-77683220D01*
X97277483Y-77692218D01*
X97301628Y-77703638D01*
X97324538Y-77717369D01*
X97345992Y-77733280D01*
X97365782Y-77751218D01*
X97383720Y-77771008D01*
X97399631Y-77792462D01*
X97413362Y-77815372D01*
X97424782Y-77839517D01*
X97433780Y-77864665D01*
X97440270Y-77890575D01*
X97444189Y-77916995D01*
X97445500Y-77943673D01*
X97445500Y-78901327D01*
X97444189Y-78928005D01*
X97440270Y-78954425D01*
X97433780Y-78980335D01*
X97424782Y-79005483D01*
X97413362Y-79029628D01*
X97399631Y-79052538D01*
X97383720Y-79073992D01*
X97365782Y-79093782D01*
X97345992Y-79111720D01*
X97324538Y-79127631D01*
X97301628Y-79141362D01*
X97277483Y-79152782D01*
X97252335Y-79161780D01*
X97226425Y-79168270D01*
X97200005Y-79172189D01*
X97173327Y-79173500D01*
X96465673Y-79173500D01*
X96438995Y-79172189D01*
X96412575Y-79168270D01*
X96386665Y-79161780D01*
X96361517Y-79152782D01*
X96337372Y-79141362D01*
X96314462Y-79127631D01*
X96293008Y-79111720D01*
X96273218Y-79093782D01*
X96255280Y-79073992D01*
X96239369Y-79052538D01*
X96225638Y-79029628D01*
X96214218Y-79005483D01*
X96205220Y-78980335D01*
X96198730Y-78954425D01*
X96194811Y-78928005D01*
X96193500Y-78901327D01*
X96193500Y-77943673D01*
X96194811Y-77916995D01*
X96198730Y-77890575D01*
X96205220Y-77864665D01*
X96214218Y-77839517D01*
X96225638Y-77815372D01*
X96239369Y-77792462D01*
X96255280Y-77771008D01*
X96273218Y-77751218D01*
X96293008Y-77733280D01*
X96314462Y-77717369D01*
X96337372Y-77703638D01*
X96361517Y-77692218D01*
X96386665Y-77683220D01*
X96412575Y-77676730D01*
X96438995Y-77672811D01*
X96465673Y-77671500D01*
X97173327Y-77671500D01*
X97200005Y-77672811D01*
G37*
D20*
X117284500Y-65087500D03*
D21*
X117284500Y-62547500D03*
D18*
X65090000Y-55546000D03*
X66040000Y-55546000D03*
X66990000Y-55546000D03*
X66990000Y-58246000D03*
X65090000Y-58246000D03*
D19*
G36*
X99259005Y-75767811D02*
G01*
X99285425Y-75771730D01*
X99311335Y-75778220D01*
X99336483Y-75787218D01*
X99360628Y-75798638D01*
X99383538Y-75812369D01*
X99404992Y-75828280D01*
X99424782Y-75846218D01*
X99442720Y-75866008D01*
X99458631Y-75887462D01*
X99472362Y-75910372D01*
X99483782Y-75934517D01*
X99492780Y-75959665D01*
X99499270Y-75985575D01*
X99503189Y-76011995D01*
X99504500Y-76038673D01*
X99504500Y-76996327D01*
X99503189Y-77023005D01*
X99499270Y-77049425D01*
X99492780Y-77075335D01*
X99483782Y-77100483D01*
X99472362Y-77124628D01*
X99458631Y-77147538D01*
X99442720Y-77168992D01*
X99424782Y-77188782D01*
X99404992Y-77206720D01*
X99383538Y-77222631D01*
X99360628Y-77236362D01*
X99336483Y-77247782D01*
X99311335Y-77256780D01*
X99285425Y-77263270D01*
X99259005Y-77267189D01*
X99232327Y-77268500D01*
X98524673Y-77268500D01*
X98497995Y-77267189D01*
X98471575Y-77263270D01*
X98445665Y-77256780D01*
X98420517Y-77247782D01*
X98396372Y-77236362D01*
X98373462Y-77222631D01*
X98352008Y-77206720D01*
X98332218Y-77188782D01*
X98314280Y-77168992D01*
X98298369Y-77147538D01*
X98284638Y-77124628D01*
X98273218Y-77100483D01*
X98264220Y-77075335D01*
X98257730Y-77049425D01*
X98253811Y-77023005D01*
X98252500Y-76996327D01*
X98252500Y-76038673D01*
X98253811Y-76011995D01*
X98257730Y-75985575D01*
X98264220Y-75959665D01*
X98273218Y-75934517D01*
X98284638Y-75910372D01*
X98298369Y-75887462D01*
X98314280Y-75866008D01*
X98332218Y-75846218D01*
X98352008Y-75828280D01*
X98373462Y-75812369D01*
X98396372Y-75798638D01*
X98420517Y-75787218D01*
X98445665Y-75778220D01*
X98471575Y-75771730D01*
X98497995Y-75767811D01*
X98524673Y-75766500D01*
X99232327Y-75766500D01*
X99259005Y-75767811D01*
G37*
G36*
X97209005Y-75767811D02*
G01*
X97235425Y-75771730D01*
X97261335Y-75778220D01*
X97286483Y-75787218D01*
X97310628Y-75798638D01*
X97333538Y-75812369D01*
X97354992Y-75828280D01*
X97374782Y-75846218D01*
X97392720Y-75866008D01*
X97408631Y-75887462D01*
X97422362Y-75910372D01*
X97433782Y-75934517D01*
X97442780Y-75959665D01*
X97449270Y-75985575D01*
X97453189Y-76011995D01*
X97454500Y-76038673D01*
X97454500Y-76996327D01*
X97453189Y-77023005D01*
X97449270Y-77049425D01*
X97442780Y-77075335D01*
X97433782Y-77100483D01*
X97422362Y-77124628D01*
X97408631Y-77147538D01*
X97392720Y-77168992D01*
X97374782Y-77188782D01*
X97354992Y-77206720D01*
X97333538Y-77222631D01*
X97310628Y-77236362D01*
X97286483Y-77247782D01*
X97261335Y-77256780D01*
X97235425Y-77263270D01*
X97209005Y-77267189D01*
X97182327Y-77268500D01*
X96474673Y-77268500D01*
X96447995Y-77267189D01*
X96421575Y-77263270D01*
X96395665Y-77256780D01*
X96370517Y-77247782D01*
X96346372Y-77236362D01*
X96323462Y-77222631D01*
X96302008Y-77206720D01*
X96282218Y-77188782D01*
X96264280Y-77168992D01*
X96248369Y-77147538D01*
X96234638Y-77124628D01*
X96223218Y-77100483D01*
X96214220Y-77075335D01*
X96207730Y-77049425D01*
X96203811Y-77023005D01*
X96202500Y-76996327D01*
X96202500Y-76038673D01*
X96203811Y-76011995D01*
X96207730Y-75985575D01*
X96214220Y-75959665D01*
X96223218Y-75934517D01*
X96234638Y-75910372D01*
X96248369Y-75887462D01*
X96264280Y-75866008D01*
X96282218Y-75846218D01*
X96302008Y-75828280D01*
X96323462Y-75812369D01*
X96346372Y-75798638D01*
X96370517Y-75787218D01*
X96395665Y-75778220D01*
X96421575Y-75771730D01*
X96447995Y-75767811D01*
X96474673Y-75766500D01*
X97182327Y-75766500D01*
X97209005Y-75767811D01*
G37*
G36*
X63469171Y-54979286D02*
G01*
X63495089Y-54983130D01*
X63520506Y-54989497D01*
X63545176Y-54998324D01*
X63568863Y-55009527D01*
X63591337Y-55022998D01*
X63612383Y-55038606D01*
X63631798Y-55056202D01*
X63649394Y-55075617D01*
X63665002Y-55096663D01*
X63678473Y-55119137D01*
X63689676Y-55142824D01*
X63698503Y-55167494D01*
X63704870Y-55192911D01*
X63708714Y-55218829D01*
X63710000Y-55245000D01*
X63710000Y-56313000D01*
X63708714Y-56339171D01*
X63704870Y-56365089D01*
X63698503Y-56390506D01*
X63689676Y-56415176D01*
X63678473Y-56438863D01*
X63665002Y-56461337D01*
X63649394Y-56482383D01*
X63631798Y-56501798D01*
X63612383Y-56519394D01*
X63591337Y-56535002D01*
X63568863Y-56548473D01*
X63545176Y-56559676D01*
X63520506Y-56568503D01*
X63495089Y-56574870D01*
X63469171Y-56578714D01*
X63443000Y-56580000D01*
X61525000Y-56580000D01*
X61498829Y-56578714D01*
X61472911Y-56574870D01*
X61447494Y-56568503D01*
X61422824Y-56559676D01*
X61399137Y-56548473D01*
X61376663Y-56535002D01*
X61355617Y-56519394D01*
X61336202Y-56501798D01*
X61318606Y-56482383D01*
X61302998Y-56461337D01*
X61289527Y-56438863D01*
X61278324Y-56415176D01*
X61269497Y-56390506D01*
X61263130Y-56365089D01*
X61259286Y-56339171D01*
X61258000Y-56313000D01*
X61258000Y-55245000D01*
X61259286Y-55218829D01*
X61263130Y-55192911D01*
X61269497Y-55167494D01*
X61278324Y-55142824D01*
X61289527Y-55119137D01*
X61302998Y-55096663D01*
X61318606Y-55075617D01*
X61336202Y-55056202D01*
X61355617Y-55038606D01*
X61376663Y-55022998D01*
X61399137Y-55009527D01*
X61422824Y-54998324D01*
X61447494Y-54989497D01*
X61472911Y-54983130D01*
X61498829Y-54979286D01*
X61525000Y-54978000D01*
X63443000Y-54978000D01*
X63469171Y-54979286D01*
G37*
G36*
X63469171Y-58229286D02*
G01*
X63495089Y-58233130D01*
X63520506Y-58239497D01*
X63545176Y-58248324D01*
X63568863Y-58259527D01*
X63591337Y-58272998D01*
X63612383Y-58288606D01*
X63631798Y-58306202D01*
X63649394Y-58325617D01*
X63665002Y-58346663D01*
X63678473Y-58369137D01*
X63689676Y-58392824D01*
X63698503Y-58417494D01*
X63704870Y-58442911D01*
X63708714Y-58468829D01*
X63710000Y-58495000D01*
X63710000Y-59563000D01*
X63708714Y-59589171D01*
X63704870Y-59615089D01*
X63698503Y-59640506D01*
X63689676Y-59665176D01*
X63678473Y-59688863D01*
X63665002Y-59711337D01*
X63649394Y-59732383D01*
X63631798Y-59751798D01*
X63612383Y-59769394D01*
X63591337Y-59785002D01*
X63568863Y-59798473D01*
X63545176Y-59809676D01*
X63520506Y-59818503D01*
X63495089Y-59824870D01*
X63469171Y-59828714D01*
X63443000Y-59830000D01*
X61525000Y-59830000D01*
X61498829Y-59828714D01*
X61472911Y-59824870D01*
X61447494Y-59818503D01*
X61422824Y-59809676D01*
X61399137Y-59798473D01*
X61376663Y-59785002D01*
X61355617Y-59769394D01*
X61336202Y-59751798D01*
X61318606Y-59732383D01*
X61302998Y-59711337D01*
X61289527Y-59688863D01*
X61278324Y-59665176D01*
X61269497Y-59640506D01*
X61263130Y-59615089D01*
X61259286Y-59589171D01*
X61258000Y-59563000D01*
X61258000Y-58495000D01*
X61259286Y-58468829D01*
X61263130Y-58442911D01*
X61269497Y-58417494D01*
X61278324Y-58392824D01*
X61289527Y-58369137D01*
X61302998Y-58346663D01*
X61318606Y-58325617D01*
X61336202Y-58306202D01*
X61355617Y-58288606D01*
X61376663Y-58272998D01*
X61399137Y-58259527D01*
X61422824Y-58248324D01*
X61447494Y-58239497D01*
X61472911Y-58233130D01*
X61498829Y-58229286D01*
X61525000Y-58228000D01*
X63443000Y-58228000D01*
X63469171Y-58229286D01*
G37*
D22*
X59309000Y-46355000D03*
X59309000Y-84355000D03*
X132309000Y-84355000D03*
X132309000Y-46355000D03*
D19*
G36*
X114680505Y-59321311D02*
G01*
X114706925Y-59325230D01*
X114732835Y-59331720D01*
X114757983Y-59340718D01*
X114782128Y-59352138D01*
X114805038Y-59365869D01*
X114826492Y-59381780D01*
X114846282Y-59399718D01*
X114864220Y-59419508D01*
X114880131Y-59440962D01*
X114893862Y-59463872D01*
X114905282Y-59488017D01*
X114914280Y-59513165D01*
X114920770Y-59539075D01*
X114924689Y-59565495D01*
X114926000Y-59592173D01*
X114926000Y-60549827D01*
X114924689Y-60576505D01*
X114920770Y-60602925D01*
X114914280Y-60628835D01*
X114905282Y-60653983D01*
X114893862Y-60678128D01*
X114880131Y-60701038D01*
X114864220Y-60722492D01*
X114846282Y-60742282D01*
X114826492Y-60760220D01*
X114805038Y-60776131D01*
X114782128Y-60789862D01*
X114757983Y-60801282D01*
X114732835Y-60810280D01*
X114706925Y-60816770D01*
X114680505Y-60820689D01*
X114653827Y-60822000D01*
X113946173Y-60822000D01*
X113919495Y-60820689D01*
X113893075Y-60816770D01*
X113867165Y-60810280D01*
X113842017Y-60801282D01*
X113817872Y-60789862D01*
X113794962Y-60776131D01*
X113773508Y-60760220D01*
X113753718Y-60742282D01*
X113735780Y-60722492D01*
X113719869Y-60701038D01*
X113706138Y-60678128D01*
X113694718Y-60653983D01*
X113685720Y-60628835D01*
X113679230Y-60602925D01*
X113675311Y-60576505D01*
X113674000Y-60549827D01*
X113674000Y-59592173D01*
X113675311Y-59565495D01*
X113679230Y-59539075D01*
X113685720Y-59513165D01*
X113694718Y-59488017D01*
X113706138Y-59463872D01*
X113719869Y-59440962D01*
X113735780Y-59419508D01*
X113753718Y-59399718D01*
X113773508Y-59381780D01*
X113794962Y-59365869D01*
X113817872Y-59352138D01*
X113842017Y-59340718D01*
X113867165Y-59331720D01*
X113893075Y-59325230D01*
X113919495Y-59321311D01*
X113946173Y-59320000D01*
X114653827Y-59320000D01*
X114680505Y-59321311D01*
G37*
G36*
X116730505Y-59321311D02*
G01*
X116756925Y-59325230D01*
X116782835Y-59331720D01*
X116807983Y-59340718D01*
X116832128Y-59352138D01*
X116855038Y-59365869D01*
X116876492Y-59381780D01*
X116896282Y-59399718D01*
X116914220Y-59419508D01*
X116930131Y-59440962D01*
X116943862Y-59463872D01*
X116955282Y-59488017D01*
X116964280Y-59513165D01*
X116970770Y-59539075D01*
X116974689Y-59565495D01*
X116976000Y-59592173D01*
X116976000Y-60549827D01*
X116974689Y-60576505D01*
X116970770Y-60602925D01*
X116964280Y-60628835D01*
X116955282Y-60653983D01*
X116943862Y-60678128D01*
X116930131Y-60701038D01*
X116914220Y-60722492D01*
X116896282Y-60742282D01*
X116876492Y-60760220D01*
X116855038Y-60776131D01*
X116832128Y-60789862D01*
X116807983Y-60801282D01*
X116782835Y-60810280D01*
X116756925Y-60816770D01*
X116730505Y-60820689D01*
X116703827Y-60822000D01*
X115996173Y-60822000D01*
X115969495Y-60820689D01*
X115943075Y-60816770D01*
X115917165Y-60810280D01*
X115892017Y-60801282D01*
X115867872Y-60789862D01*
X115844962Y-60776131D01*
X115823508Y-60760220D01*
X115803718Y-60742282D01*
X115785780Y-60722492D01*
X115769869Y-60701038D01*
X115756138Y-60678128D01*
X115744718Y-60653983D01*
X115735720Y-60628835D01*
X115729230Y-60602925D01*
X115725311Y-60576505D01*
X115724000Y-60549827D01*
X115724000Y-59592173D01*
X115725311Y-59565495D01*
X115729230Y-59539075D01*
X115735720Y-59513165D01*
X115744718Y-59488017D01*
X115756138Y-59463872D01*
X115769869Y-59440962D01*
X115785780Y-59419508D01*
X115803718Y-59399718D01*
X115823508Y-59381780D01*
X115844962Y-59365869D01*
X115867872Y-59352138D01*
X115892017Y-59340718D01*
X115917165Y-59331720D01*
X115943075Y-59325230D01*
X115969495Y-59321311D01*
X115996173Y-59320000D01*
X116703827Y-59320000D01*
X116730505Y-59321311D01*
G37*
G36*
X121420505Y-75704311D02*
G01*
X121446925Y-75708230D01*
X121472835Y-75714720D01*
X121497983Y-75723718D01*
X121522128Y-75735138D01*
X121545038Y-75748869D01*
X121566492Y-75764780D01*
X121586282Y-75782718D01*
X121604220Y-75802508D01*
X121620131Y-75823962D01*
X121633862Y-75846872D01*
X121645282Y-75871017D01*
X121654280Y-75896165D01*
X121660770Y-75922075D01*
X121664689Y-75948495D01*
X121666000Y-75975173D01*
X121666000Y-76932827D01*
X121664689Y-76959505D01*
X121660770Y-76985925D01*
X121654280Y-77011835D01*
X121645282Y-77036983D01*
X121633862Y-77061128D01*
X121620131Y-77084038D01*
X121604220Y-77105492D01*
X121586282Y-77125282D01*
X121566492Y-77143220D01*
X121545038Y-77159131D01*
X121522128Y-77172862D01*
X121497983Y-77184282D01*
X121472835Y-77193280D01*
X121446925Y-77199770D01*
X121420505Y-77203689D01*
X121393827Y-77205000D01*
X120686173Y-77205000D01*
X120659495Y-77203689D01*
X120633075Y-77199770D01*
X120607165Y-77193280D01*
X120582017Y-77184282D01*
X120557872Y-77172862D01*
X120534962Y-77159131D01*
X120513508Y-77143220D01*
X120493718Y-77125282D01*
X120475780Y-77105492D01*
X120459869Y-77084038D01*
X120446138Y-77061128D01*
X120434718Y-77036983D01*
X120425720Y-77011835D01*
X120419230Y-76985925D01*
X120415311Y-76959505D01*
X120414000Y-76932827D01*
X120414000Y-75975173D01*
X120415311Y-75948495D01*
X120419230Y-75922075D01*
X120425720Y-75896165D01*
X120434718Y-75871017D01*
X120446138Y-75846872D01*
X120459869Y-75823962D01*
X120475780Y-75802508D01*
X120493718Y-75782718D01*
X120513508Y-75764780D01*
X120534962Y-75748869D01*
X120557872Y-75735138D01*
X120582017Y-75723718D01*
X120607165Y-75714720D01*
X120633075Y-75708230D01*
X120659495Y-75704311D01*
X120686173Y-75703000D01*
X121393827Y-75703000D01*
X121420505Y-75704311D01*
G37*
G36*
X119370505Y-75704311D02*
G01*
X119396925Y-75708230D01*
X119422835Y-75714720D01*
X119447983Y-75723718D01*
X119472128Y-75735138D01*
X119495038Y-75748869D01*
X119516492Y-75764780D01*
X119536282Y-75782718D01*
X119554220Y-75802508D01*
X119570131Y-75823962D01*
X119583862Y-75846872D01*
X119595282Y-75871017D01*
X119604280Y-75896165D01*
X119610770Y-75922075D01*
X119614689Y-75948495D01*
X119616000Y-75975173D01*
X119616000Y-76932827D01*
X119614689Y-76959505D01*
X119610770Y-76985925D01*
X119604280Y-77011835D01*
X119595282Y-77036983D01*
X119583862Y-77061128D01*
X119570131Y-77084038D01*
X119554220Y-77105492D01*
X119536282Y-77125282D01*
X119516492Y-77143220D01*
X119495038Y-77159131D01*
X119472128Y-77172862D01*
X119447983Y-77184282D01*
X119422835Y-77193280D01*
X119396925Y-77199770D01*
X119370505Y-77203689D01*
X119343827Y-77205000D01*
X118636173Y-77205000D01*
X118609495Y-77203689D01*
X118583075Y-77199770D01*
X118557165Y-77193280D01*
X118532017Y-77184282D01*
X118507872Y-77172862D01*
X118484962Y-77159131D01*
X118463508Y-77143220D01*
X118443718Y-77125282D01*
X118425780Y-77105492D01*
X118409869Y-77084038D01*
X118396138Y-77061128D01*
X118384718Y-77036983D01*
X118375720Y-77011835D01*
X118369230Y-76985925D01*
X118365311Y-76959505D01*
X118364000Y-76932827D01*
X118364000Y-75975173D01*
X118365311Y-75948495D01*
X118369230Y-75922075D01*
X118375720Y-75896165D01*
X118384718Y-75871017D01*
X118396138Y-75846872D01*
X118409869Y-75823962D01*
X118425780Y-75802508D01*
X118443718Y-75782718D01*
X118463508Y-75764780D01*
X118484962Y-75748869D01*
X118507872Y-75735138D01*
X118532017Y-75723718D01*
X118557165Y-75714720D01*
X118583075Y-75708230D01*
X118609495Y-75704311D01*
X118636173Y-75703000D01*
X119343827Y-75703000D01*
X119370505Y-75704311D01*
G37*
M02*
