G04 #@! TF.GenerationSoftware,KiCad,Pcbnew,(5.1.5-0-10_14)*
G04 #@! TF.CreationDate,2020-04-18T14:37:19+10:00*
G04 #@! TF.ProjectId,hrem,6872656d-2e6b-4696-9361-645f70636258,rev?*
G04 #@! TF.SameCoordinates,Original*
G04 #@! TF.FileFunction,Legend,Bot*
G04 #@! TF.FilePolarity,Positive*
%FSLAX46Y46*%
G04 Gerber Fmt 4.6, Leading zero omitted, Abs format (unit mm)*
G04 Created by KiCad (PCBNEW (5.1.5-0-10_14)) date 2020-04-18 14:37:19*
%MOMM*%
%LPD*%
G04 APERTURE LIST*
%ADD10C,0.120000*%
%ADD11C,0.150000*%
G04 APERTURE END LIST*
D10*
X103941000Y-64262000D02*
G75*
G03X103941000Y-64262000I-4500000J0D01*
G01*
X119098500Y-77828500D02*
X121548500Y-77828500D01*
X120898500Y-81048500D02*
X119098500Y-81048500D01*
X110782500Y-65399500D02*
X110782500Y-63599500D01*
X114002500Y-63599500D02*
X114002500Y-66049500D01*
X115304500Y-79104748D02*
X115304500Y-79627252D01*
X116724500Y-79104748D02*
X116724500Y-79627252D01*
X98105752Y-77712500D02*
X97583248Y-77712500D01*
X98105752Y-79132500D02*
X97583248Y-79132500D01*
X118363108Y-62145165D02*
G75*
G02X118520016Y-65377500I-1078608J-1672335D01*
G01*
X116205892Y-62145165D02*
G75*
G03X116048984Y-65377500I1078608J-1672335D01*
G01*
X118364337Y-62776370D02*
G75*
G02X118364500Y-64858461I-1079837J-1041130D01*
G01*
X116204663Y-62776370D02*
G75*
G03X116204500Y-64858461I1079837J-1041130D01*
G01*
X118520500Y-65377500D02*
X118364500Y-65377500D01*
X116204500Y-65377500D02*
X116048500Y-65377500D01*
X67650000Y-55996000D02*
X67650000Y-57796000D01*
X64430000Y-57796000D02*
X64430000Y-55346000D01*
X98114752Y-75807500D02*
X97592248Y-75807500D01*
X98114752Y-77227500D02*
X97592248Y-77227500D01*
X60974000Y-59154000D02*
X60974000Y-54769000D01*
X60974000Y-54769000D02*
X63994000Y-54769000D01*
X63994000Y-54769000D02*
X63994000Y-59154000D01*
X115063748Y-60781000D02*
X115586252Y-60781000D01*
X115063748Y-59361000D02*
X115586252Y-59361000D01*
X119753748Y-75744000D02*
X120276252Y-75744000D01*
X119753748Y-77164000D02*
X120276252Y-77164000D01*
D11*
X105528952Y-60507571D02*
X105386095Y-60555190D01*
X105338476Y-60602809D01*
X105290857Y-60698047D01*
X105290857Y-60840904D01*
X105338476Y-60936142D01*
X105386095Y-60983761D01*
X105481333Y-61031380D01*
X105862285Y-61031380D01*
X105862285Y-60031380D01*
X105528952Y-60031380D01*
X105433714Y-60079000D01*
X105386095Y-60126619D01*
X105338476Y-60221857D01*
X105338476Y-60317095D01*
X105386095Y-60412333D01*
X105433714Y-60459952D01*
X105528952Y-60507571D01*
X105862285Y-60507571D01*
X104957523Y-60031380D02*
X104290857Y-60031380D01*
X104957523Y-61031380D01*
X104290857Y-61031380D01*
X103386095Y-61031380D02*
X103957523Y-61031380D01*
X103671809Y-61031380D02*
X103671809Y-60031380D01*
X103767047Y-60174238D01*
X103862285Y-60269476D01*
X103957523Y-60317095D01*
X100202904Y-70429333D02*
X100250523Y-70381714D01*
X100345761Y-70238857D01*
X100393380Y-70143619D01*
X100441000Y-70000761D01*
X100488619Y-69762666D01*
X100488619Y-69572190D01*
X100441000Y-69334095D01*
X100393380Y-69191238D01*
X100345761Y-69096000D01*
X100250523Y-68953142D01*
X100202904Y-68905523D01*
X99821952Y-69667428D02*
X99060047Y-69667428D01*
X99441000Y-70048380D02*
X99441000Y-69286476D01*
X98679095Y-70429333D02*
X98631476Y-70381714D01*
X98536238Y-70238857D01*
X98488619Y-70143619D01*
X98441000Y-70000761D01*
X98393380Y-69762666D01*
X98393380Y-69572190D01*
X98441000Y-69334095D01*
X98488619Y-69191238D01*
X98536238Y-69096000D01*
X98631476Y-68953142D01*
X98679095Y-68905523D01*
X83756333Y-60856761D02*
X83613476Y-60904380D01*
X83375380Y-60904380D01*
X83280142Y-60856761D01*
X83232523Y-60809142D01*
X83184904Y-60713904D01*
X83184904Y-60618666D01*
X83232523Y-60523428D01*
X83280142Y-60475809D01*
X83375380Y-60428190D01*
X83565857Y-60380571D01*
X83661095Y-60332952D01*
X83708714Y-60285333D01*
X83756333Y-60190095D01*
X83756333Y-60094857D01*
X83708714Y-59999619D01*
X83661095Y-59952000D01*
X83565857Y-59904380D01*
X83327761Y-59904380D01*
X83184904Y-59952000D01*
X82851571Y-59904380D02*
X82613476Y-60904380D01*
X82423000Y-60190095D01*
X82232523Y-60904380D01*
X81994428Y-59904380D01*
X81089666Y-60904380D02*
X81661095Y-60904380D01*
X81375380Y-60904380D02*
X81375380Y-59904380D01*
X81470619Y-60047238D01*
X81565857Y-60142476D01*
X81661095Y-60190095D01*
X120760404Y-81621380D02*
X120760404Y-82430904D01*
X120712785Y-82526142D01*
X120665166Y-82573761D01*
X120569928Y-82621380D01*
X120379452Y-82621380D01*
X120284214Y-82573761D01*
X120236595Y-82526142D01*
X120188976Y-82430904D01*
X120188976Y-81621380D01*
X119284214Y-81954714D02*
X119284214Y-82621380D01*
X119522309Y-81573761D02*
X119760404Y-82288047D01*
X119141357Y-82288047D01*
X109981904Y-64349380D02*
X109981904Y-65158904D01*
X109934285Y-65254142D01*
X109886666Y-65301761D01*
X109791428Y-65349380D01*
X109600952Y-65349380D01*
X109505714Y-65301761D01*
X109458095Y-65254142D01*
X109410476Y-65158904D01*
X109410476Y-64349380D01*
X109029523Y-64349380D02*
X108410476Y-64349380D01*
X108743809Y-64730333D01*
X108600952Y-64730333D01*
X108505714Y-64777952D01*
X108458095Y-64825571D01*
X108410476Y-64920809D01*
X108410476Y-65158904D01*
X108458095Y-65254142D01*
X108505714Y-65301761D01*
X108600952Y-65349380D01*
X108886666Y-65349380D01*
X108981904Y-65301761D01*
X109029523Y-65254142D01*
X116117666Y-77096880D02*
X116451000Y-76620690D01*
X116689095Y-77096880D02*
X116689095Y-76096880D01*
X116308142Y-76096880D01*
X116212904Y-76144500D01*
X116165285Y-76192119D01*
X116117666Y-76287357D01*
X116117666Y-76430214D01*
X116165285Y-76525452D01*
X116212904Y-76573071D01*
X116308142Y-76620690D01*
X116689095Y-76620690D01*
X115212904Y-76096880D02*
X115689095Y-76096880D01*
X115736714Y-76573071D01*
X115689095Y-76525452D01*
X115593857Y-76477833D01*
X115355761Y-76477833D01*
X115260523Y-76525452D01*
X115212904Y-76573071D01*
X115165285Y-76668309D01*
X115165285Y-76906404D01*
X115212904Y-77001642D01*
X115260523Y-77049261D01*
X115355761Y-77096880D01*
X115593857Y-77096880D01*
X115689095Y-77049261D01*
X115736714Y-77001642D01*
X98011166Y-80430642D02*
X98058785Y-80478261D01*
X98201642Y-80525880D01*
X98296880Y-80525880D01*
X98439738Y-80478261D01*
X98534976Y-80383023D01*
X98582595Y-80287785D01*
X98630214Y-80097309D01*
X98630214Y-79954452D01*
X98582595Y-79763976D01*
X98534976Y-79668738D01*
X98439738Y-79573500D01*
X98296880Y-79525880D01*
X98201642Y-79525880D01*
X98058785Y-79573500D01*
X98011166Y-79621119D01*
X97677833Y-79525880D02*
X97058785Y-79525880D01*
X97392119Y-79906833D01*
X97249261Y-79906833D01*
X97154023Y-79954452D01*
X97106404Y-80002071D01*
X97058785Y-80097309D01*
X97058785Y-80335404D01*
X97106404Y-80430642D01*
X97154023Y-80478261D01*
X97249261Y-80525880D01*
X97534976Y-80525880D01*
X97630214Y-80478261D01*
X97677833Y-80430642D01*
X118022595Y-67571880D02*
X118022595Y-66571880D01*
X117784500Y-66571880D01*
X117641642Y-66619500D01*
X117546404Y-66714738D01*
X117498785Y-66809976D01*
X117451166Y-67000452D01*
X117451166Y-67143309D01*
X117498785Y-67333785D01*
X117546404Y-67429023D01*
X117641642Y-67524261D01*
X117784500Y-67571880D01*
X118022595Y-67571880D01*
X117070214Y-66667119D02*
X117022595Y-66619500D01*
X116927357Y-66571880D01*
X116689261Y-66571880D01*
X116594023Y-66619500D01*
X116546404Y-66667119D01*
X116498785Y-66762357D01*
X116498785Y-66857595D01*
X116546404Y-67000452D01*
X117117833Y-67571880D01*
X116498785Y-67571880D01*
X67817904Y-59777380D02*
X67817904Y-60586904D01*
X67770285Y-60682142D01*
X67722666Y-60729761D01*
X67627428Y-60777380D01*
X67436952Y-60777380D01*
X67341714Y-60729761D01*
X67294095Y-60682142D01*
X67246476Y-60586904D01*
X67246476Y-59777380D01*
X66246476Y-60777380D02*
X66817904Y-60777380D01*
X66532190Y-60777380D02*
X66532190Y-59777380D01*
X66627428Y-59920238D01*
X66722666Y-60015476D01*
X66817904Y-60063095D01*
X98020166Y-75382380D02*
X98353500Y-74906190D01*
X98591595Y-75382380D02*
X98591595Y-74382380D01*
X98210642Y-74382380D01*
X98115404Y-74430000D01*
X98067785Y-74477619D01*
X98020166Y-74572857D01*
X98020166Y-74715714D01*
X98067785Y-74810952D01*
X98115404Y-74858571D01*
X98210642Y-74906190D01*
X98591595Y-74906190D01*
X97067785Y-75382380D02*
X97639214Y-75382380D01*
X97353500Y-75382380D02*
X97353500Y-74382380D01*
X97448738Y-74525238D01*
X97543976Y-74620476D01*
X97639214Y-74668095D01*
X62650666Y-54078142D02*
X62698285Y-54125761D01*
X62841142Y-54173380D01*
X62936380Y-54173380D01*
X63079238Y-54125761D01*
X63174476Y-54030523D01*
X63222095Y-53935285D01*
X63269714Y-53744809D01*
X63269714Y-53601952D01*
X63222095Y-53411476D01*
X63174476Y-53316238D01*
X63079238Y-53221000D01*
X62936380Y-53173380D01*
X62841142Y-53173380D01*
X62698285Y-53221000D01*
X62650666Y-53268619D01*
X62269714Y-53268619D02*
X62222095Y-53221000D01*
X62126857Y-53173380D01*
X61888761Y-53173380D01*
X61793523Y-53221000D01*
X61745904Y-53268619D01*
X61698285Y-53363857D01*
X61698285Y-53459095D01*
X61745904Y-53601952D01*
X62317333Y-54173380D01*
X61698285Y-54173380D01*
X118530666Y-60428142D02*
X118578285Y-60475761D01*
X118721142Y-60523380D01*
X118816380Y-60523380D01*
X118959238Y-60475761D01*
X119054476Y-60380523D01*
X119102095Y-60285285D01*
X119149714Y-60094809D01*
X119149714Y-59951952D01*
X119102095Y-59761476D01*
X119054476Y-59666238D01*
X118959238Y-59571000D01*
X118816380Y-59523380D01*
X118721142Y-59523380D01*
X118578285Y-59571000D01*
X118530666Y-59618619D01*
X117673523Y-59856714D02*
X117673523Y-60523380D01*
X117911619Y-59475761D02*
X118149714Y-60190047D01*
X117530666Y-60190047D01*
X120181666Y-74906142D02*
X120229285Y-74953761D01*
X120372142Y-75001380D01*
X120467380Y-75001380D01*
X120610238Y-74953761D01*
X120705476Y-74858523D01*
X120753095Y-74763285D01*
X120800714Y-74572809D01*
X120800714Y-74429952D01*
X120753095Y-74239476D01*
X120705476Y-74144238D01*
X120610238Y-74049000D01*
X120467380Y-74001380D01*
X120372142Y-74001380D01*
X120229285Y-74049000D01*
X120181666Y-74096619D01*
X119276904Y-74001380D02*
X119753095Y-74001380D01*
X119800714Y-74477571D01*
X119753095Y-74429952D01*
X119657857Y-74382333D01*
X119419761Y-74382333D01*
X119324523Y-74429952D01*
X119276904Y-74477571D01*
X119229285Y-74572809D01*
X119229285Y-74810904D01*
X119276904Y-74906142D01*
X119324523Y-74953761D01*
X119419761Y-75001380D01*
X119657857Y-75001380D01*
X119753095Y-74953761D01*
X119800714Y-74906142D01*
M02*
