G04 #@! TF.GenerationSoftware,KiCad,Pcbnew,(5.1.5-0-10_14)*
G04 #@! TF.CreationDate,2020-04-18T14:37:19+10:00*
G04 #@! TF.ProjectId,hrem,6872656d-2e6b-4696-9361-645f70636258,rev?*
G04 #@! TF.SameCoordinates,Original*
G04 #@! TF.FileFunction,Copper,L1,Top*
G04 #@! TF.FilePolarity,Positive*
%FSLAX46Y46*%
G04 Gerber Fmt 4.6, Leading zero omitted, Abs format (unit mm)*
G04 Created by KiCad (PCBNEW (5.1.5-0-10_14)) date 2020-04-18 14:37:19*
%MOMM*%
%LPD*%
G04 APERTURE LIST*
%ADD10C,1.524000*%
%ADD11C,2.000000*%
%ADD12R,1.727200X1.727200*%
%ADD13O,1.727200X1.727200*%
%ADD14C,0.100000*%
%ADD15R,3.000000X3.000000*%
%ADD16R,1.800000X1.800000*%
%ADD17C,1.800000*%
%ADD18R,1.800000X3.500000*%
%ADD19R,4.500000X1.300000*%
%ADD20R,5.000000X1.800000*%
%ADD21R,0.800000X1.900000*%
%ADD22C,0.500000*%
%ADD23C,0.500000*%
%ADD24C,0.250000*%
%ADD25C,0.254000*%
G04 APERTURE END LIST*
D10*
X99441000Y-61722000D03*
X99441000Y-66802000D03*
D11*
X121983500Y-69723000D03*
X126174500Y-69723000D03*
X99314000Y-64262000D03*
X69850000Y-64897000D03*
X124460000Y-62484000D03*
D12*
X69850000Y-76962000D03*
D13*
X69850000Y-74422000D03*
X72390000Y-76962000D03*
X72390000Y-74422000D03*
X74930000Y-76962000D03*
X74930000Y-74422000D03*
X77470000Y-76962000D03*
X77470000Y-74422000D03*
X80010000Y-76962000D03*
X80010000Y-74422000D03*
G04 #@! TA.AperFunction,SMDPad,CuDef*
D14*
G36*
X112933005Y-64005704D02*
G01*
X112957273Y-64009304D01*
X112981072Y-64015265D01*
X113004171Y-64023530D01*
X113026350Y-64034020D01*
X113047393Y-64046632D01*
X113067099Y-64061247D01*
X113085277Y-64077723D01*
X113101753Y-64095901D01*
X113116368Y-64115607D01*
X113128980Y-64136650D01*
X113139470Y-64158829D01*
X113147735Y-64181928D01*
X113153696Y-64205727D01*
X113157296Y-64229995D01*
X113158500Y-64254499D01*
X113158500Y-64904501D01*
X113157296Y-64929005D01*
X113153696Y-64953273D01*
X113147735Y-64977072D01*
X113139470Y-65000171D01*
X113128980Y-65022350D01*
X113116368Y-65043393D01*
X113101753Y-65063099D01*
X113085277Y-65081277D01*
X113067099Y-65097753D01*
X113047393Y-65112368D01*
X113026350Y-65124980D01*
X113004171Y-65135470D01*
X112981072Y-65143735D01*
X112957273Y-65149696D01*
X112933005Y-65153296D01*
X112908501Y-65154500D01*
X112008499Y-65154500D01*
X111983995Y-65153296D01*
X111959727Y-65149696D01*
X111935928Y-65143735D01*
X111912829Y-65135470D01*
X111890650Y-65124980D01*
X111869607Y-65112368D01*
X111849901Y-65097753D01*
X111831723Y-65081277D01*
X111815247Y-65063099D01*
X111800632Y-65043393D01*
X111788020Y-65022350D01*
X111777530Y-65000171D01*
X111769265Y-64977072D01*
X111763304Y-64953273D01*
X111759704Y-64929005D01*
X111758500Y-64904501D01*
X111758500Y-64254499D01*
X111759704Y-64229995D01*
X111763304Y-64205727D01*
X111769265Y-64181928D01*
X111777530Y-64158829D01*
X111788020Y-64136650D01*
X111800632Y-64115607D01*
X111815247Y-64095901D01*
X111831723Y-64077723D01*
X111849901Y-64061247D01*
X111869607Y-64046632D01*
X111890650Y-64034020D01*
X111912829Y-64023530D01*
X111935928Y-64015265D01*
X111959727Y-64009304D01*
X111983995Y-64005704D01*
X112008499Y-64004500D01*
X112908501Y-64004500D01*
X112933005Y-64005704D01*
G37*
G04 #@! TD.AperFunction*
G04 #@! TA.AperFunction,SMDPad,CuDef*
G36*
X112933005Y-66055704D02*
G01*
X112957273Y-66059304D01*
X112981072Y-66065265D01*
X113004171Y-66073530D01*
X113026350Y-66084020D01*
X113047393Y-66096632D01*
X113067099Y-66111247D01*
X113085277Y-66127723D01*
X113101753Y-66145901D01*
X113116368Y-66165607D01*
X113128980Y-66186650D01*
X113139470Y-66208829D01*
X113147735Y-66231928D01*
X113153696Y-66255727D01*
X113157296Y-66279995D01*
X113158500Y-66304499D01*
X113158500Y-66954501D01*
X113157296Y-66979005D01*
X113153696Y-67003273D01*
X113147735Y-67027072D01*
X113139470Y-67050171D01*
X113128980Y-67072350D01*
X113116368Y-67093393D01*
X113101753Y-67113099D01*
X113085277Y-67131277D01*
X113067099Y-67147753D01*
X113047393Y-67162368D01*
X113026350Y-67174980D01*
X113004171Y-67185470D01*
X112981072Y-67193735D01*
X112957273Y-67199696D01*
X112933005Y-67203296D01*
X112908501Y-67204500D01*
X112008499Y-67204500D01*
X111983995Y-67203296D01*
X111959727Y-67199696D01*
X111935928Y-67193735D01*
X111912829Y-67185470D01*
X111890650Y-67174980D01*
X111869607Y-67162368D01*
X111849901Y-67147753D01*
X111831723Y-67131277D01*
X111815247Y-67113099D01*
X111800632Y-67093393D01*
X111788020Y-67072350D01*
X111777530Y-67050171D01*
X111769265Y-67027072D01*
X111763304Y-67003273D01*
X111759704Y-66979005D01*
X111758500Y-66954501D01*
X111758500Y-66304499D01*
X111759704Y-66279995D01*
X111763304Y-66255727D01*
X111769265Y-66231928D01*
X111777530Y-66208829D01*
X111788020Y-66186650D01*
X111800632Y-66165607D01*
X111815247Y-66145901D01*
X111831723Y-66127723D01*
X111849901Y-66111247D01*
X111869607Y-66096632D01*
X111890650Y-66084020D01*
X111912829Y-66073530D01*
X111935928Y-66065265D01*
X111959727Y-66059304D01*
X111983995Y-66055704D01*
X112008499Y-66054500D01*
X112908501Y-66054500D01*
X112933005Y-66055704D01*
G37*
G04 #@! TD.AperFunction*
D15*
X58420000Y-62230000D03*
X62920000Y-62230000D03*
D16*
X117284500Y-65087500D03*
D17*
X117284500Y-62547500D03*
G04 #@! TA.AperFunction,SMDPad,CuDef*
D14*
G36*
X94962203Y-76472222D02*
G01*
X94976764Y-76474382D01*
X94991043Y-76477959D01*
X95004903Y-76482918D01*
X95018210Y-76489212D01*
X95030836Y-76496780D01*
X95042659Y-76505548D01*
X95053566Y-76515434D01*
X95063452Y-76526341D01*
X95072220Y-76538164D01*
X95079788Y-76550790D01*
X95086082Y-76564097D01*
X95091041Y-76577957D01*
X95094618Y-76592236D01*
X95096778Y-76606797D01*
X95097500Y-76621500D01*
X95097500Y-76921500D01*
X95096778Y-76936203D01*
X95094618Y-76950764D01*
X95091041Y-76965043D01*
X95086082Y-76978903D01*
X95079788Y-76992210D01*
X95072220Y-77004836D01*
X95063452Y-77016659D01*
X95053566Y-77027566D01*
X95042659Y-77037452D01*
X95030836Y-77046220D01*
X95018210Y-77053788D01*
X95004903Y-77060082D01*
X94991043Y-77065041D01*
X94976764Y-77068618D01*
X94962203Y-77070778D01*
X94947500Y-77071500D01*
X93647500Y-77071500D01*
X93632797Y-77070778D01*
X93618236Y-77068618D01*
X93603957Y-77065041D01*
X93590097Y-77060082D01*
X93576790Y-77053788D01*
X93564164Y-77046220D01*
X93552341Y-77037452D01*
X93541434Y-77027566D01*
X93531548Y-77016659D01*
X93522780Y-77004836D01*
X93515212Y-76992210D01*
X93508918Y-76978903D01*
X93503959Y-76965043D01*
X93500382Y-76950764D01*
X93498222Y-76936203D01*
X93497500Y-76921500D01*
X93497500Y-76621500D01*
X93498222Y-76606797D01*
X93500382Y-76592236D01*
X93503959Y-76577957D01*
X93508918Y-76564097D01*
X93515212Y-76550790D01*
X93522780Y-76538164D01*
X93531548Y-76526341D01*
X93541434Y-76515434D01*
X93552341Y-76505548D01*
X93564164Y-76496780D01*
X93576790Y-76489212D01*
X93590097Y-76482918D01*
X93603957Y-76477959D01*
X93618236Y-76474382D01*
X93632797Y-76472222D01*
X93647500Y-76471500D01*
X94947500Y-76471500D01*
X94962203Y-76472222D01*
G37*
G04 #@! TD.AperFunction*
G04 #@! TA.AperFunction,SMDPad,CuDef*
G36*
X94962203Y-77742222D02*
G01*
X94976764Y-77744382D01*
X94991043Y-77747959D01*
X95004903Y-77752918D01*
X95018210Y-77759212D01*
X95030836Y-77766780D01*
X95042659Y-77775548D01*
X95053566Y-77785434D01*
X95063452Y-77796341D01*
X95072220Y-77808164D01*
X95079788Y-77820790D01*
X95086082Y-77834097D01*
X95091041Y-77847957D01*
X95094618Y-77862236D01*
X95096778Y-77876797D01*
X95097500Y-77891500D01*
X95097500Y-78191500D01*
X95096778Y-78206203D01*
X95094618Y-78220764D01*
X95091041Y-78235043D01*
X95086082Y-78248903D01*
X95079788Y-78262210D01*
X95072220Y-78274836D01*
X95063452Y-78286659D01*
X95053566Y-78297566D01*
X95042659Y-78307452D01*
X95030836Y-78316220D01*
X95018210Y-78323788D01*
X95004903Y-78330082D01*
X94991043Y-78335041D01*
X94976764Y-78338618D01*
X94962203Y-78340778D01*
X94947500Y-78341500D01*
X93647500Y-78341500D01*
X93632797Y-78340778D01*
X93618236Y-78338618D01*
X93603957Y-78335041D01*
X93590097Y-78330082D01*
X93576790Y-78323788D01*
X93564164Y-78316220D01*
X93552341Y-78307452D01*
X93541434Y-78297566D01*
X93531548Y-78286659D01*
X93522780Y-78274836D01*
X93515212Y-78262210D01*
X93508918Y-78248903D01*
X93503959Y-78235043D01*
X93500382Y-78220764D01*
X93498222Y-78206203D01*
X93497500Y-78191500D01*
X93497500Y-77891500D01*
X93498222Y-77876797D01*
X93500382Y-77862236D01*
X93503959Y-77847957D01*
X93508918Y-77834097D01*
X93515212Y-77820790D01*
X93522780Y-77808164D01*
X93531548Y-77796341D01*
X93541434Y-77785434D01*
X93552341Y-77775548D01*
X93564164Y-77766780D01*
X93576790Y-77759212D01*
X93590097Y-77752918D01*
X93603957Y-77747959D01*
X93618236Y-77744382D01*
X93632797Y-77742222D01*
X93647500Y-77741500D01*
X94947500Y-77741500D01*
X94962203Y-77742222D01*
G37*
G04 #@! TD.AperFunction*
G04 #@! TA.AperFunction,SMDPad,CuDef*
G36*
X94962203Y-79012222D02*
G01*
X94976764Y-79014382D01*
X94991043Y-79017959D01*
X95004903Y-79022918D01*
X95018210Y-79029212D01*
X95030836Y-79036780D01*
X95042659Y-79045548D01*
X95053566Y-79055434D01*
X95063452Y-79066341D01*
X95072220Y-79078164D01*
X95079788Y-79090790D01*
X95086082Y-79104097D01*
X95091041Y-79117957D01*
X95094618Y-79132236D01*
X95096778Y-79146797D01*
X95097500Y-79161500D01*
X95097500Y-79461500D01*
X95096778Y-79476203D01*
X95094618Y-79490764D01*
X95091041Y-79505043D01*
X95086082Y-79518903D01*
X95079788Y-79532210D01*
X95072220Y-79544836D01*
X95063452Y-79556659D01*
X95053566Y-79567566D01*
X95042659Y-79577452D01*
X95030836Y-79586220D01*
X95018210Y-79593788D01*
X95004903Y-79600082D01*
X94991043Y-79605041D01*
X94976764Y-79608618D01*
X94962203Y-79610778D01*
X94947500Y-79611500D01*
X93647500Y-79611500D01*
X93632797Y-79610778D01*
X93618236Y-79608618D01*
X93603957Y-79605041D01*
X93590097Y-79600082D01*
X93576790Y-79593788D01*
X93564164Y-79586220D01*
X93552341Y-79577452D01*
X93541434Y-79567566D01*
X93531548Y-79556659D01*
X93522780Y-79544836D01*
X93515212Y-79532210D01*
X93508918Y-79518903D01*
X93503959Y-79505043D01*
X93500382Y-79490764D01*
X93498222Y-79476203D01*
X93497500Y-79461500D01*
X93497500Y-79161500D01*
X93498222Y-79146797D01*
X93500382Y-79132236D01*
X93503959Y-79117957D01*
X93508918Y-79104097D01*
X93515212Y-79090790D01*
X93522780Y-79078164D01*
X93531548Y-79066341D01*
X93541434Y-79055434D01*
X93552341Y-79045548D01*
X93564164Y-79036780D01*
X93576790Y-79029212D01*
X93590097Y-79022918D01*
X93603957Y-79017959D01*
X93618236Y-79014382D01*
X93632797Y-79012222D01*
X93647500Y-79011500D01*
X94947500Y-79011500D01*
X94962203Y-79012222D01*
G37*
G04 #@! TD.AperFunction*
G04 #@! TA.AperFunction,SMDPad,CuDef*
G36*
X94962203Y-80282222D02*
G01*
X94976764Y-80284382D01*
X94991043Y-80287959D01*
X95004903Y-80292918D01*
X95018210Y-80299212D01*
X95030836Y-80306780D01*
X95042659Y-80315548D01*
X95053566Y-80325434D01*
X95063452Y-80336341D01*
X95072220Y-80348164D01*
X95079788Y-80360790D01*
X95086082Y-80374097D01*
X95091041Y-80387957D01*
X95094618Y-80402236D01*
X95096778Y-80416797D01*
X95097500Y-80431500D01*
X95097500Y-80731500D01*
X95096778Y-80746203D01*
X95094618Y-80760764D01*
X95091041Y-80775043D01*
X95086082Y-80788903D01*
X95079788Y-80802210D01*
X95072220Y-80814836D01*
X95063452Y-80826659D01*
X95053566Y-80837566D01*
X95042659Y-80847452D01*
X95030836Y-80856220D01*
X95018210Y-80863788D01*
X95004903Y-80870082D01*
X94991043Y-80875041D01*
X94976764Y-80878618D01*
X94962203Y-80880778D01*
X94947500Y-80881500D01*
X93647500Y-80881500D01*
X93632797Y-80880778D01*
X93618236Y-80878618D01*
X93603957Y-80875041D01*
X93590097Y-80870082D01*
X93576790Y-80863788D01*
X93564164Y-80856220D01*
X93552341Y-80847452D01*
X93541434Y-80837566D01*
X93531548Y-80826659D01*
X93522780Y-80814836D01*
X93515212Y-80802210D01*
X93508918Y-80788903D01*
X93503959Y-80775043D01*
X93500382Y-80760764D01*
X93498222Y-80746203D01*
X93497500Y-80731500D01*
X93497500Y-80431500D01*
X93498222Y-80416797D01*
X93500382Y-80402236D01*
X93503959Y-80387957D01*
X93508918Y-80374097D01*
X93515212Y-80360790D01*
X93522780Y-80348164D01*
X93531548Y-80336341D01*
X93541434Y-80325434D01*
X93552341Y-80315548D01*
X93564164Y-80306780D01*
X93576790Y-80299212D01*
X93590097Y-80292918D01*
X93603957Y-80287959D01*
X93618236Y-80284382D01*
X93632797Y-80282222D01*
X93647500Y-80281500D01*
X94947500Y-80281500D01*
X94962203Y-80282222D01*
G37*
G04 #@! TD.AperFunction*
G04 #@! TA.AperFunction,SMDPad,CuDef*
G36*
X102162203Y-80282222D02*
G01*
X102176764Y-80284382D01*
X102191043Y-80287959D01*
X102204903Y-80292918D01*
X102218210Y-80299212D01*
X102230836Y-80306780D01*
X102242659Y-80315548D01*
X102253566Y-80325434D01*
X102263452Y-80336341D01*
X102272220Y-80348164D01*
X102279788Y-80360790D01*
X102286082Y-80374097D01*
X102291041Y-80387957D01*
X102294618Y-80402236D01*
X102296778Y-80416797D01*
X102297500Y-80431500D01*
X102297500Y-80731500D01*
X102296778Y-80746203D01*
X102294618Y-80760764D01*
X102291041Y-80775043D01*
X102286082Y-80788903D01*
X102279788Y-80802210D01*
X102272220Y-80814836D01*
X102263452Y-80826659D01*
X102253566Y-80837566D01*
X102242659Y-80847452D01*
X102230836Y-80856220D01*
X102218210Y-80863788D01*
X102204903Y-80870082D01*
X102191043Y-80875041D01*
X102176764Y-80878618D01*
X102162203Y-80880778D01*
X102147500Y-80881500D01*
X100847500Y-80881500D01*
X100832797Y-80880778D01*
X100818236Y-80878618D01*
X100803957Y-80875041D01*
X100790097Y-80870082D01*
X100776790Y-80863788D01*
X100764164Y-80856220D01*
X100752341Y-80847452D01*
X100741434Y-80837566D01*
X100731548Y-80826659D01*
X100722780Y-80814836D01*
X100715212Y-80802210D01*
X100708918Y-80788903D01*
X100703959Y-80775043D01*
X100700382Y-80760764D01*
X100698222Y-80746203D01*
X100697500Y-80731500D01*
X100697500Y-80431500D01*
X100698222Y-80416797D01*
X100700382Y-80402236D01*
X100703959Y-80387957D01*
X100708918Y-80374097D01*
X100715212Y-80360790D01*
X100722780Y-80348164D01*
X100731548Y-80336341D01*
X100741434Y-80325434D01*
X100752341Y-80315548D01*
X100764164Y-80306780D01*
X100776790Y-80299212D01*
X100790097Y-80292918D01*
X100803957Y-80287959D01*
X100818236Y-80284382D01*
X100832797Y-80282222D01*
X100847500Y-80281500D01*
X102147500Y-80281500D01*
X102162203Y-80282222D01*
G37*
G04 #@! TD.AperFunction*
G04 #@! TA.AperFunction,SMDPad,CuDef*
G36*
X102162203Y-79012222D02*
G01*
X102176764Y-79014382D01*
X102191043Y-79017959D01*
X102204903Y-79022918D01*
X102218210Y-79029212D01*
X102230836Y-79036780D01*
X102242659Y-79045548D01*
X102253566Y-79055434D01*
X102263452Y-79066341D01*
X102272220Y-79078164D01*
X102279788Y-79090790D01*
X102286082Y-79104097D01*
X102291041Y-79117957D01*
X102294618Y-79132236D01*
X102296778Y-79146797D01*
X102297500Y-79161500D01*
X102297500Y-79461500D01*
X102296778Y-79476203D01*
X102294618Y-79490764D01*
X102291041Y-79505043D01*
X102286082Y-79518903D01*
X102279788Y-79532210D01*
X102272220Y-79544836D01*
X102263452Y-79556659D01*
X102253566Y-79567566D01*
X102242659Y-79577452D01*
X102230836Y-79586220D01*
X102218210Y-79593788D01*
X102204903Y-79600082D01*
X102191043Y-79605041D01*
X102176764Y-79608618D01*
X102162203Y-79610778D01*
X102147500Y-79611500D01*
X100847500Y-79611500D01*
X100832797Y-79610778D01*
X100818236Y-79608618D01*
X100803957Y-79605041D01*
X100790097Y-79600082D01*
X100776790Y-79593788D01*
X100764164Y-79586220D01*
X100752341Y-79577452D01*
X100741434Y-79567566D01*
X100731548Y-79556659D01*
X100722780Y-79544836D01*
X100715212Y-79532210D01*
X100708918Y-79518903D01*
X100703959Y-79505043D01*
X100700382Y-79490764D01*
X100698222Y-79476203D01*
X100697500Y-79461500D01*
X100697500Y-79161500D01*
X100698222Y-79146797D01*
X100700382Y-79132236D01*
X100703959Y-79117957D01*
X100708918Y-79104097D01*
X100715212Y-79090790D01*
X100722780Y-79078164D01*
X100731548Y-79066341D01*
X100741434Y-79055434D01*
X100752341Y-79045548D01*
X100764164Y-79036780D01*
X100776790Y-79029212D01*
X100790097Y-79022918D01*
X100803957Y-79017959D01*
X100818236Y-79014382D01*
X100832797Y-79012222D01*
X100847500Y-79011500D01*
X102147500Y-79011500D01*
X102162203Y-79012222D01*
G37*
G04 #@! TD.AperFunction*
G04 #@! TA.AperFunction,SMDPad,CuDef*
G36*
X102162203Y-77742222D02*
G01*
X102176764Y-77744382D01*
X102191043Y-77747959D01*
X102204903Y-77752918D01*
X102218210Y-77759212D01*
X102230836Y-77766780D01*
X102242659Y-77775548D01*
X102253566Y-77785434D01*
X102263452Y-77796341D01*
X102272220Y-77808164D01*
X102279788Y-77820790D01*
X102286082Y-77834097D01*
X102291041Y-77847957D01*
X102294618Y-77862236D01*
X102296778Y-77876797D01*
X102297500Y-77891500D01*
X102297500Y-78191500D01*
X102296778Y-78206203D01*
X102294618Y-78220764D01*
X102291041Y-78235043D01*
X102286082Y-78248903D01*
X102279788Y-78262210D01*
X102272220Y-78274836D01*
X102263452Y-78286659D01*
X102253566Y-78297566D01*
X102242659Y-78307452D01*
X102230836Y-78316220D01*
X102218210Y-78323788D01*
X102204903Y-78330082D01*
X102191043Y-78335041D01*
X102176764Y-78338618D01*
X102162203Y-78340778D01*
X102147500Y-78341500D01*
X100847500Y-78341500D01*
X100832797Y-78340778D01*
X100818236Y-78338618D01*
X100803957Y-78335041D01*
X100790097Y-78330082D01*
X100776790Y-78323788D01*
X100764164Y-78316220D01*
X100752341Y-78307452D01*
X100741434Y-78297566D01*
X100731548Y-78286659D01*
X100722780Y-78274836D01*
X100715212Y-78262210D01*
X100708918Y-78248903D01*
X100703959Y-78235043D01*
X100700382Y-78220764D01*
X100698222Y-78206203D01*
X100697500Y-78191500D01*
X100697500Y-77891500D01*
X100698222Y-77876797D01*
X100700382Y-77862236D01*
X100703959Y-77847957D01*
X100708918Y-77834097D01*
X100715212Y-77820790D01*
X100722780Y-77808164D01*
X100731548Y-77796341D01*
X100741434Y-77785434D01*
X100752341Y-77775548D01*
X100764164Y-77766780D01*
X100776790Y-77759212D01*
X100790097Y-77752918D01*
X100803957Y-77747959D01*
X100818236Y-77744382D01*
X100832797Y-77742222D01*
X100847500Y-77741500D01*
X102147500Y-77741500D01*
X102162203Y-77742222D01*
G37*
G04 #@! TD.AperFunction*
G04 #@! TA.AperFunction,SMDPad,CuDef*
G36*
X102162203Y-76472222D02*
G01*
X102176764Y-76474382D01*
X102191043Y-76477959D01*
X102204903Y-76482918D01*
X102218210Y-76489212D01*
X102230836Y-76496780D01*
X102242659Y-76505548D01*
X102253566Y-76515434D01*
X102263452Y-76526341D01*
X102272220Y-76538164D01*
X102279788Y-76550790D01*
X102286082Y-76564097D01*
X102291041Y-76577957D01*
X102294618Y-76592236D01*
X102296778Y-76606797D01*
X102297500Y-76621500D01*
X102297500Y-76921500D01*
X102296778Y-76936203D01*
X102294618Y-76950764D01*
X102291041Y-76965043D01*
X102286082Y-76978903D01*
X102279788Y-76992210D01*
X102272220Y-77004836D01*
X102263452Y-77016659D01*
X102253566Y-77027566D01*
X102242659Y-77037452D01*
X102230836Y-77046220D01*
X102218210Y-77053788D01*
X102204903Y-77060082D01*
X102191043Y-77065041D01*
X102176764Y-77068618D01*
X102162203Y-77070778D01*
X102147500Y-77071500D01*
X100847500Y-77071500D01*
X100832797Y-77070778D01*
X100818236Y-77068618D01*
X100803957Y-77065041D01*
X100790097Y-77060082D01*
X100776790Y-77053788D01*
X100764164Y-77046220D01*
X100752341Y-77037452D01*
X100741434Y-77027566D01*
X100731548Y-77016659D01*
X100722780Y-77004836D01*
X100715212Y-76992210D01*
X100708918Y-76978903D01*
X100703959Y-76965043D01*
X100700382Y-76950764D01*
X100698222Y-76936203D01*
X100697500Y-76921500D01*
X100697500Y-76621500D01*
X100698222Y-76606797D01*
X100700382Y-76592236D01*
X100703959Y-76577957D01*
X100708918Y-76564097D01*
X100715212Y-76550790D01*
X100722780Y-76538164D01*
X100731548Y-76526341D01*
X100741434Y-76515434D01*
X100752341Y-76505548D01*
X100764164Y-76496780D01*
X100776790Y-76489212D01*
X100790097Y-76482918D01*
X100803957Y-76477959D01*
X100818236Y-76474382D01*
X100832797Y-76472222D01*
X100847500Y-76471500D01*
X102147500Y-76471500D01*
X102162203Y-76472222D01*
G37*
G04 #@! TD.AperFunction*
G04 #@! TA.AperFunction,SMDPad,CuDef*
G36*
X102709505Y-68278204D02*
G01*
X102733773Y-68281804D01*
X102757572Y-68287765D01*
X102780671Y-68296030D01*
X102802850Y-68306520D01*
X102823893Y-68319132D01*
X102843599Y-68333747D01*
X102861777Y-68350223D01*
X102878253Y-68368401D01*
X102892868Y-68388107D01*
X102905480Y-68409150D01*
X102915970Y-68431329D01*
X102924235Y-68454428D01*
X102930196Y-68478227D01*
X102933796Y-68502495D01*
X102935000Y-68526999D01*
X102935000Y-69177001D01*
X102933796Y-69201505D01*
X102930196Y-69225773D01*
X102924235Y-69249572D01*
X102915970Y-69272671D01*
X102905480Y-69294850D01*
X102892868Y-69315893D01*
X102878253Y-69335599D01*
X102861777Y-69353777D01*
X102843599Y-69370253D01*
X102823893Y-69384868D01*
X102802850Y-69397480D01*
X102780671Y-69407970D01*
X102757572Y-69416235D01*
X102733773Y-69422196D01*
X102709505Y-69425796D01*
X102685001Y-69427000D01*
X101784999Y-69427000D01*
X101760495Y-69425796D01*
X101736227Y-69422196D01*
X101712428Y-69416235D01*
X101689329Y-69407970D01*
X101667150Y-69397480D01*
X101646107Y-69384868D01*
X101626401Y-69370253D01*
X101608223Y-69353777D01*
X101591747Y-69335599D01*
X101577132Y-69315893D01*
X101564520Y-69294850D01*
X101554030Y-69272671D01*
X101545765Y-69249572D01*
X101539804Y-69225773D01*
X101536204Y-69201505D01*
X101535000Y-69177001D01*
X101535000Y-68526999D01*
X101536204Y-68502495D01*
X101539804Y-68478227D01*
X101545765Y-68454428D01*
X101554030Y-68431329D01*
X101564520Y-68409150D01*
X101577132Y-68388107D01*
X101591747Y-68368401D01*
X101608223Y-68350223D01*
X101626401Y-68333747D01*
X101646107Y-68319132D01*
X101667150Y-68306520D01*
X101689329Y-68296030D01*
X101712428Y-68287765D01*
X101736227Y-68281804D01*
X101760495Y-68278204D01*
X101784999Y-68277000D01*
X102685001Y-68277000D01*
X102709505Y-68278204D01*
G37*
G04 #@! TD.AperFunction*
G04 #@! TA.AperFunction,SMDPad,CuDef*
G36*
X102709505Y-66228204D02*
G01*
X102733773Y-66231804D01*
X102757572Y-66237765D01*
X102780671Y-66246030D01*
X102802850Y-66256520D01*
X102823893Y-66269132D01*
X102843599Y-66283747D01*
X102861777Y-66300223D01*
X102878253Y-66318401D01*
X102892868Y-66338107D01*
X102905480Y-66359150D01*
X102915970Y-66381329D01*
X102924235Y-66404428D01*
X102930196Y-66428227D01*
X102933796Y-66452495D01*
X102935000Y-66476999D01*
X102935000Y-67127001D01*
X102933796Y-67151505D01*
X102930196Y-67175773D01*
X102924235Y-67199572D01*
X102915970Y-67222671D01*
X102905480Y-67244850D01*
X102892868Y-67265893D01*
X102878253Y-67285599D01*
X102861777Y-67303777D01*
X102843599Y-67320253D01*
X102823893Y-67334868D01*
X102802850Y-67347480D01*
X102780671Y-67357970D01*
X102757572Y-67366235D01*
X102733773Y-67372196D01*
X102709505Y-67375796D01*
X102685001Y-67377000D01*
X101784999Y-67377000D01*
X101760495Y-67375796D01*
X101736227Y-67372196D01*
X101712428Y-67366235D01*
X101689329Y-67357970D01*
X101667150Y-67347480D01*
X101646107Y-67334868D01*
X101626401Y-67320253D01*
X101608223Y-67303777D01*
X101591747Y-67285599D01*
X101577132Y-67265893D01*
X101564520Y-67244850D01*
X101554030Y-67222671D01*
X101545765Y-67199572D01*
X101539804Y-67175773D01*
X101536204Y-67151505D01*
X101535000Y-67127001D01*
X101535000Y-66476999D01*
X101536204Y-66452495D01*
X101539804Y-66428227D01*
X101545765Y-66404428D01*
X101554030Y-66381329D01*
X101564520Y-66359150D01*
X101577132Y-66338107D01*
X101591747Y-66318401D01*
X101608223Y-66300223D01*
X101626401Y-66283747D01*
X101646107Y-66269132D01*
X101667150Y-66256520D01*
X101689329Y-66246030D01*
X101712428Y-66237765D01*
X101736227Y-66231804D01*
X101760495Y-66228204D01*
X101784999Y-66227000D01*
X102685001Y-66227000D01*
X102709505Y-66228204D01*
G37*
G04 #@! TD.AperFunction*
G04 #@! TA.AperFunction,SMDPad,CuDef*
G36*
X112808005Y-61848704D02*
G01*
X112832273Y-61852304D01*
X112856072Y-61858265D01*
X112879171Y-61866530D01*
X112901350Y-61877020D01*
X112922393Y-61889632D01*
X112942099Y-61904247D01*
X112960277Y-61920723D01*
X112976753Y-61938901D01*
X112991368Y-61958607D01*
X113003980Y-61979650D01*
X113014470Y-62001829D01*
X113022735Y-62024928D01*
X113028696Y-62048727D01*
X113032296Y-62072995D01*
X113033500Y-62097499D01*
X113033500Y-62997501D01*
X113032296Y-63022005D01*
X113028696Y-63046273D01*
X113022735Y-63070072D01*
X113014470Y-63093171D01*
X113003980Y-63115350D01*
X112991368Y-63136393D01*
X112976753Y-63156099D01*
X112960277Y-63174277D01*
X112942099Y-63190753D01*
X112922393Y-63205368D01*
X112901350Y-63217980D01*
X112879171Y-63228470D01*
X112856072Y-63236735D01*
X112832273Y-63242696D01*
X112808005Y-63246296D01*
X112783501Y-63247500D01*
X112133499Y-63247500D01*
X112108995Y-63246296D01*
X112084727Y-63242696D01*
X112060928Y-63236735D01*
X112037829Y-63228470D01*
X112015650Y-63217980D01*
X111994607Y-63205368D01*
X111974901Y-63190753D01*
X111956723Y-63174277D01*
X111940247Y-63156099D01*
X111925632Y-63136393D01*
X111913020Y-63115350D01*
X111902530Y-63093171D01*
X111894265Y-63070072D01*
X111888304Y-63046273D01*
X111884704Y-63022005D01*
X111883500Y-62997501D01*
X111883500Y-62097499D01*
X111884704Y-62072995D01*
X111888304Y-62048727D01*
X111894265Y-62024928D01*
X111902530Y-62001829D01*
X111913020Y-61979650D01*
X111925632Y-61958607D01*
X111940247Y-61938901D01*
X111956723Y-61920723D01*
X111974901Y-61904247D01*
X111994607Y-61889632D01*
X112015650Y-61877020D01*
X112037829Y-61866530D01*
X112060928Y-61858265D01*
X112084727Y-61852304D01*
X112108995Y-61848704D01*
X112133499Y-61847500D01*
X112783501Y-61847500D01*
X112808005Y-61848704D01*
G37*
G04 #@! TD.AperFunction*
G04 #@! TA.AperFunction,SMDPad,CuDef*
G36*
X114858005Y-61848704D02*
G01*
X114882273Y-61852304D01*
X114906072Y-61858265D01*
X114929171Y-61866530D01*
X114951350Y-61877020D01*
X114972393Y-61889632D01*
X114992099Y-61904247D01*
X115010277Y-61920723D01*
X115026753Y-61938901D01*
X115041368Y-61958607D01*
X115053980Y-61979650D01*
X115064470Y-62001829D01*
X115072735Y-62024928D01*
X115078696Y-62048727D01*
X115082296Y-62072995D01*
X115083500Y-62097499D01*
X115083500Y-62997501D01*
X115082296Y-63022005D01*
X115078696Y-63046273D01*
X115072735Y-63070072D01*
X115064470Y-63093171D01*
X115053980Y-63115350D01*
X115041368Y-63136393D01*
X115026753Y-63156099D01*
X115010277Y-63174277D01*
X114992099Y-63190753D01*
X114972393Y-63205368D01*
X114951350Y-63217980D01*
X114929171Y-63228470D01*
X114906072Y-63236735D01*
X114882273Y-63242696D01*
X114858005Y-63246296D01*
X114833501Y-63247500D01*
X114183499Y-63247500D01*
X114158995Y-63246296D01*
X114134727Y-63242696D01*
X114110928Y-63236735D01*
X114087829Y-63228470D01*
X114065650Y-63217980D01*
X114044607Y-63205368D01*
X114024901Y-63190753D01*
X114006723Y-63174277D01*
X113990247Y-63156099D01*
X113975632Y-63136393D01*
X113963020Y-63115350D01*
X113952530Y-63093171D01*
X113944265Y-63070072D01*
X113938304Y-63046273D01*
X113934704Y-63022005D01*
X113933500Y-62997501D01*
X113933500Y-62097499D01*
X113934704Y-62072995D01*
X113938304Y-62048727D01*
X113944265Y-62024928D01*
X113952530Y-62001829D01*
X113963020Y-61979650D01*
X113975632Y-61958607D01*
X113990247Y-61938901D01*
X114006723Y-61920723D01*
X114024901Y-61904247D01*
X114044607Y-61889632D01*
X114065650Y-61877020D01*
X114087829Y-61866530D01*
X114110928Y-61858265D01*
X114134727Y-61852304D01*
X114158995Y-61848704D01*
X114183499Y-61847500D01*
X114833501Y-61847500D01*
X114858005Y-61848704D01*
G37*
G04 #@! TD.AperFunction*
G04 #@! TA.AperFunction,SMDPad,CuDef*
G36*
X97629505Y-69276204D02*
G01*
X97653773Y-69279804D01*
X97677572Y-69285765D01*
X97700671Y-69294030D01*
X97722850Y-69304520D01*
X97743893Y-69317132D01*
X97763599Y-69331747D01*
X97781777Y-69348223D01*
X97798253Y-69366401D01*
X97812868Y-69386107D01*
X97825480Y-69407150D01*
X97835970Y-69429329D01*
X97844235Y-69452428D01*
X97850196Y-69476227D01*
X97853796Y-69500495D01*
X97855000Y-69524999D01*
X97855000Y-70175001D01*
X97853796Y-70199505D01*
X97850196Y-70223773D01*
X97844235Y-70247572D01*
X97835970Y-70270671D01*
X97825480Y-70292850D01*
X97812868Y-70313893D01*
X97798253Y-70333599D01*
X97781777Y-70351777D01*
X97763599Y-70368253D01*
X97743893Y-70382868D01*
X97722850Y-70395480D01*
X97700671Y-70405970D01*
X97677572Y-70414235D01*
X97653773Y-70420196D01*
X97629505Y-70423796D01*
X97605001Y-70425000D01*
X96704999Y-70425000D01*
X96680495Y-70423796D01*
X96656227Y-70420196D01*
X96632428Y-70414235D01*
X96609329Y-70405970D01*
X96587150Y-70395480D01*
X96566107Y-70382868D01*
X96546401Y-70368253D01*
X96528223Y-70351777D01*
X96511747Y-70333599D01*
X96497132Y-70313893D01*
X96484520Y-70292850D01*
X96474030Y-70270671D01*
X96465765Y-70247572D01*
X96459804Y-70223773D01*
X96456204Y-70199505D01*
X96455000Y-70175001D01*
X96455000Y-69524999D01*
X96456204Y-69500495D01*
X96459804Y-69476227D01*
X96465765Y-69452428D01*
X96474030Y-69429329D01*
X96484520Y-69407150D01*
X96497132Y-69386107D01*
X96511747Y-69366401D01*
X96528223Y-69348223D01*
X96546401Y-69331747D01*
X96566107Y-69317132D01*
X96587150Y-69304520D01*
X96609329Y-69294030D01*
X96632428Y-69285765D01*
X96656227Y-69279804D01*
X96680495Y-69276204D01*
X96704999Y-69275000D01*
X97605001Y-69275000D01*
X97629505Y-69276204D01*
G37*
G04 #@! TD.AperFunction*
G04 #@! TA.AperFunction,SMDPad,CuDef*
G36*
X97629505Y-67226204D02*
G01*
X97653773Y-67229804D01*
X97677572Y-67235765D01*
X97700671Y-67244030D01*
X97722850Y-67254520D01*
X97743893Y-67267132D01*
X97763599Y-67281747D01*
X97781777Y-67298223D01*
X97798253Y-67316401D01*
X97812868Y-67336107D01*
X97825480Y-67357150D01*
X97835970Y-67379329D01*
X97844235Y-67402428D01*
X97850196Y-67426227D01*
X97853796Y-67450495D01*
X97855000Y-67474999D01*
X97855000Y-68125001D01*
X97853796Y-68149505D01*
X97850196Y-68173773D01*
X97844235Y-68197572D01*
X97835970Y-68220671D01*
X97825480Y-68242850D01*
X97812868Y-68263893D01*
X97798253Y-68283599D01*
X97781777Y-68301777D01*
X97763599Y-68318253D01*
X97743893Y-68332868D01*
X97722850Y-68345480D01*
X97700671Y-68355970D01*
X97677572Y-68364235D01*
X97653773Y-68370196D01*
X97629505Y-68373796D01*
X97605001Y-68375000D01*
X96704999Y-68375000D01*
X96680495Y-68373796D01*
X96656227Y-68370196D01*
X96632428Y-68364235D01*
X96609329Y-68355970D01*
X96587150Y-68345480D01*
X96566107Y-68332868D01*
X96546401Y-68318253D01*
X96528223Y-68301777D01*
X96511747Y-68283599D01*
X96497132Y-68263893D01*
X96484520Y-68242850D01*
X96474030Y-68220671D01*
X96465765Y-68197572D01*
X96459804Y-68173773D01*
X96456204Y-68149505D01*
X96455000Y-68125001D01*
X96455000Y-67474999D01*
X96456204Y-67450495D01*
X96459804Y-67426227D01*
X96465765Y-67402428D01*
X96474030Y-67379329D01*
X96484520Y-67357150D01*
X96497132Y-67336107D01*
X96511747Y-67316401D01*
X96528223Y-67298223D01*
X96546401Y-67281747D01*
X96566107Y-67267132D01*
X96587150Y-67254520D01*
X96609329Y-67244030D01*
X96632428Y-67235765D01*
X96656227Y-67229804D01*
X96680495Y-67226204D01*
X96704999Y-67225000D01*
X97605001Y-67225000D01*
X97629505Y-67226204D01*
G37*
G04 #@! TD.AperFunction*
D18*
X66548000Y-56936000D03*
X66548000Y-61936000D03*
G04 #@! TA.AperFunction,SMDPad,CuDef*
D14*
G36*
X63363504Y-57500204D02*
G01*
X63387773Y-57503804D01*
X63411571Y-57509765D01*
X63434671Y-57518030D01*
X63456849Y-57528520D01*
X63477893Y-57541133D01*
X63497598Y-57555747D01*
X63515777Y-57572223D01*
X63532253Y-57590402D01*
X63546867Y-57610107D01*
X63559480Y-57631151D01*
X63569970Y-57653329D01*
X63578235Y-57676429D01*
X63584196Y-57700227D01*
X63587796Y-57724496D01*
X63589000Y-57749000D01*
X63589000Y-59599000D01*
X63587796Y-59623504D01*
X63584196Y-59647773D01*
X63578235Y-59671571D01*
X63569970Y-59694671D01*
X63559480Y-59716849D01*
X63546867Y-59737893D01*
X63532253Y-59757598D01*
X63515777Y-59775777D01*
X63497598Y-59792253D01*
X63477893Y-59806867D01*
X63456849Y-59819480D01*
X63434671Y-59829970D01*
X63411571Y-59838235D01*
X63387773Y-59844196D01*
X63363504Y-59847796D01*
X63339000Y-59849000D01*
X62339000Y-59849000D01*
X62314496Y-59847796D01*
X62290227Y-59844196D01*
X62266429Y-59838235D01*
X62243329Y-59829970D01*
X62221151Y-59819480D01*
X62200107Y-59806867D01*
X62180402Y-59792253D01*
X62162223Y-59775777D01*
X62145747Y-59757598D01*
X62131133Y-59737893D01*
X62118520Y-59716849D01*
X62108030Y-59694671D01*
X62099765Y-59671571D01*
X62093804Y-59647773D01*
X62090204Y-59623504D01*
X62089000Y-59599000D01*
X62089000Y-57749000D01*
X62090204Y-57724496D01*
X62093804Y-57700227D01*
X62099765Y-57676429D01*
X62108030Y-57653329D01*
X62118520Y-57631151D01*
X62131133Y-57610107D01*
X62145747Y-57590402D01*
X62162223Y-57572223D01*
X62180402Y-57555747D01*
X62200107Y-57541133D01*
X62221151Y-57528520D01*
X62243329Y-57518030D01*
X62266429Y-57509765D01*
X62290227Y-57503804D01*
X62314496Y-57500204D01*
X62339000Y-57499000D01*
X63339000Y-57499000D01*
X63363504Y-57500204D01*
G37*
G04 #@! TD.AperFunction*
G04 #@! TA.AperFunction,SMDPad,CuDef*
G36*
X60113504Y-57500204D02*
G01*
X60137773Y-57503804D01*
X60161571Y-57509765D01*
X60184671Y-57518030D01*
X60206849Y-57528520D01*
X60227893Y-57541133D01*
X60247598Y-57555747D01*
X60265777Y-57572223D01*
X60282253Y-57590402D01*
X60296867Y-57610107D01*
X60309480Y-57631151D01*
X60319970Y-57653329D01*
X60328235Y-57676429D01*
X60334196Y-57700227D01*
X60337796Y-57724496D01*
X60339000Y-57749000D01*
X60339000Y-59599000D01*
X60337796Y-59623504D01*
X60334196Y-59647773D01*
X60328235Y-59671571D01*
X60319970Y-59694671D01*
X60309480Y-59716849D01*
X60296867Y-59737893D01*
X60282253Y-59757598D01*
X60265777Y-59775777D01*
X60247598Y-59792253D01*
X60227893Y-59806867D01*
X60206849Y-59819480D01*
X60184671Y-59829970D01*
X60161571Y-59838235D01*
X60137773Y-59844196D01*
X60113504Y-59847796D01*
X60089000Y-59849000D01*
X59089000Y-59849000D01*
X59064496Y-59847796D01*
X59040227Y-59844196D01*
X59016429Y-59838235D01*
X58993329Y-59829970D01*
X58971151Y-59819480D01*
X58950107Y-59806867D01*
X58930402Y-59792253D01*
X58912223Y-59775777D01*
X58895747Y-59757598D01*
X58881133Y-59737893D01*
X58868520Y-59716849D01*
X58858030Y-59694671D01*
X58849765Y-59671571D01*
X58843804Y-59647773D01*
X58840204Y-59623504D01*
X58839000Y-59599000D01*
X58839000Y-57749000D01*
X58840204Y-57724496D01*
X58843804Y-57700227D01*
X58849765Y-57676429D01*
X58858030Y-57653329D01*
X58868520Y-57631151D01*
X58881133Y-57610107D01*
X58895747Y-57590402D01*
X58912223Y-57572223D01*
X58930402Y-57555747D01*
X58950107Y-57541133D01*
X58971151Y-57528520D01*
X58993329Y-57518030D01*
X59016429Y-57509765D01*
X59040227Y-57503804D01*
X59064496Y-57500204D01*
X59089000Y-57499000D01*
X60089000Y-57499000D01*
X60113504Y-57500204D01*
G37*
G04 #@! TD.AperFunction*
D15*
X62675000Y-53975000D03*
X129095000Y-53975000D03*
D19*
X125712000Y-80351000D03*
X125712000Y-77851000D03*
X125712000Y-75351000D03*
D20*
X118312000Y-83251000D03*
X118312000Y-72551000D03*
D21*
X96454000Y-64262000D03*
X94554000Y-64262000D03*
X95504000Y-67262000D03*
D22*
X63119000Y-57015999D03*
X62484000Y-57023000D03*
X61849000Y-57023000D03*
X122578501Y-78753499D03*
X122578501Y-80033501D03*
X122578501Y-79375000D03*
X95504000Y-70993000D03*
X95504000Y-71628000D03*
X92597480Y-73660000D03*
X92597480Y-73025000D03*
X128016000Y-52959000D03*
X129159000Y-52959000D03*
X130175000Y-52959000D03*
X128016000Y-53975000D03*
X130175000Y-53975000D03*
X129159000Y-53975000D03*
X128016000Y-54991000D03*
X129159000Y-54991000D03*
X130175000Y-54991000D03*
X96075500Y-80581500D03*
X95377000Y-80581500D03*
X92597480Y-72390000D03*
X95504000Y-72263000D03*
X66294000Y-52832000D03*
X66294000Y-53467000D03*
X66294000Y-54102000D03*
X65659000Y-54102000D03*
X65659000Y-53467000D03*
X65659000Y-52832000D03*
X65024000Y-52832000D03*
X65024000Y-53467000D03*
X65024000Y-54102000D03*
X100012500Y-76263500D03*
X100012500Y-77089000D03*
X100012500Y-78740000D03*
X100012500Y-77978000D03*
X118681500Y-77470000D03*
X113342500Y-59626500D03*
X113342500Y-60198000D03*
X113342500Y-60769500D03*
X118110000Y-77470000D03*
X119253000Y-77470000D03*
X65151000Y-60579000D03*
X65151000Y-61214000D03*
X65151000Y-61849000D03*
X101473000Y-80562000D03*
X95694500Y-76771500D03*
X101473000Y-78041500D03*
X78740000Y-62611000D03*
X103505000Y-74803000D03*
X112392500Y-68196500D03*
X119888000Y-80013500D03*
X110426500Y-62674500D03*
X110426500Y-63563500D03*
D23*
X122578501Y-80033501D02*
X122999500Y-80454500D01*
D24*
X125608500Y-80454500D02*
X125712000Y-80351000D01*
D23*
X122999500Y-80454500D02*
X125608500Y-80454500D01*
X117284500Y-65087500D02*
X117284500Y-65468500D01*
X117284500Y-65468500D02*
X117348000Y-65532000D01*
X122578501Y-80033501D02*
X122578501Y-78753499D01*
X93497500Y-80581500D02*
X92597480Y-79681480D01*
X94297500Y-80581500D02*
X93497500Y-80581500D01*
X92597480Y-79681480D02*
X92597480Y-73025000D01*
X94297500Y-80581500D02*
X96075500Y-80581500D01*
X92597480Y-73025000D02*
X92597480Y-72390000D01*
X95504000Y-72263000D02*
X95504000Y-67262000D01*
X102235000Y-66802000D02*
X99441000Y-66802000D01*
X94554000Y-62812000D02*
X95644000Y-61722000D01*
X94554000Y-64262000D02*
X94554000Y-62812000D01*
X95644000Y-61722000D02*
X99441000Y-61722000D01*
X115361999Y-69620003D02*
X119253000Y-65729002D01*
X115361999Y-74183499D02*
X115361999Y-69620003D01*
X119253000Y-65729002D02*
X119253000Y-59182000D01*
X69850000Y-74422000D02*
X69850000Y-68580000D01*
X69850000Y-68580000D02*
X69850000Y-59309000D01*
X118899447Y-77470000D02*
X119253000Y-77470000D01*
X118110000Y-77470000D02*
X118899447Y-77470000D01*
X115361999Y-74183499D02*
X115361999Y-74721999D01*
X115361999Y-74721999D02*
X118110000Y-77470000D01*
X114508500Y-62547500D02*
X117284500Y-62547500D01*
D24*
X95694500Y-76771500D02*
X94297500Y-76771500D01*
X78740000Y-75692000D02*
X78740000Y-62611000D01*
X77470000Y-76962000D02*
X78740000Y-75692000D01*
X112204500Y-66883500D02*
X112458500Y-66629500D01*
X112392500Y-66695500D02*
X112458500Y-66629500D01*
X112392500Y-68196500D02*
X112392500Y-66695500D01*
X110111500Y-68196500D02*
X103505000Y-74803000D01*
X112392500Y-68196500D02*
X110111500Y-68196500D01*
X102297500Y-79311500D02*
X101497500Y-79311500D01*
X103505000Y-74803000D02*
X103505000Y-78104000D01*
X103505000Y-78104000D02*
X102297500Y-79311500D01*
X95097500Y-78041500D02*
X96992510Y-79936510D01*
X94297500Y-78041500D02*
X95097500Y-78041500D01*
X103050510Y-79936510D02*
X96992510Y-79936510D01*
X122667814Y-77851000D02*
X120463001Y-80055813D01*
X125712000Y-77851000D02*
X122667814Y-77851000D01*
X120463001Y-80055813D02*
X120463001Y-80289501D01*
X120463001Y-80289501D02*
X120164001Y-80588501D01*
X103702501Y-80588501D02*
X103050510Y-79936510D01*
X120164001Y-80588501D02*
X103702501Y-80588501D01*
X127174499Y-70722999D02*
X126174500Y-69723000D01*
X128287001Y-71835501D02*
X127174499Y-70722999D01*
X128287001Y-77775999D02*
X128287001Y-71835501D01*
X125712000Y-77851000D02*
X128212000Y-77851000D01*
X128212000Y-77851000D02*
X128287001Y-77775999D01*
X94297500Y-79311500D02*
X93497500Y-79311500D01*
X93497500Y-79311500D02*
X93172490Y-78986490D01*
X93172490Y-76424742D02*
X94921232Y-74676000D01*
X93172490Y-78986490D02*
X93172490Y-76424742D01*
X94921232Y-74676000D02*
X96266000Y-74676000D01*
X97155000Y-73787000D02*
X97155000Y-69850000D01*
X96266000Y-74676000D02*
X97155000Y-73787000D01*
X119888000Y-80013500D02*
X119888000Y-75755500D01*
X119888000Y-75755500D02*
X120292500Y-75351000D01*
X120292500Y-75351000D02*
X125712000Y-75351000D01*
X123212000Y-75351000D02*
X125712000Y-75351000D01*
X121983500Y-69723000D02*
X121983500Y-74122500D01*
X121983500Y-74122500D02*
X123212000Y-75351000D01*
X97104000Y-64262000D02*
X99314000Y-64262000D01*
X97104000Y-64262000D02*
X96454000Y-64262000D01*
X97155000Y-64313000D02*
X97104000Y-64262000D01*
X97155000Y-67800000D02*
X97155000Y-66675000D01*
X96454000Y-65974000D02*
X96454000Y-64262000D01*
X97155000Y-66675000D02*
X96454000Y-65974000D01*
D25*
G36*
X67310000Y-63627000D02*
G01*
X61595000Y-63627000D01*
X61595000Y-60833000D01*
X64389000Y-60833000D01*
X64413776Y-60830560D01*
X64437601Y-60823333D01*
X64459557Y-60811597D01*
X64478803Y-60795803D01*
X64949606Y-60325000D01*
X67310000Y-60325000D01*
X67310000Y-63627000D01*
G37*
X67310000Y-63627000D02*
X61595000Y-63627000D01*
X61595000Y-60833000D01*
X64389000Y-60833000D01*
X64413776Y-60830560D01*
X64437601Y-60823333D01*
X64459557Y-60811597D01*
X64478803Y-60795803D01*
X64949606Y-60325000D01*
X67310000Y-60325000D01*
X67310000Y-63627000D01*
G36*
X63500000Y-56921606D02*
G01*
X63500000Y-59664394D01*
X63474394Y-59690000D01*
X62255606Y-59690000D01*
X62230000Y-59664394D01*
X62230000Y-57340500D01*
X62227560Y-57315724D01*
X62220333Y-57291899D01*
X62208597Y-57269943D01*
X62192803Y-57250697D01*
X62129303Y-57187197D01*
X62110057Y-57171403D01*
X62088101Y-57159667D01*
X62064276Y-57152440D01*
X62039500Y-57150000D01*
X61493606Y-57150000D01*
X61468000Y-57124394D01*
X61468000Y-56921606D01*
X61493606Y-56896000D01*
X63474394Y-56896000D01*
X63500000Y-56921606D01*
G37*
X63500000Y-56921606D02*
X63500000Y-59664394D01*
X63474394Y-59690000D01*
X62255606Y-59690000D01*
X62230000Y-59664394D01*
X62230000Y-57340500D01*
X62227560Y-57315724D01*
X62220333Y-57291899D01*
X62208597Y-57269943D01*
X62192803Y-57250697D01*
X62129303Y-57187197D01*
X62110057Y-57171403D01*
X62088101Y-57159667D01*
X62064276Y-57152440D01*
X62039500Y-57150000D01*
X61493606Y-57150000D01*
X61468000Y-57124394D01*
X61468000Y-56921606D01*
X61493606Y-56896000D01*
X63474394Y-56896000D01*
X63500000Y-56921606D01*
G36*
X64008000Y-55372000D02*
G01*
X60706000Y-55372000D01*
X60681224Y-55374440D01*
X60657399Y-55381667D01*
X60635443Y-55393403D01*
X60616197Y-55409197D01*
X60235197Y-55790197D01*
X60219403Y-55809443D01*
X60207667Y-55831399D01*
X60200440Y-55855224D01*
X60198000Y-55880000D01*
X60198000Y-60653394D01*
X59854197Y-60997197D01*
X59838403Y-61016443D01*
X59826667Y-61038399D01*
X59819440Y-61062224D01*
X59817000Y-61087000D01*
X59817000Y-63627000D01*
X57023000Y-63627000D01*
X57023000Y-60833000D01*
X58420000Y-60833000D01*
X58444776Y-60830560D01*
X58468601Y-60823333D01*
X58490557Y-60811597D01*
X58509803Y-60795803D01*
X58890803Y-60414803D01*
X58906597Y-60395557D01*
X58918333Y-60373601D01*
X58925560Y-60349776D01*
X58928000Y-60325000D01*
X58928000Y-52884606D01*
X59234606Y-52578000D01*
X64008000Y-52578000D01*
X64008000Y-55372000D01*
G37*
X64008000Y-55372000D02*
X60706000Y-55372000D01*
X60681224Y-55374440D01*
X60657399Y-55381667D01*
X60635443Y-55393403D01*
X60616197Y-55409197D01*
X60235197Y-55790197D01*
X60219403Y-55809443D01*
X60207667Y-55831399D01*
X60200440Y-55855224D01*
X60198000Y-55880000D01*
X60198000Y-60653394D01*
X59854197Y-60997197D01*
X59838403Y-61016443D01*
X59826667Y-61038399D01*
X59819440Y-61062224D01*
X59817000Y-61087000D01*
X59817000Y-63627000D01*
X57023000Y-63627000D01*
X57023000Y-60833000D01*
X58420000Y-60833000D01*
X58444776Y-60830560D01*
X58468601Y-60823333D01*
X58490557Y-60811597D01*
X58509803Y-60795803D01*
X58890803Y-60414803D01*
X58906597Y-60395557D01*
X58918333Y-60373601D01*
X58925560Y-60349776D01*
X58928000Y-60325000D01*
X58928000Y-52884606D01*
X59234606Y-52578000D01*
X64008000Y-52578000D01*
X64008000Y-55372000D01*
G36*
X113093500Y-61938106D02*
G01*
X113093500Y-65061894D01*
X113067894Y-65087500D01*
X111849106Y-65087500D01*
X111823500Y-65061894D01*
X111823500Y-64044500D01*
X111821060Y-64019724D01*
X111813833Y-63995899D01*
X111802097Y-63973943D01*
X111786303Y-63954697D01*
X111686303Y-63854697D01*
X111667057Y-63838903D01*
X111645101Y-63827167D01*
X111621276Y-63819940D01*
X111596500Y-63817500D01*
X110325106Y-63817500D01*
X110299500Y-63791894D01*
X110299500Y-62509606D01*
X110325106Y-62484000D01*
X111723500Y-62484000D01*
X111748276Y-62481560D01*
X111772101Y-62474333D01*
X111794057Y-62462597D01*
X111813303Y-62446803D01*
X111913303Y-62346803D01*
X111929097Y-62327557D01*
X111940833Y-62305601D01*
X111948060Y-62281776D01*
X111950500Y-62257000D01*
X111950500Y-61938106D01*
X111976106Y-61912500D01*
X113067894Y-61912500D01*
X113093500Y-61938106D01*
G37*
X113093500Y-61938106D02*
X113093500Y-65061894D01*
X113067894Y-65087500D01*
X111849106Y-65087500D01*
X111823500Y-65061894D01*
X111823500Y-64044500D01*
X111821060Y-64019724D01*
X111813833Y-63995899D01*
X111802097Y-63973943D01*
X111786303Y-63954697D01*
X111686303Y-63854697D01*
X111667057Y-63838903D01*
X111645101Y-63827167D01*
X111621276Y-63819940D01*
X111596500Y-63817500D01*
X110325106Y-63817500D01*
X110299500Y-63791894D01*
X110299500Y-62509606D01*
X110325106Y-62484000D01*
X111723500Y-62484000D01*
X111748276Y-62481560D01*
X111772101Y-62474333D01*
X111794057Y-62462597D01*
X111813303Y-62446803D01*
X111913303Y-62346803D01*
X111929097Y-62327557D01*
X111940833Y-62305601D01*
X111948060Y-62281776D01*
X111950500Y-62257000D01*
X111950500Y-61938106D01*
X111976106Y-61912500D01*
X113067894Y-61912500D01*
X113093500Y-61938106D01*
G36*
X68199000Y-58674000D02*
G01*
X68201440Y-58698776D01*
X68208667Y-58722601D01*
X68220403Y-58744557D01*
X68236197Y-58763803D01*
X68255443Y-58779597D01*
X68277399Y-58791333D01*
X68301224Y-58798560D01*
X68326000Y-58801000D01*
X119380000Y-58801000D01*
X119380000Y-59690000D01*
X105029000Y-59690000D01*
X105004224Y-59692440D01*
X104980399Y-59699667D01*
X104958443Y-59711403D01*
X104939197Y-59727197D01*
X104923403Y-59746443D01*
X104911667Y-59768399D01*
X104904440Y-59792224D01*
X104902000Y-59817000D01*
X104902000Y-72766777D01*
X104770777Y-72898000D01*
X102235000Y-72898000D01*
X102210224Y-72900440D01*
X102186399Y-72907667D01*
X102164443Y-72919403D01*
X102145197Y-72935197D01*
X102129403Y-72954443D01*
X102117667Y-72976399D01*
X102110440Y-73000224D01*
X102108000Y-73025000D01*
X102108000Y-75834560D01*
X101783250Y-75836500D01*
X101624500Y-75995250D01*
X101624500Y-76644500D01*
X101644500Y-76644500D01*
X101644500Y-76898500D01*
X100221250Y-76898500D01*
X100062500Y-77057250D01*
X100059428Y-77071500D01*
X100071688Y-77195982D01*
X100107998Y-77315680D01*
X100166963Y-77425994D01*
X100246315Y-77522685D01*
X100266500Y-77539250D01*
X100266500Y-78994000D01*
X99758500Y-78994000D01*
X99758500Y-75946000D01*
X100266500Y-75946000D01*
X100266500Y-76003750D01*
X100246315Y-76020315D01*
X100166963Y-76117006D01*
X100107998Y-76227320D01*
X100071688Y-76347018D01*
X100059428Y-76471500D01*
X100062500Y-76485750D01*
X100221250Y-76644500D01*
X101370500Y-76644500D01*
X101370500Y-75995250D01*
X101211750Y-75836500D01*
X100838000Y-75834267D01*
X100838000Y-69427000D01*
X100896928Y-69427000D01*
X100909188Y-69551482D01*
X100945498Y-69671180D01*
X101004463Y-69781494D01*
X101083815Y-69878185D01*
X101180506Y-69957537D01*
X101290820Y-70016502D01*
X101410518Y-70052812D01*
X101535000Y-70065072D01*
X101949250Y-70062000D01*
X102108000Y-69903250D01*
X102108000Y-68979000D01*
X102362000Y-68979000D01*
X102362000Y-69903250D01*
X102520750Y-70062000D01*
X102935000Y-70065072D01*
X103059482Y-70052812D01*
X103179180Y-70016502D01*
X103289494Y-69957537D01*
X103386185Y-69878185D01*
X103465537Y-69781494D01*
X103524502Y-69671180D01*
X103560812Y-69551482D01*
X103573072Y-69427000D01*
X103570000Y-69137750D01*
X103411250Y-68979000D01*
X102362000Y-68979000D01*
X102108000Y-68979000D01*
X101058750Y-68979000D01*
X100900000Y-69137750D01*
X100896928Y-69427000D01*
X100838000Y-69427000D01*
X100838000Y-68834000D01*
X103505000Y-68834000D01*
X103529776Y-68831560D01*
X103553601Y-68824333D01*
X103575557Y-68812597D01*
X103594803Y-68796803D01*
X103610597Y-68777557D01*
X103622333Y-68755601D01*
X103629560Y-68731776D01*
X103632000Y-68707000D01*
X103632000Y-59817000D01*
X103629560Y-59792224D01*
X103622333Y-59768399D01*
X103610597Y-59746443D01*
X103594803Y-59727197D01*
X103575557Y-59711403D01*
X103553601Y-59699667D01*
X103529776Y-59692440D01*
X103505000Y-59690000D01*
X64770000Y-59690000D01*
X64770000Y-58686000D01*
X65009928Y-58686000D01*
X65022188Y-58810482D01*
X65058498Y-58930180D01*
X65117463Y-59040494D01*
X65196815Y-59137185D01*
X65293506Y-59216537D01*
X65403820Y-59275502D01*
X65523518Y-59311812D01*
X65648000Y-59324072D01*
X66262250Y-59321000D01*
X66421000Y-59162250D01*
X66421000Y-57063000D01*
X66675000Y-57063000D01*
X66675000Y-59162250D01*
X66833750Y-59321000D01*
X67448000Y-59324072D01*
X67572482Y-59311812D01*
X67692180Y-59275502D01*
X67802494Y-59216537D01*
X67899185Y-59137185D01*
X67978537Y-59040494D01*
X68037502Y-58930180D01*
X68073812Y-58810482D01*
X68086072Y-58686000D01*
X68083000Y-57221750D01*
X67924250Y-57063000D01*
X66675000Y-57063000D01*
X66421000Y-57063000D01*
X65171750Y-57063000D01*
X65013000Y-57221750D01*
X65009928Y-58686000D01*
X64770000Y-58686000D01*
X64770000Y-55186000D01*
X65009928Y-55186000D01*
X65013000Y-56650250D01*
X65171750Y-56809000D01*
X66421000Y-56809000D01*
X66421000Y-54709750D01*
X66675000Y-54709750D01*
X66675000Y-56809000D01*
X67924250Y-56809000D01*
X68083000Y-56650250D01*
X68086072Y-55186000D01*
X68073812Y-55061518D01*
X68037502Y-54941820D01*
X67978537Y-54831506D01*
X67899185Y-54734815D01*
X67802494Y-54655463D01*
X67692180Y-54596498D01*
X67572482Y-54560188D01*
X67448000Y-54547928D01*
X66833750Y-54551000D01*
X66675000Y-54709750D01*
X66421000Y-54709750D01*
X66262250Y-54551000D01*
X65648000Y-54547928D01*
X65523518Y-54560188D01*
X65403820Y-54596498D01*
X65293506Y-54655463D01*
X65196815Y-54734815D01*
X65117463Y-54831506D01*
X65058498Y-54941820D01*
X65022188Y-55061518D01*
X65009928Y-55186000D01*
X64770000Y-55186000D01*
X64770000Y-52578000D01*
X68199000Y-52578000D01*
X68199000Y-58674000D01*
G37*
X68199000Y-58674000D02*
X68201440Y-58698776D01*
X68208667Y-58722601D01*
X68220403Y-58744557D01*
X68236197Y-58763803D01*
X68255443Y-58779597D01*
X68277399Y-58791333D01*
X68301224Y-58798560D01*
X68326000Y-58801000D01*
X119380000Y-58801000D01*
X119380000Y-59690000D01*
X105029000Y-59690000D01*
X105004224Y-59692440D01*
X104980399Y-59699667D01*
X104958443Y-59711403D01*
X104939197Y-59727197D01*
X104923403Y-59746443D01*
X104911667Y-59768399D01*
X104904440Y-59792224D01*
X104902000Y-59817000D01*
X104902000Y-72766777D01*
X104770777Y-72898000D01*
X102235000Y-72898000D01*
X102210224Y-72900440D01*
X102186399Y-72907667D01*
X102164443Y-72919403D01*
X102145197Y-72935197D01*
X102129403Y-72954443D01*
X102117667Y-72976399D01*
X102110440Y-73000224D01*
X102108000Y-73025000D01*
X102108000Y-75834560D01*
X101783250Y-75836500D01*
X101624500Y-75995250D01*
X101624500Y-76644500D01*
X101644500Y-76644500D01*
X101644500Y-76898500D01*
X100221250Y-76898500D01*
X100062500Y-77057250D01*
X100059428Y-77071500D01*
X100071688Y-77195982D01*
X100107998Y-77315680D01*
X100166963Y-77425994D01*
X100246315Y-77522685D01*
X100266500Y-77539250D01*
X100266500Y-78994000D01*
X99758500Y-78994000D01*
X99758500Y-75946000D01*
X100266500Y-75946000D01*
X100266500Y-76003750D01*
X100246315Y-76020315D01*
X100166963Y-76117006D01*
X100107998Y-76227320D01*
X100071688Y-76347018D01*
X100059428Y-76471500D01*
X100062500Y-76485750D01*
X100221250Y-76644500D01*
X101370500Y-76644500D01*
X101370500Y-75995250D01*
X101211750Y-75836500D01*
X100838000Y-75834267D01*
X100838000Y-69427000D01*
X100896928Y-69427000D01*
X100909188Y-69551482D01*
X100945498Y-69671180D01*
X101004463Y-69781494D01*
X101083815Y-69878185D01*
X101180506Y-69957537D01*
X101290820Y-70016502D01*
X101410518Y-70052812D01*
X101535000Y-70065072D01*
X101949250Y-70062000D01*
X102108000Y-69903250D01*
X102108000Y-68979000D01*
X102362000Y-68979000D01*
X102362000Y-69903250D01*
X102520750Y-70062000D01*
X102935000Y-70065072D01*
X103059482Y-70052812D01*
X103179180Y-70016502D01*
X103289494Y-69957537D01*
X103386185Y-69878185D01*
X103465537Y-69781494D01*
X103524502Y-69671180D01*
X103560812Y-69551482D01*
X103573072Y-69427000D01*
X103570000Y-69137750D01*
X103411250Y-68979000D01*
X102362000Y-68979000D01*
X102108000Y-68979000D01*
X101058750Y-68979000D01*
X100900000Y-69137750D01*
X100896928Y-69427000D01*
X100838000Y-69427000D01*
X100838000Y-68834000D01*
X103505000Y-68834000D01*
X103529776Y-68831560D01*
X103553601Y-68824333D01*
X103575557Y-68812597D01*
X103594803Y-68796803D01*
X103610597Y-68777557D01*
X103622333Y-68755601D01*
X103629560Y-68731776D01*
X103632000Y-68707000D01*
X103632000Y-59817000D01*
X103629560Y-59792224D01*
X103622333Y-59768399D01*
X103610597Y-59746443D01*
X103594803Y-59727197D01*
X103575557Y-59711403D01*
X103553601Y-59699667D01*
X103529776Y-59692440D01*
X103505000Y-59690000D01*
X64770000Y-59690000D01*
X64770000Y-58686000D01*
X65009928Y-58686000D01*
X65022188Y-58810482D01*
X65058498Y-58930180D01*
X65117463Y-59040494D01*
X65196815Y-59137185D01*
X65293506Y-59216537D01*
X65403820Y-59275502D01*
X65523518Y-59311812D01*
X65648000Y-59324072D01*
X66262250Y-59321000D01*
X66421000Y-59162250D01*
X66421000Y-57063000D01*
X66675000Y-57063000D01*
X66675000Y-59162250D01*
X66833750Y-59321000D01*
X67448000Y-59324072D01*
X67572482Y-59311812D01*
X67692180Y-59275502D01*
X67802494Y-59216537D01*
X67899185Y-59137185D01*
X67978537Y-59040494D01*
X68037502Y-58930180D01*
X68073812Y-58810482D01*
X68086072Y-58686000D01*
X68083000Y-57221750D01*
X67924250Y-57063000D01*
X66675000Y-57063000D01*
X66421000Y-57063000D01*
X65171750Y-57063000D01*
X65013000Y-57221750D01*
X65009928Y-58686000D01*
X64770000Y-58686000D01*
X64770000Y-55186000D01*
X65009928Y-55186000D01*
X65013000Y-56650250D01*
X65171750Y-56809000D01*
X66421000Y-56809000D01*
X66421000Y-54709750D01*
X66675000Y-54709750D01*
X66675000Y-56809000D01*
X67924250Y-56809000D01*
X68083000Y-56650250D01*
X68086072Y-55186000D01*
X68073812Y-55061518D01*
X68037502Y-54941820D01*
X67978537Y-54831506D01*
X67899185Y-54734815D01*
X67802494Y-54655463D01*
X67692180Y-54596498D01*
X67572482Y-54560188D01*
X67448000Y-54547928D01*
X66833750Y-54551000D01*
X66675000Y-54709750D01*
X66421000Y-54709750D01*
X66262250Y-54551000D01*
X65648000Y-54547928D01*
X65523518Y-54560188D01*
X65403820Y-54596498D01*
X65293506Y-54655463D01*
X65196815Y-54734815D01*
X65117463Y-54831506D01*
X65058498Y-54941820D01*
X65022188Y-55061518D01*
X65009928Y-55186000D01*
X64770000Y-55186000D01*
X64770000Y-52578000D01*
X68199000Y-52578000D01*
X68199000Y-58674000D01*
G36*
X113665000Y-60960000D02*
G01*
X113030000Y-60960000D01*
X113030000Y-59182000D01*
X113665000Y-59182000D01*
X113665000Y-60960000D01*
G37*
X113665000Y-60960000D02*
X113030000Y-60960000D01*
X113030000Y-59182000D01*
X113665000Y-59182000D01*
X113665000Y-60960000D01*
M02*
